<svg xmlns="http://www.w3.org/2000/svg" viewBox="0 0 256 256"><rect width="256" height="256" fill="none"/><path d="M112,80H216a32,32,0,0,1,32,32v56a0,0,0,0,1,0,0H112a0,0,0,0,1,0,0V80A0,0,0,0,1,112,80Z" opacity="0.2"/><path d="M112,168V80H216a32,32,0,0,1,32,32v56" fill="none" stroke="currentColor" stroke-linecap="round" stroke-linejoin="round" stroke-width="16"/><line x1="24" y1="208" x2="24" y2="48" fill="none" stroke="currentColor" stroke-linecap="round" stroke-linejoin="round" stroke-width="16"/><polyline points="24 168 248 168 248 208" fill="none" stroke="currentColor" stroke-linecap="round" stroke-linejoin="round" stroke-width="16"/><line x1="112" y1="80" x2="24" y2="80" fill="none" stroke="currentColor" stroke-linecap="round" stroke-linejoin="round" stroke-width="16"/></svg>