<svg xmlns="http://www.w3.org/2000/svg" viewBox="0 0 256 256"><rect width="256" height="256" fill="none"/><rect x="8" y="144" width="184" height="64" rx="32" opacity="0.2"/><rect x="8" y="144" width="184" height="64" rx="32" fill="none" stroke="currentColor" stroke-linecap="round" stroke-linejoin="round" stroke-width="16"/><line x1="56" y1="48" x2="56" y2="144" fill="none" stroke="currentColor" stroke-linecap="round" stroke-linejoin="round" stroke-width="16"/><path d="M248,144h-8a16,16,0,0,0-16,16v32a16,16,0,0,0,16,16h8" fill="none" stroke="currentColor" stroke-linecap="round" stroke-linejoin="round" stroke-width="16"/><line x1="192" y1="176" x2="224" y2="176" fill="none" stroke="currentColor" stroke-linecap="round" stroke-linejoin="round" stroke-width="16"/><line x1="40" y1="176" x2="160" y2="176" fill="none" stroke="currentColor" stroke-linecap="round" stroke-linejoin="round" stroke-width="16"/><path d="M16,154.83V56a8,8,0,0,1,8-8h90.67a8,8,0,0,1,7.38,4.92L160,144" fill="none" stroke="currentColor" stroke-linecap="round" stroke-linejoin="round" stroke-width="16"/></svg>