<svg xmlns="http://www.w3.org/2000/svg" viewBox="0 0 256 256"><rect width="256" height="256" fill="none"/><path d="M45.15,230.11A8,8,0,0,1,32,224V64a8,8,0,0,1,8-8H216a8,8,0,0,1,8,8V192a8,8,0,0,1-8,8H80Z" opacity="0.2"/><line x1="48" y1="40" x2="208" y2="216" fill="none" stroke="currentColor" stroke-linecap="round" stroke-linejoin="round" stroke-width="16"/><path d="M193.45,200H80L45.15,230.11A8,8,0,0,1,32,224V64a8,8,0,0,1,8-8H62.55" fill="none" stroke="currentColor" stroke-linecap="round" stroke-linejoin="round" stroke-width="16"/><path d="M105.79,56H216a8,8,0,0,1,8,8V186" fill="none" stroke="currentColor" stroke-linecap="round" stroke-linejoin="round" stroke-width="16"/></svg>