<svg xmlns="http://www.w3.org/2000/svg" viewBox="0 0 256 256"><rect width="256" height="256" fill="none"/><path d="M79.93,211.11a96,96,0,1,0-35-35h0L32.42,213.46a8,8,0,0,0,10.12,10.12l37.39-12.47Z" opacity="0.2"/><line x1="48" y1="40" x2="208" y2="216" fill="none" stroke="currentColor" stroke-linecap="round" stroke-linejoin="round" stroke-width="16"/><path d="M212.57,173.46a96,96,0,0,0-121.79-134" fill="none" stroke="currentColor" stroke-linecap="round" stroke-linejoin="round" stroke-width="16"/><path d="M63.42,57a96,96,0,0,0-18.53,119.1h0L32.42,213.46a8,8,0,0,0,10.12,10.12l37.39-12.47h0A96,96,0,0,0,192.58,199" fill="none" stroke="currentColor" stroke-linecap="round" stroke-linejoin="round" stroke-width="16"/></svg>