<svg xmlns="http://www.w3.org/2000/svg" viewBox="0 0 256 256"><rect width="256" height="256" fill="none"/><path d="M105.07,192l16,28a8,8,0,0,0,13.9,0l16-28H216a8,8,0,0,0,8-8V56a8,8,0,0,0-8-8H40a8,8,0,0,0-8,8V184a8,8,0,0,0,8,8Z" opacity="0.2"/><line x1="48" y1="40" x2="208" y2="216" fill="none" stroke="currentColor" stroke-linecap="round" stroke-linejoin="round" stroke-width="16"/><path d="M55.27,48H40a8,8,0,0,0-8,8V184a8,8,0,0,0,8,8h65.07l16,28a8,8,0,0,0,13.9,0l16-28h35.25" fill="none" stroke="currentColor" stroke-linecap="round" stroke-linejoin="round" stroke-width="16"/><path d="M224,186V56a8,8,0,0,0-8-8H98.52" fill="none" stroke="currentColor" stroke-linecap="round" stroke-linejoin="round" stroke-width="16"/></svg>