<svg xmlns="http://www.w3.org/2000/svg" viewBox="0 0 256 256"><rect width="256" height="256" fill="none"/><path d="M223.5,186A72,72,0,0,0,163.94,80.11h0A72,72,0,0,1,96,176c-1.32,0-2.63,0-3.94-.11h0A72.05,72.05,0,0,0,194,215.5l27.76,8.16a8,8,0,0,0,9.93-9.93Z" opacity="0.2"/><path d="M32.5,138A72,72,0,1,1,62,167.5l-27.76,8.16a8,8,0,0,1-9.93-9.93Z" fill="none" stroke="currentColor" stroke-linecap="round" stroke-linejoin="round" stroke-width="16"/><path d="M163.94,80.11A72,72,0,0,1,223.5,186l8.16,27.76a8,8,0,0,1-9.93,9.93L194,215.5A72.05,72.05,0,0,1,92.06,175.89" fill="none" stroke="currentColor" stroke-linecap="round" stroke-linejoin="round" stroke-width="16"/></svg>