<svg xmlns="http://www.w3.org/2000/svg" viewBox="0 0 256 256"><rect width="256" height="256" fill="none"/><path d="M40,128h88a0,0,0,0,1,0,0v88a0,0,0,0,1,0,0H48a8,8,0,0,1-8-8V128A0,0,0,0,1,40,128Z" opacity="0.2"/><path d="M128,40h80a8,8,0,0,1,8,8v80a0,0,0,0,1,0,0H128a0,0,0,0,1,0,0V40A0,0,0,0,1,128,40Z" opacity="0.2"/><rect x="40" y="40" width="176" height="176" rx="8" fill="none" stroke="currentColor" stroke-linecap="round" stroke-linejoin="round" stroke-width="16"/><line x1="128" y1="40" x2="128" y2="216" fill="none" stroke="currentColor" stroke-linecap="round" stroke-linejoin="round" stroke-width="16"/><line x1="216" y1="128" x2="40" y2="128" fill="none" stroke="currentColor" stroke-linecap="round" stroke-linejoin="round" stroke-width="16"/></svg>