<svg xmlns="http://www.w3.org/2000/svg" viewBox="0 0 256 256"><rect width="256" height="256" fill="none"/><path d="M184,64a48.34,48.34,0,0,0-10.35,1.12h0a48,48,0,0,0-91.28,0h0A48,48,0,1,0,72,160H184a48,48,0,0,0,0-96Z" opacity="0.2"/><line x1="96" y1="160" x2="88" y2="128" fill="none" stroke="currentColor" stroke-linecap="round" stroke-linejoin="round" stroke-width="16"/><line x1="160" y1="160" x2="168" y2="128" fill="none" stroke="currentColor" stroke-linecap="round" stroke-linejoin="round" stroke-width="16"/><line x1="128" y1="160" x2="128" y2="128" fill="none" stroke="currentColor" stroke-linecap="round" stroke-linejoin="round" stroke-width="16"/><path d="M173.65,65.12A48,48,0,1,1,184,160H72A48,48,0,1,1,82.35,65.12" fill="none" stroke="currentColor" stroke-linecap="round" stroke-linejoin="round" stroke-width="16"/><path d="M80,80a48,48,0,0,1,96,0" fill="none" stroke="currentColor" stroke-linecap="round" stroke-linejoin="round" stroke-width="16"/><path d="M200,157.27V208a8,8,0,0,1-8,8H64a8,8,0,0,1-8-8V157.27" fill="none" stroke="currentColor" stroke-linecap="round" stroke-linejoin="round" stroke-width="16"/></svg>