<svg xmlns="http://www.w3.org/2000/svg" viewBox="0 0 256 256"><rect width="256" height="256" fill="none"/><path d="M88,184V136H32a8,8,0,0,0-8,8v32a8,8,0,0,0,8,8Z" opacity="0.2"/><line x1="88" y1="184" x2="88" y2="136" fill="none" stroke="currentColor" stroke-linecap="round" stroke-linejoin="round" stroke-width="16"/><path d="M208,104s-18-8,0-40,0-40,0-40" fill="none" stroke="currentColor" stroke-linecap="round" stroke-linejoin="round" stroke-width="16"/><path d="M168,104s-18-8,0-40,0-40,0-40" fill="none" stroke="currentColor" stroke-linecap="round" stroke-linejoin="round" stroke-width="16"/><line x1="48" y1="40" x2="208" y2="216" fill="none" stroke="currentColor" stroke-linecap="round" stroke-linejoin="round" stroke-width="16"/><path d="M178.52,136H224a8,8,0,0,1,8,8v32a8,8,0,0,1-8,8h-1.84" fill="none" stroke="currentColor" stroke-linecap="round" stroke-linejoin="round" stroke-width="16"/><path d="M178.91,184H32a8,8,0,0,1-8-8V144a8,8,0,0,1,8-8H135.27" fill="none" stroke="currentColor" stroke-linecap="round" stroke-linejoin="round" stroke-width="16"/></svg>