<svg xmlns="http://www.w3.org/2000/svg" viewBox="0 0 256 256"><rect width="256" height="256" fill="none"/><path d="M207.41,95.53h0L168,144,136,70.35h0a20,20,0,0,1-15.92,0h0L88,144,48.61,95.52h0a19.82,19.82,0,0,1-9.22,4.16l-.08,0,15.6,93.59A8,8,0,0,0,62.78,200H193.22a8,8,0,0,0,7.89-6.68l15.6-93.59-.08,0A19.82,19.82,0,0,1,207.41,95.53Z" opacity="0.2"/><circle cx="128" cy="52" r="20" fill="none" stroke="currentColor" stroke-linecap="round" stroke-linejoin="round" stroke-width="16"/><circle cx="220" cy="80" r="20" fill="none" stroke="currentColor" stroke-linecap="round" stroke-linejoin="round" stroke-width="16"/><circle cx="36" cy="80" r="20" fill="none" stroke="currentColor" stroke-linecap="round" stroke-linejoin="round" stroke-width="16"/><polyline points="120.02 70.35 88 144 48.61 95.52" fill="none" stroke="currentColor" stroke-linecap="round" stroke-linejoin="round" stroke-width="16"/><polyline points="207.39 95.52 168 144 135.98 70.35" fill="none" stroke="currentColor" stroke-linecap="round" stroke-linejoin="round" stroke-width="16"/><path d="M39.29,99.73l15.6,93.59A8,8,0,0,0,62.78,200H193.22a8,8,0,0,0,7.89-6.68l15.6-93.59" fill="none" stroke="currentColor" stroke-linecap="round" stroke-linejoin="round" stroke-width="16"/></svg>