<svg xmlns="http://www.w3.org/2000/svg" viewBox="0 0 256 256"><rect width="256" height="256" fill="none"/><path d="M213.66,77.66,178.34,42.34A8,8,0,0,0,172.69,40H48a8,8,0,0,0-8,8V208a8,8,0,0,0,8,8H80V152a8,8,0,0,1,8-8h80a8,8,0,0,1,8,8v64h32a8,8,0,0,0,8-8V83.31A8,8,0,0,0,213.66,77.66Z" opacity="0.2"/><path d="M216,83.31V208a8,8,0,0,1-8,8H48a8,8,0,0,1-8-8V48a8,8,0,0,1,8-8H172.69a8,8,0,0,1,5.65,2.34l35.32,35.32A8,8,0,0,1,216,83.31Z" fill="none" stroke="currentColor" stroke-linecap="round" stroke-linejoin="round" stroke-width="16"/><path d="M80,216V152a8,8,0,0,1,8-8h80a8,8,0,0,1,8,8v64" fill="none" stroke="currentColor" stroke-linecap="round" stroke-linejoin="round" stroke-width="16"/><line x1="152" y1="72" x2="96" y2="72" fill="none" stroke="currentColor" stroke-linecap="round" stroke-linejoin="round" stroke-width="16"/></svg>