<svg xmlns="http://www.w3.org/2000/svg" viewBox="0 0 256 256"><rect width="256" height="256" fill="none"/><path d="M168,32,30.68,54.89A8,8,0,0,0,24,62.78v50.44a8,8,0,0,0,6.68,7.89L168,144a56,56,0,0,0,0-112Zm0,80a24,24,0,1,1,24-24A24,24,0,0,1,168,112Z" opacity="0.2"/><circle cx="168" cy="88" r="24" fill="none" stroke="currentColor" stroke-linecap="round" stroke-linejoin="round" stroke-width="16"/><path d="M24,113.22V62.78a8,8,0,0,1,6.68-7.89L168,32a56,56,0,0,1,0,112L30.68,121.11A8,8,0,0,1,24,113.22Z" fill="none" stroke="currentColor" stroke-linecap="round" stroke-linejoin="round" stroke-width="16"/><path d="M152,208v8a32,32,0,0,0,32,32h16" fill="none" stroke="currentColor" stroke-linecap="round" stroke-linejoin="round" stroke-width="16"/><path d="M202.49,132.12l-32.36,71.19a8,8,0,0,1-7.28,4.69H144a8,8,0,0,1-8-8V138.67" fill="none" stroke="currentColor" stroke-linecap="round" stroke-linejoin="round" stroke-width="16"/></svg>