<svg xmlns="http://www.w3.org/2000/svg" viewBox="0 0 256 256"><rect width="256" height="256" fill="none"/><path d="M207.31,49.18a20,20,0,0,0-38.63-10.35l-18.14,67.68h0l-5.37-1.07h0L127.32,38.83A20,20,0,1,0,88.69,49.18l12.68,47.35v0l-.57-.14L80,92.41a20,20,0,0,0-8,39.19l7.87,1.51a20,20,0,0,0-23.46,15.62,19.52,19.52,0,0,0-.41,4h0V160a72,72,0,0,0,72.55,72c39.7-.3,71.45-33.2,71.45-72.9v-3.34a47.9,47.9,0,0,0-12.59-32.39h0Z" opacity="0.2"/><path d="M72,131.6a20,20,0,0,1,8-39.19l20.81,4a20,20,0,1,1-8,39.19Z" fill="none" stroke="currentColor" stroke-linecap="round" stroke-linejoin="round" stroke-width="16"/><path d="M56,152.72V160a72,72,0,0,0,72.55,72c39.7-.3,71.45-33.2,71.45-72.9v-3.34a48,48,0,0,0-38.59-47.07L140,104.41a20,20,0,0,0-8,39.19l15.37,3.07A28,28,0,0,0,152,179.6" fill="none" stroke="currentColor" stroke-linecap="round" stroke-linejoin="round" stroke-width="16"/><path d="M72,172.32a20,20,0,0,1,8-39.19l10,2a20,20,0,0,1-8,39.2Z" fill="none" stroke="currentColor" stroke-linecap="round" stroke-linejoin="round" stroke-width="16"/><path d="M101.37,96.53,88.69,49.18a20,20,0,1,1,38.63-10.35l17.85,66.61" fill="none" stroke="currentColor" stroke-linecap="round" stroke-linejoin="round" stroke-width="16"/><path d="M150.54,106.51l18.14-67.68a20,20,0,0,1,38.63,10.35l-19.88,74.19" fill="none" stroke="currentColor" stroke-linecap="round" stroke-linejoin="round" stroke-width="16"/></svg>