<svg xmlns="http://www.w3.org/2000/svg" viewBox="0 0 256 256"><rect width="256" height="256" fill="none"/><path d="M128,224S24,168,24,102A54,54,0,0,1,78,48c22.59,0,41.94,12.31,50,32,8.06-19.69,27.41-32,50-32a54,54,0,0,1,54,54C232,168,128,224,128,224Z" opacity="0.2"/><polyline points="32 136 72 136 88 112 120 160 136 136 160 136" fill="none" stroke="currentColor" stroke-linecap="round" stroke-linejoin="round" stroke-width="16"/><path d="M24,104c0-.67,0-1.33,0-2A54,54,0,0,1,78,48c22.59,0,41.94,12.31,50,32,8.06-19.69,27.41-32,50-32a54,54,0,0,1,54,54c0,66-104,122-104,122s-42-22.6-72.58-56" fill="none" stroke="currentColor" stroke-linecap="round" stroke-linejoin="round" stroke-width="16"/></svg>