<svg xmlns="http://www.w3.org/2000/svg" viewBox="0 0 256 256"><rect width="256" height="256" fill="none"/><path d="M152,40H56a8,8,0,0,0-8,8V216H80V160h48v56h32V48A8,8,0,0,0,152,40Z" opacity="0.2"/><line x1="32" y1="216" x2="248" y2="216" fill="none" stroke="currentColor" stroke-linecap="round" stroke-linejoin="round" stroke-width="16"/><path d="M48,216V48a8,8,0,0,1,8-8h96a8,8,0,0,1,8,8V216" fill="none" stroke="currentColor" stroke-linecap="round" stroke-linejoin="round" stroke-width="16"/><path d="M160,120h64a8,8,0,0,1,8,8v88" fill="none" stroke="currentColor" stroke-linecap="round" stroke-linejoin="round" stroke-width="16"/><line x1="104" y1="72" x2="104" y2="120" fill="none" stroke="currentColor" stroke-linecap="round" stroke-linejoin="round" stroke-width="16"/><line x1="80" y1="96" x2="128" y2="96" fill="none" stroke="currentColor" stroke-linecap="round" stroke-linejoin="round" stroke-width="16"/><polyline points="128 216 128 160 80 160 80 216" fill="none" stroke="currentColor" stroke-linecap="round" stroke-linejoin="round" stroke-width="16"/></svg>