<svg xmlns="http://www.w3.org/2000/svg" viewBox="0 0 256 256"><rect width="256" height="256" fill="none"/><path d="M136.65,153.34l-39-39a8,8,0,0,0-11.32,0L32,168.69V56a8,8,0,0,1,8-8H216a8,8,0,0,1,8,8V88l-48,16-16,40Z" opacity="0.2"/><path d="M104,208H40a8,8,0,0,1-8-8V56a8,8,0,0,1,8-8H216a8,8,0,0,1,8,8V88l-48,16-16,40-40,16Z" fill="none" stroke="currentColor" stroke-linecap="round" stroke-linejoin="round" stroke-width="16"/><path d="M137.73,208l7.94-23.8,39-15.58,15.58-39,23.8-7.94V200a8,8,0,0,1-8,8Z" fill="none" stroke="currentColor" stroke-linecap="round" stroke-linejoin="round" stroke-width="16"/><path d="M32,168.69l54.34-54.35a8,8,0,0,1,11.32,0l39,39" fill="none" stroke="currentColor" stroke-linecap="round" stroke-linejoin="round" stroke-width="16"/></svg>