<svg xmlns="http://www.w3.org/2000/svg" viewBox="0 0 256 256"><rect width="256" height="256" fill="none"/><path d="M32,96,42.64,46.32A8,8,0,0,1,50.47,40H205.53a8,8,0,0,1,7.83,6.32L224,96Z" opacity="0.2"/><path d="M224,168v32a8,8,0,0,1-8,8H192a8,8,0,0,1-8-8V168" fill="none" stroke="currentColor" stroke-linecap="round" stroke-linejoin="round" stroke-width="16"/><path d="M72,168v32a8,8,0,0,1-8,8H40a8,8,0,0,1-8-8V168" fill="none" stroke="currentColor" stroke-linecap="round" stroke-linejoin="round" stroke-width="16"/><line x1="16" y1="96" x2="240" y2="96" fill="none" stroke="currentColor" stroke-linecap="round" stroke-linejoin="round" stroke-width="16"/><line x1="144" y1="128" x2="144" y2="168" fill="none" stroke="currentColor" stroke-linecap="round" stroke-linejoin="round" stroke-width="16"/><line x1="112" y1="128" x2="112" y2="168" fill="none" stroke="currentColor" stroke-linecap="round" stroke-linejoin="round" stroke-width="16"/><path d="M224,168H32V96L42.64,46.32A8,8,0,0,1,50.47,40H205.53a8,8,0,0,1,7.83,6.32L224,96Z" fill="none" stroke="currentColor" stroke-linecap="round" stroke-linejoin="round" stroke-width="16"/><circle cx="68" cy="132" r="12"/><circle cx="188" cy="132" r="12"/></svg>