<svg xmlns="http://www.w3.org/2000/svg" viewBox="0 0 256 256"><rect width="256" height="256" fill="none"/><path d="M88,208c8-14.35,22.91-24,40-24s32,9.65,40,24h56s-32-40-32-120A64,64,0,0,0,64,88c0,80-32,120-32,120Z" opacity="0.2"/><path d="M32,208S64,168,64,88a64,64,0,0,1,128,0c0,80,32,120,32,120" fill="none" stroke="currentColor" stroke-linecap="round" stroke-linejoin="round" stroke-width="16"/><circle cx="100" cy="100" r="12"/><circle cx="156" cy="100" r="12"/><polyline points="160 136 128 152 96 136" fill="none" stroke="currentColor" stroke-linecap="round" stroke-linejoin="round" stroke-width="16"/><path d="M88,208c8-14.35,22.91-24,40-24s32,9.65,40,24" fill="none" stroke="currentColor" stroke-linecap="round" stroke-linejoin="round" stroke-width="16"/></svg>