<svg xmlns="http://www.w3.org/2000/svg" viewBox="0 0 256 256"><rect width="256" height="256" fill="none"/><path d="M32,80H224a0,0,0,0,1,0,0V192a0,0,0,0,1,0,0H48a16,16,0,0,1-16-16V80A0,0,0,0,1,32,80Z" opacity="0.2"/><path d="M32,80H95.06a8,8,0,0,1,7.15,4.42l51.58,103.16a8,8,0,0,0,7.15,4.42H224" fill="none" stroke="currentColor" stroke-linecap="round" stroke-linejoin="round" stroke-width="16"/><line x1="152" y1="80" x2="224" y2="80" fill="none" stroke="currentColor" stroke-linecap="round" stroke-linejoin="round" stroke-width="16"/></svg>