<svg xmlns="http://www.w3.org/2000/svg" viewBox="0 0 256 256"><rect width="256" height="256" fill="none"/><path d="M48.49,221.28A8,8,0,0,0,59.93,231l168-96.09a8,8,0,0,0,0-14l-168-95.85a8,8,0,0,0-11.44,9.67L80,128Z" opacity="0.2"/><line x1="144" y1="128" x2="80" y2="128" fill="none" stroke="currentColor" stroke-linecap="round" stroke-linejoin="round" stroke-width="16"/><path d="M48.49,221.28A8,8,0,0,0,59.93,231l168-96.09a8,8,0,0,0,0-14l-168-95.85a8,8,0,0,0-11.44,9.67L80,128Z" fill="none" stroke="currentColor" stroke-linecap="round" stroke-linejoin="round" stroke-width="16"/></svg>