<svg xmlns="http://www.w3.org/2000/svg" viewBox="0 0 256 256"><rect width="256" height="256" fill="none"/><g opacity="0.2"><path d="M64,168v48a8,8,0,0,0,8,8h64a8,8,0,0,0,8-8V160H72A8,8,0,0,0,64,168Z"/><path d="M216,96H144v64h72a8,8,0,0,0,8-8V104A8,8,0,0,0,216,96Z"/><path d="M136,32H72a8,8,0,0,0-8,8V88a8,8,0,0,0,8,8h72V40A8,8,0,0,0,136,32Z"/></g><path d="M144,40V216a8,8,0,0,1-8,8H72a8,8,0,0,1-8-8V168a8,8,0,0,1,8-8H216a8,8,0,0,0,8-8V104a8,8,0,0,0-8-8H72a8,8,0,0,1-8-8V40a8,8,0,0,1,8-8h64A8,8,0,0,1,144,40Z" fill="none" stroke="currentColor" stroke-linecap="round" stroke-linejoin="round" stroke-width="16"/></svg>