<svg xmlns="http://www.w3.org/2000/svg" viewBox="0 0 256 256"><rect width="256" height="256" fill="none"/><path d="M200.44,152H40a8,8,0,0,1-8-8V80a8,8,0,0,1,8-8H200.44a8,8,0,0,1,5.94,2.65L240,112l-33.62,37.35A8,8,0,0,1,200.44,152Z" opacity="0.2"/><path d="M200.44,152H40a8,8,0,0,1-8-8V80a8,8,0,0,1,8-8H200.44a8,8,0,0,1,5.94,2.65L240,112l-33.62,37.35A8,8,0,0,1,200.44,152Z" fill="none" stroke="currentColor" stroke-linecap="round" stroke-linejoin="round" stroke-width="16"/><line x1="128" y1="32" x2="128" y2="72" fill="none" stroke="currentColor" stroke-linecap="round" stroke-linejoin="round" stroke-width="16"/><line x1="128" y1="152" x2="128" y2="224" fill="none" stroke="currentColor" stroke-linecap="round" stroke-linejoin="round" stroke-width="16"/></svg>