<svg xmlns="http://www.w3.org/2000/svg" viewBox="0 0 256 256"><rect width="256" height="256" fill="none"/><path d="M200,145.37V112a48,48,0,0,0-37.71,77.71l33-33A16,16,0,0,0,200,145.37Z" opacity="0.2"/><path d="M96,32a8,8,0,0,1,8-8h88a8,8,0,0,1,8,8V56H96Z" opacity="0.2"/><path d="M200,32V145.37a16,16,0,0,1-4.69,11.32l-68.4,68.4a50.92,50.92,0,0,1-72,0h0a50.92,50.92,0,0,1,0-72L96,112V32a8,8,0,0,1,8-8h88A8,8,0,0,1,200,32Z" fill="none" stroke="currentColor" stroke-linecap="round" stroke-linejoin="round" stroke-width="16"/><line x1="200" y1="56" x2="96" y2="56" fill="none" stroke="currentColor" stroke-linecap="round" stroke-linejoin="round" stroke-width="16"/><path d="M200,112a48,48,0,0,0-37.71,77.71" fill="none" stroke="currentColor" stroke-linecap="round" stroke-linejoin="round" stroke-width="16"/></svg>