<svg xmlns="http://www.w3.org/2000/svg" viewBox="0 0 256 256"><rect width="256" height="256" fill="none"/><path d="M88,168H40a8,8,0,0,1-8-8V96a8,8,0,0,1,8-8H88l72-56V224Z" opacity="0.2"/><line x1="200" y1="104" x2="200" y2="152" fill="none" stroke="currentColor" stroke-linecap="round" stroke-linejoin="round" stroke-width="16"/><line x1="232" y1="88" x2="232" y2="168" fill="none" stroke="currentColor" stroke-linecap="round" stroke-linejoin="round" stroke-width="16"/><line x1="56" y1="40" x2="216" y2="216" fill="none" stroke="currentColor" stroke-linecap="round" stroke-linejoin="round" stroke-width="16"/><polyline points="120.15 62.99 160 32 160 106.83" fill="none" stroke="currentColor" stroke-linecap="round" stroke-linejoin="round" stroke-width="16"/><path d="M160,154.4V224L88,168H40a8,8,0,0,1-8-8V96a8,8,0,0,1,8-8H99.64" fill="none" stroke="currentColor" stroke-linecap="round" stroke-linejoin="round" stroke-width="16"/></svg>