<svg xmlns="http://www.w3.org/2000/svg" viewBox="0 0 256 256"><rect width="256" height="256" fill="none"/><g opacity="0.2"><path d="M159.82,159.82l-24.34,66.94a8,8,0,0,1-15,0L96.18,159.82,29.24,135.48a8,8,0,0,1,0-15L96.18,96.18l24.34-66.94a8,8,0,0,1,15,0l24.34,66.94,66.94,24.34a8,8,0,0,1,0,15Z"/></g><path d="M159.82,159.82l-24.34,66.94a8,8,0,0,1-15,0L96.18,159.82,29.24,135.48a8,8,0,0,1,0-15L96.18,96.18l24.34-66.94a8,8,0,0,1,15,0l24.34,66.94,66.94,24.34a8,8,0,0,1,0,15Z" fill="none" stroke="currentColor" stroke-linecap="round" stroke-linejoin="round" stroke-width="16"/></svg>