<svg xmlns="http://www.w3.org/2000/svg" viewBox="0 0 256 256"><rect width="256" height="256" fill="none"/><path d="M152,32H104A64,64,0,0,0,40,96V208H216V96A64,64,0,0,0,152,32Zm24,136a16,16,0,0,1-16,16H96a16,16,0,0,1-16-16V96A16,16,0,0,1,96,80h64a16,16,0,0,1,16,16Z" opacity="0.2"/><path d="M40,208V96a64,64,0,0,1,64-64h48a64,64,0,0,1,64,64V208" fill="none" stroke="currentColor" stroke-linecap="round" stroke-linejoin="round" stroke-width="16"/><rect x="80" y="80" width="96" height="104" rx="16" fill="none" stroke="currentColor" stroke-linecap="round" stroke-linejoin="round" stroke-width="16"/><line x1="80" y1="152" x2="176" y2="152" fill="none" stroke="currentColor" stroke-linecap="round" stroke-linejoin="round" stroke-width="16"/><line x1="96" y1="200" x2="104" y2="184" fill="none" stroke="currentColor" stroke-linecap="round" stroke-linejoin="round" stroke-width="16"/><line x1="152" y1="184" x2="160" y2="200" fill="none" stroke="currentColor" stroke-linecap="round" stroke-linejoin="round" stroke-width="16"/><line x1="144" y1="152" x2="144" y2="184" fill="none" stroke="currentColor" stroke-linecap="round" stroke-linejoin="round" stroke-width="16"/><line x1="112" y1="152" x2="112" y2="184" fill="none" stroke="currentColor" stroke-linecap="round" stroke-linejoin="round" stroke-width="16"/></svg>