<svg xmlns="http://www.w3.org/2000/svg" viewBox="0 0 256 256"><rect width="256" height="256" fill="none"/><path d="M40,56H224a16,16,0,0,1,16,16V192a16,16,0,0,1-16,16H56a16,16,0,0,1-16-16V56A0,0,0,0,1,40,56Z" opacity="0.2"/><line x1="40" y1="56" x2="40" y2="176" fill="none" stroke="currentColor" stroke-linecap="round" stroke-linejoin="round" stroke-width="16"/><line x1="144" y1="116" x2="40" y2="116" fill="none" stroke="currentColor" stroke-linecap="round" stroke-linejoin="round" stroke-width="16"/><line x1="144" y1="56" x2="144" y2="176" fill="none" stroke="currentColor" stroke-linecap="round" stroke-linejoin="round" stroke-width="16"/><path d="M192,112h48l-28,40a28,28,0,1,1-20,47.6" fill="none" stroke="currentColor" stroke-linecap="round" stroke-linejoin="round" stroke-width="16"/></svg>