<svg xmlns="http://www.w3.org/2000/svg" viewBox="0 0 256 256"><rect width="256" height="256" fill="none"/><path d="M144,144H112V112H24v80a8,8,0,0,0,8,8H224a8,8,0,0,0,8-8V112H144Z" opacity="0.2"/><path d="M72,48H184a48,48,0,0,1,48,48v96a8,8,0,0,1-8,8H32a8,8,0,0,1-8-8V96A48,48,0,0,1,72,48Z" fill="none" stroke="currentColor" stroke-linecap="round" stroke-linejoin="round" stroke-width="16"/><line x1="24" y1="112" x2="112" y2="112" fill="none" stroke="currentColor" stroke-linecap="round" stroke-linejoin="round" stroke-width="16"/><line x1="144" y1="112" x2="232" y2="112" fill="none" stroke="currentColor" stroke-linecap="round" stroke-linejoin="round" stroke-width="16"/><rect x="112" y="96" width="32" height="48" fill="none" stroke="currentColor" stroke-linecap="round" stroke-linejoin="round" stroke-width="16"/><line x1="72" y1="48" x2="72" y2="200" fill="none" stroke="currentColor" stroke-linecap="round" stroke-linejoin="round" stroke-width="16"/><line x1="184" y1="48" x2="184" y2="200" fill="none" stroke="currentColor" stroke-linecap="round" stroke-linejoin="round" stroke-width="16"/></svg>