<svg xmlns="http://www.w3.org/2000/svg" viewBox="0 0 256 256"><rect width="256" height="256" fill="none"/><path d="M142.41,40.22l87.46,151.87C236,202.79,228.08,216,215.46,216H40.54C27.92,216,20,202.79,26.13,192.09L113.59,40.22C119.89,29.26,136.11,29.26,142.41,40.22Z" opacity="0.2"/><line x1="152" y1="216" x2="104" y2="216" fill="none" stroke="currentColor" stroke-linecap="round" stroke-linejoin="round" stroke-width="16"/><path d="M225.21,184l4.66,8.09C236,202.79,228.08,216,215.46,216H192" fill="none" stroke="currentColor" stroke-linecap="round" stroke-linejoin="round" stroke-width="16"/><path d="M64,216H40.54C27.92,216,20,202.79,26.13,192.09L30.79,184" fill="none" stroke="currentColor" stroke-linecap="round" stroke-linejoin="round" stroke-width="16"/><line x1="179.14" y1="104" x2="202.18" y2="144" fill="none" stroke="currentColor" stroke-linecap="round" stroke-linejoin="round" stroke-width="16"/><path d="M99.89,64l13.7-23.78c6.3-11,22.52-11,28.82,0L156.11,64" fill="none" stroke="currentColor" stroke-linecap="round" stroke-linejoin="round" stroke-width="16"/><line x1="53.82" y1="144" x2="76.86" y2="104" fill="none" stroke="currentColor" stroke-linecap="round" stroke-linejoin="round" stroke-width="16"/></svg>