<svg xmlns="http://www.w3.org/2000/svg" viewBox="0 0 256 256"><rect width="256" height="256" fill="none"/><path d="M112.8,173.45c-11.81,9.79-27.19,19.26-43.89,18.48A64,64,0,0,1,72,64H183.05c35.17,0,64.49,28,64.94,63.15A64,64,0,0,1,184,192c-15.48,0-29.68-9.35-40.75-18.5A23.91,23.91,0,0,0,112.8,173.45Z" opacity="0.2"/><path d="M112.8,173.45c-11.81,9.79-27.19,19.26-43.89,18.48A64,64,0,0,1,72,64H183.05c35.17,0,64.49,28,64.94,63.15A64,64,0,0,1,184,192c-15.48,0-29.68-9.35-40.75-18.5A23.91,23.91,0,0,0,112.8,173.45Z" fill="none" stroke="currentColor" stroke-linecap="round" stroke-linejoin="round" stroke-width="16"/><line x1="80" y1="96" x2="176" y2="96" fill="none" stroke="currentColor" stroke-linecap="round" stroke-linejoin="round" stroke-width="16"/></svg>