<svg xmlns="http://www.w3.org/2000/svg" viewBox="0 0 256 256" fill="currentColor"><path d="M172,156a8,8,0,1,1-8-8A8,8,0,0,1,172,156Zm-80-8a8,8,0,1,0,8,8A8,8,0,0,0,92,148Zm144,20v24a12,12,0,0,1-12,12H32a12,12,0,0,1-12-12V169.13A109.43,109.43,0,0,1,57.18,86.84l-28-28a4,4,0,0,1,5.66-5.66L63.41,81.75A106.63,106.63,0,0,1,127.62,60H128a107.16,107.16,0,0,1,64.78,21.57l28.39-28.4a4,4,0,1,1,5.66,5.66L199,86.64c1.78,1.56,3.52,3.17,5.21,4.86A107.25,107.25,0,0,1,236,168Zm-8,0A100,100,0,0,0,128,68h-.35C72.7,68.19,28,113.56,28,169.13V192a4,4,0,0,0,4,4H224a4,4,0,0,0,4-4Z"/></svg>