<svg xmlns="http://www.w3.org/2000/svg" viewBox="0 0 256 256" fill="currentColor"><path d="M194.83,189.18a4,4,0,0,1,0,5.65c-1,1-25.65,25.17-66.83,25.17-23.93,0-47.35-10.05-67.73-29.08a146.39,146.39,0,0,1-16.27-18V208a4,4,0,0,1-8,0V160a4,4,0,0,1,4-4H88a4,4,0,0,1,0,8H47.41c10,14.06,38.39,48,80.59,48,37.75,0,60.95-22.6,61.18-22.83A4,4,0,0,1,194.83,189.18ZM216,44a4,4,0,0,0-4,4V83.07a146.39,146.39,0,0,0-16.27-18C175.35,46.05,151.93,36,128,36,86.82,36,62.2,60.14,61.17,61.17a4,4,0,0,0,5.65,5.66C67.05,66.6,90.25,44,128,44c42.2,0,70.63,33.94,80.59,48H168a4,4,0,0,0,0,8h48a4,4,0,0,0,4-4V48A4,4,0,0,0,216,44Z"/></svg>