<svg xmlns="http://www.w3.org/2000/svg" viewBox="0 0 256 256" fill="currentColor"><path d="M88,100H40a4,4,0,0,1-4-4V48a4,4,0,0,1,8,0V83.07a146.39,146.39,0,0,1,16.27-18C80.65,46.05,104.07,36,128,36c41.18,0,65.8,24.14,66.83,25.17a4,4,0,1,1-5.66,5.66C188.75,66.41,165.58,44,128,44,85.8,44,57.38,77.94,47.41,92H88a4,4,0,0,1,0,8Zm128,56H168a4,4,0,0,0,0,8h40.59c-10,14.06-38.39,48-80.59,48-37.58,0-60.75-22.41-61.17-22.83a4,4,0,0,0-5.66,5.66c1,1,25.65,25.17,66.83,25.17,23.93,0,47.35-10.05,67.73-29.08a146.39,146.39,0,0,0,16.27-18V208a4,4,0,0,0,8,0V160A4,4,0,0,0,216,156Z"/></svg>