<svg xmlns="http://www.w3.org/2000/svg" viewBox="0 0 256 256" fill="currentColor"><path d="M156,104a4,4,0,0,1,4-4h80a4,4,0,0,1,0,8H160A4,4,0,0,1,156,104Zm84,28H160a4,4,0,0,0,0,8h80a4,4,0,0,0,0-8Zm0,32H160a4,4,0,0,0,0,8h80a4,4,0,0,0,0-8Zm0,32H72a4,4,0,0,0,0,8H240a4,4,0,0,0,0-8ZM80,172A51.94,51.94,0,0,1,33.2,97.41,24,24,0,0,1,44,52a4,4,0,0,1,1.94.5L117,92a16,16,0,0,0-1-32,4,4,0,0,1,0-8,24,24,0,0,1,0,48,4,4,0,0,1-1.94-.5L72.83,76.59A44,44,0,0,0,76,163.81V120a4,4,0,0,1,8,0v43.81a44.1,44.1,0,0,0,37.5-29.14,4,4,0,0,1,7.54,2.66A52.09,52.09,0,0,1,80,172ZM37.24,90.5A52.1,52.1,0,0,1,62.7,71L43,60A16,16,0,0,0,37.24,90.5Z"/></svg>