<svg xmlns="http://www.w3.org/2000/svg" viewBox="0 0 256 256" fill="currentColor"><path d="M132,120v56a4,4,0,0,1-8,0V120a4,4,0,0,1,8,0ZM235.89,97.59,222,201.59A12,12,0,0,1,210.13,212H45.87A12,12,0,0,1,34,201.59l-13.86-104A12,12,0,0,1,32,84H70.18L125,21.37a4,4,0,0,1,6,0L185.82,84H224a12,12,0,0,1,11.89,13.59ZM80.81,84h94.38L128,30.07ZM227,93.36A3.94,3.94,0,0,0,224,92H32a4,4,0,0,0-4,4.52l13.86,104a4,4,0,0,0,4,3.47H210.13a4,4,0,0,0,4-3.47L228,96.53A3.94,3.94,0,0,0,227,93.36ZM181.2,116a4,4,0,0,0-4.38,3.58l-5.6,56A4,4,0,0,0,174.8,180l.41,0a4,4,0,0,0,4-3.6l5.6-56A4,4,0,0,0,181.2,116ZM74.8,116a4,4,0,0,0-3.58,4.38l5.6,56a4,4,0,0,0,4,3.6l.41,0a4,4,0,0,0,3.58-4.38l-5.6-56A4,4,0,0,0,74.8,116Z"/></svg>