<svg xmlns="http://www.w3.org/2000/svg" viewBox="0 0 256 256" fill="currentColor"><path d="M172,68a8,8,0,1,1-8-8A8,8,0,0,1,172,68Zm-55.07,65.44-40,48a4,4,0,0,0,.51,5.63A3.94,3.94,0,0,0,80,188a4,4,0,0,0,3.07-1.44l40-48a4,4,0,0,0-6.14-5.12ZM236,80a4,4,0,0,1-1.78,3.33L212,98.14V120A100.11,100.11,0,0,1,112,220H8a4,4,0,0,1-3.12-6.5L100,94.6V76A56,56,0,0,1,209.79,60.39l24.43,16.28A4,4,0,0,1,236,80Zm-11.21,0L204.11,66.22a4.08,4.08,0,0,1-1.65-2.33A48,48,0,0,0,108,76V96a4,4,0,0,1-.88,2.5L16.32,212H112a92.1,92.1,0,0,0,92-92V96a4,4,0,0,1,1.78-3.33Z"/></svg>