<svg xmlns="http://www.w3.org/2000/svg" viewBox="0 0 256 256" fill="currentColor"><path d="M211,213.31,51,37.31A4,4,0,0,0,45,42.69l74,81.42-.14,0a5.17,5.17,0,0,0-.51.18l-.15.06-.05,0a4,4,0,0,0-.56.35l-.05,0-64,48a4,4,0,0,0,4.8,6.4L116,136v88a4,4,0,0,0,2.21,3.58A4.05,4.05,0,0,0,120,228a4,4,0,0,0,2.4-.8l53.74-40.3L205,218.69a4,4,0,1,0,5.92-5.38ZM124,216V136l18.44,13.83L170.73,181ZM116,71.63V32a4,4,0,0,1,6.4-3.2l64,48a4,4,0,0,1,0,6.4l-33.53,25.15a4,4,0,0,1-2.4.8,4,4,0,0,1-2.4-7.2l29.26-22L124,40V71.63a4,4,0,0,1-8,0Z"/></svg>