<svg xmlns="http://www.w3.org/2000/svg" viewBox="0 0 256 256" fill="currentColor"><path d="M219.8,114.42,204,109.15V56a12,12,0,0,0-12-12H132V24a4,4,0,0,0-8,0V44H64A12,12,0,0,0,52,56v53.15l-15.8,5.27a12,12,0,0,0-8.2,11.4v34.27a4,4,0,0,0,.15,1.1c15.11,52.94,83.57,71.34,97.14,74.5a12,12,0,0,0,5.42,0c13.57-3.16,82-21.56,97.14-74.5a4,4,0,0,0,.15-1.1V125.82A12,12,0,0,0,219.8,114.42ZM60,56a4,4,0,0,1,4-4H192a4,4,0,0,1,4,4v50.48L129.27,84.21a4,4,0,0,0-2.54,0L60,106.48ZM220,159.53c-6,20.26-21.44,37.43-46,51a185.71,185.71,0,0,1-45.09,17.34,3.91,3.91,0,0,1-1.8,0A185.71,185.71,0,0,1,82,210.55C57.44,197,42,179.79,36,159.53V125.82A4,4,0,0,1,38.74,122L124,93.55V168a4,4,0,0,0,8,0V93.55L217.26,122a4,4,0,0,1,2.74,3.81Z"/></svg>