<svg xmlns="http://www.w3.org/2000/svg" viewBox="0 0 256 256" fill="currentColor"><path d="M224,52H160a36,36,0,0,0-32,19.54A36,36,0,0,0,96,52H32A12,12,0,0,0,20,64V192a12,12,0,0,0,12,12H96a28,28,0,0,1,28,28,4,4,0,0,0,8,0,28,28,0,0,1,28-28h64a12,12,0,0,0,12-12V64A12,12,0,0,0,224,52ZM96,196H32a4,4,0,0,1-4-4V64a4,4,0,0,1,4-4H96a28,28,0,0,1,28,28V209.4A35.94,35.94,0,0,0,96,196Zm132-4a4,4,0,0,1-4,4H160a35.94,35.94,0,0,0-28,13.41V88a28,28,0,0,1,28-28h64a4,4,0,0,1,4,4ZM204,96a4,4,0,0,1-4,4H160a4,4,0,0,1,0-8h40A4,4,0,0,1,204,96Zm0,32a4,4,0,0,1-4,4H160a4,4,0,0,1,0-8h40A4,4,0,0,1,204,128Zm0,32a4,4,0,0,1-4,4H160a4,4,0,0,1,0-8h40A4,4,0,0,1,204,160Z"/></svg>