<svg xmlns="http://www.w3.org/2000/svg" viewBox="0 0 256 256" fill="currentColor"><path d="M186.17,43.49l16.66-16.66a4,4,0,1,0-5.66-5.66l-17,17a83.72,83.72,0,0,0-104.26,0l-17-17a4,4,0,0,0-5.66,5.66L69.83,43.49A83.75,83.75,0,0,0,44,104v40a84,84,0,0,0,168,0V104A83.75,83.75,0,0,0,186.17,43.49ZM128,28a76.08,76.08,0,0,1,76,76v12H52V104A76.08,76.08,0,0,1,128,28Zm0,192a76.08,76.08,0,0,1-76-76V124H204v20A76.08,76.08,0,0,1,128,220ZM148,84a8,8,0,1,1,8,8A8,8,0,0,1,148,84ZM92,84a8,8,0,1,1,8,8A8,8,0,0,1,92,84Z"/></svg>