<svg xmlns="http://www.w3.org/2000/svg" viewBox="0 0 256 256" fill="currentColor"><path d="M208,60H178.13L163.32,37.78A4,4,0,0,0,160,36H96a4,4,0,0,0-3.32,1.78L77.85,60H48A20,20,0,0,0,28,80V192a20,20,0,0,0,20,20H208a20,20,0,0,0,20-20V80A20,20,0,0,0,208,60Zm12,132a12,12,0,0,1-12,12H48a12,12,0,0,1-12-12V80A12,12,0,0,1,48,68H80a4,4,0,0,0,3.33-1.78L98.13,44h59.72l14.82,22.22A4,4,0,0,0,176,68h32a12,12,0,0,1,12,12Zm-56-56a4,4,0,0,1-4,4H132v28a4,4,0,0,1-8,0V140H96a4,4,0,0,1,0-8h28V104a4,4,0,0,1,8,0v28h28A4,4,0,0,1,164,136Z"/></svg>