<svg xmlns="http://www.w3.org/2000/svg" viewBox="0 0 256 256" fill="currentColor"><path d="M224,52H32A12,12,0,0,0,20,64V192a12,12,0,0,0,12,12H224a12,12,0,0,0,12-12V64A12,12,0,0,0,224,52ZM72,196l16.8-22.4A4,4,0,0,1,92,172h72a4,4,0,0,1,3.2,1.6L184,196Zm156-4a4,4,0,0,1-4,4H194l-20.4-27.2A12,12,0,0,0,164,164H92a12,12,0,0,0-9.6,4.8L62,196H32a4,4,0,0,1-4-4V64a4,4,0,0,1,4-4H224a4,4,0,0,1,4,4ZM176,84H80a28,28,0,0,0,0,56h96a28,28,0,0,0,0-56ZM60,112a20,20,0,1,1,20,20A20,20,0,0,1,60,112Zm39.57,20a27.94,27.94,0,0,0,0-40h56.86a27.94,27.94,0,0,0,0,40ZM176,132a20,20,0,1,1,20-20A20,20,0,0,1,176,132Z"/></svg>