<svg xmlns="http://www.w3.org/2000/svg" viewBox="0 0 256 256" fill="currentColor"><path d="M200,28H184a12,12,0,0,0-12,12V56a4,4,0,0,1-4,4H152a4,4,0,0,1-4-4V40a12,12,0,0,0-12-12H120a12,12,0,0,0-12,12V56a4,4,0,0,1-4,4H88a4,4,0,0,1-4-4V40A12,12,0,0,0,72,28H56A12,12,0,0,0,44,40V84.69a11.93,11.93,0,0,0,3.51,8.48l11.32,11.32A4,4,0,0,1,60,107.31V216a12,12,0,0,0,12,12H184a12,12,0,0,0,12-12V107.31a4,4,0,0,1,1.17-2.82l11.32-11.32A11.93,11.93,0,0,0,212,84.69V40A12,12,0,0,0,200,28ZM148,220H108V152a20,20,0,0,1,40,0ZM204,84.69a4,4,0,0,1-1.17,2.82L191.51,98.83a11.93,11.93,0,0,0-3.51,8.48V216a4,4,0,0,1-4,4H156V152a28,28,0,0,0-56,0v68H72a4,4,0,0,1-4-4V107.31a11.93,11.93,0,0,0-3.51-8.48L53.17,87.51A4,4,0,0,1,52,84.69V40a4,4,0,0,1,4-4H72a4,4,0,0,1,4,4V56A12,12,0,0,0,88,68h16a12,12,0,0,0,12-12V40a4,4,0,0,1,4-4h16a4,4,0,0,1,4,4V56a12,12,0,0,0,12,12h16a12,12,0,0,0,12-12V40a4,4,0,0,1,4-4h16a4,4,0,0,1,4,4Z"/></svg>