<svg xmlns="http://www.w3.org/2000/svg" viewBox="0 0 256 256" fill="currentColor"><path d="M244,128a52,52,0,1,0-88,37.47V224a4,4,0,0,0,5.79,3.58L192,212.47l30.21,15.11A4.05,4.05,0,0,0,224,228a4,4,0,0,0,4-4V165.47A51.85,51.85,0,0,0,244,128Zm-96,0a44,44,0,1,1,44,44A44.05,44.05,0,0,1,148,128Zm72,89.53-26.21-13.11a4,4,0,0,0-3.58,0L164,217.53V171.78a51.8,51.8,0,0,0,56,0ZM132,192a4,4,0,0,1-4,4H40a12,12,0,0,1-12-12V56A12,12,0,0,1,40,44H216a12,12,0,0,1,12,12,4,4,0,0,1-8,0,4,4,0,0,0-4-4H40a4,4,0,0,0-4,4V184a4,4,0,0,0,4,4h88A4,4,0,0,1,132,192Zm-16-56a4,4,0,0,1-4,4H72a4,4,0,0,1,0-8h40A4,4,0,0,1,116,136Zm0-32a4,4,0,0,1-4,4H72a4,4,0,0,1,0-8h40A4,4,0,0,1,116,104Z"/></svg>