<svg xmlns="http://www.w3.org/2000/svg" viewBox="0 0 256 256" fill="currentColor"><path d="M100,109.5v-72a4,4,0,0,0-5.33-3.77,100,100,0,0,0-65,112.5A4,4,0,0,0,35.6,149L98,113A4,4,0,0,0,100,109.5Zm-8-2.31L36.67,139.11A92,92,0,0,1,92,43.34ZM214.79,78.36c-.06-.13-.12-.25-.19-.37s-.15-.23-.22-.34A100.07,100.07,0,0,0,128,28a4,4,0,0,0-4,4v94.12L43.2,173.18a4,4,0,0,0-1.43,5.49A100,100,0,0,0,228,128,99.42,99.42,0,0,0,214.79,78.36ZM132,36.09A92.05,92.05,0,0,1,205.59,78.6L132,121.46ZM128,220a92.47,92.47,0,0,1-77.22-42L130,131.91l.1-.06L209.6,85.53A92,92,0,0,1,128,220Z"/></svg>