<svg xmlns="http://www.w3.org/2000/svg" viewBox="0 0 256 256" fill="currentColor"><path d="M216,52H40A12,12,0,0,0,28,64V224a11.89,11.89,0,0,0,6.93,10.88A12.17,12.17,0,0,0,40,236a11.89,11.89,0,0,0,7.69-2.83l.06-.06,32.14-28.17A4,4,0,0,1,82.5,204H216a12,12,0,0,0,12-12V64A12,12,0,0,0,216,52Zm4,140a4,4,0,0,1-4,4H82.5a12.1,12.1,0,0,0-7.79,2.87l-32.16,28.2A4,4,0,0,1,36,224V64a4,4,0,0,1,4-4H216a4,4,0,0,1,4,4Zm-84-64a8,8,0,1,1-8-8A8,8,0,0,1,136,128Zm-44,0a8,8,0,1,1-8-8A8,8,0,0,1,92,128Zm88,0a8,8,0,1,1-8-8A8,8,0,0,1,180,128Z"/></svg>