<svg xmlns="http://www.w3.org/2000/svg" viewBox="0 0 256 256" fill="currentColor"><path d="M235.6,215.24l-8.09-28.32A76,76,0,0,0,166.76,76.31,76,76,0,1,0,28.49,138.92L20.4,167.24A10,10,0,0,0,30,180a10.08,10.08,0,0,0,2.8-.4l28.32-8.09a76,76,0,0,0,28.13,8.18,76,76,0,0,0,105.71,39.82l28.32,8.09a10.08,10.08,0,0,0,2.8.4,10,10,0,0,0,9.56-12.76Zm-174.07-52a3.75,3.75,0,0,0-1.1.16l-29.87,8.53h0a2,2,0,0,1-2.47-2.47l8.53-29.87a4,4,0,0,0-.33-3,68,68,0,1,1,27.16,27.16A4,4,0,0,0,61.53,163.22ZM227.4,219.4a2,2,0,0,1-2,.51l-29.87-8.53a4,4,0,0,0-3,.33A68,68,0,0,1,98,180a76,76,0,0,0,71.5-95.28,68,68,0,0,1,50.21,99.88,4,4,0,0,0-.33,3l8.53,29.87A2,2,0,0,1,227.4,219.4Z"/></svg>