<svg xmlns="http://www.w3.org/2000/svg" viewBox="0 0 256 256" fill="currentColor"><path d="M216,44H40A12,12,0,0,0,28,56V184a12,12,0,0,0,12,12H99.47a4,4,0,0,1,3.43,1.94l0,0,14.79,24.2a12,12,0,0,0,20.56,0l14.83-24.26a4,4,0,0,1,3.43-1.94H216a12,12,0,0,0,12-12V56A12,12,0,0,0,216,44Zm4,140a4,4,0,0,1-4,4H156.53a12,12,0,0,0-10.27,5.8l-14.83,24.26a4,4,0,0,1-6.88,0l-14.8-24.22A12,12,0,0,0,99.47,188H40a4,4,0,0,1-4-4V56a4,4,0,0,1,4-4H216a4,4,0,0,1,4,4Zm-84-64a8,8,0,1,1-8-8A8,8,0,0,1,136,120Zm-44,0a8,8,0,1,1-8-8A8,8,0,0,1,92,120Zm88,0a8,8,0,1,1-8-8A8,8,0,0,1,180,120Z"/></svg>