<svg xmlns="http://www.w3.org/2000/svg" viewBox="0 0 256 256" fill="currentColor"><path d="M240.47,71.09l-24-23.58a12,12,0,0,0-17,0l-92.71,91.34a4,4,0,0,1-5.66,0l0-.06L64.48,103.51a12,12,0,0,0-17,0l-24,24a12,12,0,0,0,0,17l71.61,72a12,12,0,0,0,17,0L240.49,88.08A12,12,0,0,0,240.47,71.09Zm-5.63,11.34L106.43,210.83a4,4,0,0,1-5.65,0l-71.61-72a4,4,0,0,1,0-5.66l24-24A4,4,0,0,1,56,108a4.09,4.09,0,0,1,2.9,1.21l36.66,35.29a12,12,0,0,0,16.93,0l92.71-91.33a4,4,0,0,1,5.68,0l24,23.58A4,4,0,0,1,234.84,82.43Z"/></svg>