<svg xmlns="http://www.w3.org/2000/svg" viewBox="0 0 256 256" fill="currentColor"><path d="M200,76H160a4,4,0,0,1-4-4V32a12,12,0,0,0-12-12H112a12,12,0,0,0-12,12V72a4,4,0,0,1-4,4H56A12,12,0,0,0,44,88v32a12,12,0,0,0,12,12H96a4,4,0,0,1,4,4v88a12,12,0,0,0,12,12h32a12,12,0,0,0,12-12V136a4,4,0,0,1,4-4h40a12,12,0,0,0,12-12V88A12,12,0,0,0,200,76Zm4,44a4,4,0,0,1-4,4H160a12,12,0,0,0-12,12v88a4,4,0,0,1-4,4H112a4,4,0,0,1-4-4V136a12,12,0,0,0-12-12H56a4,4,0,0,1-4-4V88a4,4,0,0,1,4-4H96a12,12,0,0,0,12-12V32a4,4,0,0,1,4-4h32a4,4,0,0,1,4,4V72a12,12,0,0,0,12,12h40a4,4,0,0,1,4,4Z"/></svg>