<svg xmlns="http://www.w3.org/2000/svg" viewBox="0 0 256 256" fill="currentColor"><path d="M188,157.43V98.57a9,9,0,0,0-4.42-7.78L132.24,61.14a8.5,8.5,0,0,0-8.48,0L72.43,90.79A9,9,0,0,0,68,98.57v58.86a9,9,0,0,0,4.42,7.78l51.34,29.65a8.52,8.52,0,0,0,8.48,0l51.33-29.65A9,9,0,0,0,188,157.43ZM127.76,68.07a.45.45,0,0,1,.48,0L176.59,96,128,124.05,79.41,96ZM76.43,158.28a1,1,0,0,1-.43-.85V103.26L124,131v54.78Zm103.14,0L132,185.76V131l48-27.72v54.17A1,1,0,0,1,179.57,158.28ZM228,48V88a4,4,0,0,1-8,0V52H184a4,4,0,0,1,0-8h40A4,4,0,0,1,228,48ZM76,208a4,4,0,0,1-4,4H32a4,4,0,0,1-4-4V168a4,4,0,0,1,8,0v36H72A4,4,0,0,1,76,208Zm152-40v40a4,4,0,0,1-4,4H184a4,4,0,0,1,0-8h36V168a4,4,0,0,1,8,0ZM28,88V48a4,4,0,0,1,4-4H72a4,4,0,0,1,0,8H36V88a4,4,0,0,1-8,0Z"/></svg>