<svg xmlns="http://www.w3.org/2000/svg" viewBox="0 0 256 256" fill="currentColor"><path d="M248,108a4,4,0,0,0-4,4v28H220V120a12,12,0,0,0-12-12H195.31a4,4,0,0,1-2.82-1.17L157.17,71.51A11.93,11.93,0,0,0,148.69,68H124V44h28a4,4,0,0,0,0-8H88a4,4,0,0,0,0,8h28V68H48A12,12,0,0,0,36,80v60H12V112a4,4,0,0,0-8,0v64a4,4,0,0,0,8,0V148H36v24.69a11.93,11.93,0,0,0,3.51,8.48l35.32,35.32A11.93,11.93,0,0,0,83.31,220h65.38a11.93,11.93,0,0,0,8.48-3.51l35.32-35.32a4,4,0,0,1,2.82-1.17H208a12,12,0,0,0,12-12V148h24v28a4,4,0,0,0,8,0V112A4,4,0,0,0,248,108Zm-36,60a4,4,0,0,1-4,4H195.31a11.93,11.93,0,0,0-8.48,3.51l-35.32,35.32a4,4,0,0,1-2.82,1.17H83.31a4,4,0,0,1-2.82-1.17L45.17,175.51A4,4,0,0,1,44,172.69V80a4,4,0,0,1,4-4H148.69a4,4,0,0,1,2.82,1.17l35.32,35.32a11.93,11.93,0,0,0,8.48,3.51H208a4,4,0,0,1,4,4Z"/></svg>