<svg xmlns="http://www.w3.org/2000/svg" viewBox="0 0 256 256" fill="currentColor"><path d="M173.17,82.83a4,4,0,0,1,5.66-5.66L196,94.34V48a4,4,0,0,1,8,0V94.34l17.17-17.17a4,4,0,1,1,5.66,5.66l-24,24a4,4,0,0,1-5.66,0ZM236,160v40a12,12,0,0,1-12,12H171.5a12.06,12.06,0,0,1-8.82-3.86L71.44,109.29A4,4,0,0,0,68.5,108H32A12,12,0,0,1,20,96V56A12,12,0,0,1,32,44H84.5a12.06,12.06,0,0,1,8.82,3.86l91.24,98.85A4,4,0,0,0,187.5,148H224A12,12,0,0,1,236,160Zm-8,0a4,4,0,0,0-4-4H187.5a12.06,12.06,0,0,1-8.82-3.86L87.44,53.29A4,4,0,0,0,84.5,52H32a4,4,0,0,0-4,4V96a4,4,0,0,0,4,4H68.5a12.06,12.06,0,0,1,8.82,3.86l91.24,98.85A4,4,0,0,0,171.5,204H224a4,4,0,0,0,4-4Z"/></svg>