<svg xmlns="http://www.w3.org/2000/svg" viewBox="0 0 256 256" fill="currentColor"><path d="M224,44H171.5a12,12,0,0,0-8.81,3.86L71.44,146.71A4,4,0,0,1,68.5,148H32a12,12,0,0,0-12,12v40a12,12,0,0,0,12,12H84.5a12,12,0,0,0,8.81-3.86l91.25-98.85A4,4,0,0,1,187.5,108H224a12,12,0,0,0,12-12V56A12,12,0,0,0,224,44Zm4,52a4,4,0,0,1-4,4H187.5a12,12,0,0,0-8.81,3.86L87.44,202.71A4,4,0,0,1,84.5,204H32a4,4,0,0,1-4-4V160a4,4,0,0,1,4-4H68.5a12,12,0,0,0,8.81-3.86l91.25-98.85A4,4,0,0,1,171.5,52H224a4,4,0,0,1,4,4Zm-1.17,77.17a4,4,0,0,1-5.66,5.66L204,161.66V208a4,4,0,0,1-8,0V161.66l-17.17,17.17a4,4,0,0,1-5.66-5.66l24-24a4,4,0,0,1,5.66,0Z"/></svg>