<svg xmlns="http://www.w3.org/2000/svg" viewBox="0 0 256 256" fill="currentColor"><path d="M172,104a4,4,0,0,1-4,4H88a4,4,0,0,1,0-8h80A4,4,0,0,1,172,104Zm-4,28H88a4,4,0,0,0,0,8h80a4,4,0,0,0,0-8Zm84-28v24a28,28,0,0,1-28,28h-7.8c-5.84,14.64-18.33,27.51-37,37.86-20.53,11.41-42.54,16.57-48.8,17.89a11.93,11.93,0,0,1-4.86,0c-6.26-1.32-28.27-6.48-48.8-17.89-18.64-10.35-31.13-23.22-37-37.86H32A28,28,0,0,1,4,128V104A28,28,0,0,1,32,76h4.06A12,12,0,0,1,43.9,65.81l80-29.09a12,12,0,0,1,8.2,0l80,29.09A12,12,0,0,1,219.94,76H224A28,28,0,0,1,252,104ZM37.32,148A53.6,53.6,0,0,1,36,136.15V84H32a20,20,0,0,0-20,20v24a20,20,0,0,0,20,20Zm172.16,3.27a4.07,4.07,0,0,1,.34-1A46,46,0,0,0,212,136.15V77.09a4,4,0,0,0-2.63-3.76l-80-29.09a4,4,0,0,0-2.74,0l-80,29.09A4,4,0,0,0,44,77.09v59.06a45.85,45.85,0,0,0,2.18,14.11,4.29,4.29,0,0,1,.34,1c4.74,13.68,16.16,25.61,34.14,35.6,19.55,10.86,40.57,15.79,46.55,17a3.82,3.82,0,0,0,1.58,0c6-1.26,27-6.19,46.55-17C193.33,176.88,204.75,165,209.48,151.27ZM244,104a20,20,0,0,0-20-20h-4v52.15A53.6,53.6,0,0,1,218.68,148H224a20,20,0,0,0,20-20Z"/></svg>