<svg xmlns="http://www.w3.org/2000/svg" viewBox="0 0 256 256" fill="currentColor"><path d="M146.12,156.61a4,4,0,0,0-3.88-.2L116,169.26V168a12,12,0,0,0-12-12H48a12,12,0,0,0-12,12v40a12,12,0,0,0,12,12h56a12,12,0,0,0,12-12v-2.2l26.14,13.74a4,4,0,0,0,3.93-.12A4,4,0,0,0,148,216V160A4,4,0,0,0,146.12,156.61ZM108,208a4,4,0,0,1-4,4H48a4,4,0,0,1-4-4V168a4,4,0,0,1,4-4h56a4,4,0,0,1,4,4Zm32,1.38-24-12.62V178.17l24-11.76ZM210.83,85.17l-56-56A4,4,0,0,0,152,28H56A12,12,0,0,0,44,40v88a4,4,0,0,0,8,0V40a4,4,0,0,1,4-4h92V88a4,4,0,0,0,4,4h52V216a4,4,0,0,1-4,4H176a4,4,0,0,0,0,8h24a12,12,0,0,0,12-12V88A4,4,0,0,0,210.83,85.17ZM156,41.65,198.34,84H156Z"/></svg>