<svg xmlns="http://www.w3.org/2000/svg" viewBox="0 0 256 256" fill="currentColor"><path d="M164,76a8,8,0,1,1-8-8A8,8,0,0,1,164,76ZM196.71,164c-27,26.91-69.93,37.74-128.08,32.37q2.43,20.2,7.37,42.82a4,4,0,0,1-3,4.77,4.19,4.19,0,0,1-.86.09,4,4,0,0,1-3.9-3.15,453.52,453.52,0,0,1-7.7-45.37,456,456,0,0,1-45.34-7.71A4,4,0,1,1,16.86,180q22.59,4.95,42.78,7.38C54.3,129.21,65.13,86.26,92,59.3c42.31-42.41,109.88-30.4,123-27.56A12.09,12.09,0,0,1,224.26,41C227.1,54.08,239.11,121.64,196.71,164Zm-5.65-5.66c.81-.82,1.6-1.66,2.38-2.5a100,100,0,0,1-93.23-93.24c-.85.79-1.69,1.58-2.51,2.4C72.27,90.43,62.25,131.78,67.75,188.22,124.2,193.73,165.56,183.72,191.06,158.29ZM216.44,42.65a4,4,0,0,0-3.09-3.09,173.25,173.25,0,0,0-50.46-2.82C141.1,38.86,122.7,45.38,108,56.14A92,92,0,0,0,199.86,148c10.76-14.7,17.28-33.1,19.4-54.9A173.21,173.21,0,0,0,216.44,42.65Z"/></svg>