<svg xmlns="http://www.w3.org/2000/svg" viewBox="0 0 256 256" fill="currentColor"><path d="M164.05,76a8,8,0,1,1-8-8A8,8,0,0,1,164.05,76Zm40.72,78.54c-20.38,25.9-53.33,39.8-97.94,41.34l-23,53.74A4,4,0,0,1,80.12,252h-.26a4,4,0,0,1-3.59-2.89l-15.42-54L6.9,179.69a4,4,0,0,1-.47-7.52l53.74-23c1.55-44.62,15.46-77.56,41.36-97.94,41.8-32.9,101.9-22,113.52-19.48a12,12,0,0,1,9.2,9.19C226.77,52.57,237.67,112.7,204.77,154.49Zm-32,17A48.07,48.07,0,0,1,132,124h0A48.07,48.07,0,0,1,84.55,83.2c-10.27,18-15.79,41-16.46,68.74a4,4,0,0,1-2.42,3.58L19.92,175.1l45.27,13a4,4,0,0,1,2.75,2.75l12.93,45.27,19.61-45.75a4,4,0,0,1,3.58-2.42C131.82,187.25,154.81,181.73,172.81,171.45ZM216.43,42.64a4,4,0,0,0-3.07-3.07,172.71,172.71,0,0,0-45.72-3.31C143,37.85,122.39,45,106.48,57.52A85,85,0,0,0,92.26,71.73a40,40,0,0,0,43.6,44.05,4,4,0,0,1,4.36,4.36,40,40,0,0,0,44.08,43.59,85,85,0,0,0,14.18-14.19c12.52-15.9,19.67-36.48,21.26-61.17A172.84,172.84,0,0,0,216.43,42.64Z"/></svg>