<svg xmlns="http://www.w3.org/2000/svg" viewBox="0 0 256 256" fill="currentColor"><path d="M217.66,44.44a4,4,0,0,0-4.28.61c-30,26-56,13.08-83.61-.56-28.7-14.2-58.38-28.88-92.39.56a4,4,0,0,0-1.38,3V216a4,4,0,0,0,8,0V169.87c29.41-24.39,55.08-11.69,82.23,1.74,28.7,14.19,58.38,28.88,92.39-.56a4,4,0,0,0,1.38-3v-120A4,4,0,0,0,217.66,44.44ZM212,56.32V110.2c-16.91,14-32.58,15.78-48,12.2V66.67C179.24,69.9,195.09,68.37,212,56.32Zm-56,8.23v55.54c-8.7-3-17.39-7.25-26.23-11.63-9.76-4.83-19.64-9.71-29.77-12.9V40c8.7,3,17.39,7.25,26.23,11.62C136,56.49,145.87,61.37,156,64.55ZM92,37.73V93.44c-15.24-3.23-31.09-1.69-48,10.37V49.93C60.91,35.9,76.58,34.15,92,37.73ZM44,159.78V113.9c16.91-14,32.58-15.79,48-12.21v47.73A64.48,64.48,0,0,0,78.64,148C67.52,148,56,151.2,44,159.78Zm56-8.23V104c8.71,3,17.39,7.26,26.23,11.63,9.76,4.83,19.64,9.7,29.77,12.89v47.54c-8.71-3-17.39-7.25-26.23-11.62C120,159.61,110.13,154.73,100,151.55Zm64,26.82V130.65a64.48,64.48,0,0,0,13.36,1.47c11.12,0,22.61-3.27,34.64-11.85v45.9C195.09,180.19,179.42,182,164,178.37Z"/></svg>