<svg xmlns="http://www.w3.org/2000/svg" viewBox="0 0 256 256" fill="currentColor"><path d="M208,36H91.31a12,12,0,0,0-8.48,3.51L39.52,82.83A11.9,11.9,0,0,0,36,91.31V208a12,12,0,0,0,12,12H208a12,12,0,0,0,12-12V48A12,12,0,0,0,208,36Zm4,172a4,4,0,0,1-4,4H48a4,4,0,0,1-4-4V91.31a4,4,0,0,1,1.17-2.82L88.48,45.17A4,4,0,0,1,91.31,44H172V80a4,4,0,0,1-4,4H88a4,4,0,0,0,0,8h80a12,12,0,0,0,12-12V44h28a4,4,0,0,1,4,4Zm-84-92a36,36,0,1,0,36,36A36,36,0,0,0,128,116Zm0,64a28,28,0,1,1,28-28A28,28,0,0,1,128,180Z"/></svg>