<svg xmlns="http://www.w3.org/2000/svg" viewBox="0 0 256 256" fill="currentColor"><path d="M216.49,82.83,173.17,39.51A11.93,11.93,0,0,0,164.69,36H48A12,12,0,0,0,36,48V208a12,12,0,0,0,12,12H208a12,12,0,0,0,12-12V91.31A11.93,11.93,0,0,0,216.49,82.83ZM172,212H84V152a4,4,0,0,1,4-4h80a4,4,0,0,1,4,4Zm40-4a4,4,0,0,1-4,4H180V152a12,12,0,0,0-12-12H88a12,12,0,0,0-12,12v60H48a4,4,0,0,1-4-4V48a4,4,0,0,1,4-4H164.69a4,4,0,0,1,2.82,1.17l43.32,43.32A4,4,0,0,1,212,91.31ZM156,72a4,4,0,0,1-4,4H96a4,4,0,0,1,0-8h56A4,4,0,0,1,156,72Z"/></svg>