<svg xmlns="http://www.w3.org/2000/svg" viewBox="0 0 256 256" fill="currentColor"><path d="M241.72,113a11.88,11.88,0,0,0-9.73-5H212V88a12,12,0,0,0-12-12H130.66a4,4,0,0,1-2.4-.8L100.53,54.4a12.05,12.05,0,0,0-7.2-2.4H40A12,12,0,0,0,28,64V208h0a3.94,3.94,0,0,0,.69,2.24A4,4,0,0,0,32,212H211.09a4,4,0,0,0,3.79-2.74l28.49-85.47A11.86,11.86,0,0,0,241.72,113ZM40,60H93.33a4,4,0,0,1,2.4.8l27.73,20.8a12.07,12.07,0,0,0,7.2,2.4H200a4,4,0,0,1,4,4v20H146.42a12,12,0,0,0-6.66,2l-20,13.31a4,4,0,0,1-2.22.67H69.41a12,12,0,0,0-11.14,7.54L36,187.23V64A4,4,0,0,1,40,60Zm195.78,61.27L208.2,204H37.91L65.7,134.51A4,4,0,0,1,69.41,132h48.16a12,12,0,0,0,6.66-2l20-13.31a4,4,0,0,1,2.22-.67H232a4,4,0,0,1,3.79,5.27Z"/></svg>