<svg xmlns="http://www.w3.org/2000/svg" viewBox="0 0 256 256" fill="currentColor"><path d="M112,156a4,4,0,0,0-4,4v38.34L72.89,163.23A43.71,43.71,0,0,1,60,132.12V91.71a28,28,0,1,0-8,0v40.41a51.66,51.66,0,0,0,15.23,36.77L102.34,204H64a4,4,0,0,0,0,8h48a4,4,0,0,0,4-4V160A4,4,0,0,0,112,156ZM36,64A20,20,0,1,1,56,84,20,20,0,0,1,36,64ZM204,164.29V123.88a51.66,51.66,0,0,0-15.23-36.77L153.66,52H192a4,4,0,0,0,0-8H144a4,4,0,0,0-4,4V96a4,4,0,0,0,8,0V57.66l35.11,35.11A43.71,43.71,0,0,1,196,123.88v40.41a28,28,0,1,0,8,0ZM200,212a20,20,0,1,1,20-20A20,20,0,0,1,200,212Z"/></svg>