<svg xmlns="http://www.w3.org/2000/svg" viewBox="0 0 256 256" fill="currentColor"><path d="M128,28A100,100,0,1,0,228,128,100.11,100.11,0,0,0,128,28Zm91.91,96h-48c-.83-32.93-11.88-64.09-30.79-87.06A92.16,92.16,0,0,1,219.91,124ZM128,220a3.76,3.76,0,0,1-2.78-1.23C104.91,196.9,93,165.46,92.06,132h71.88c-.89,33.46-12.85,64.9-33.16,86.77A3.76,3.76,0,0,1,128,220ZM92.06,124c.89-33.46,12.85-64.9,33.16-86.77a3.76,3.76,0,0,1,5.56,0C151.09,59.1,163.05,90.54,163.94,124Zm22.79-87.06c-18.91,23-30,54.13-30.79,87.06h-48A92.16,92.16,0,0,1,114.85,36.94ZM36.09,132h48c.83,32.93,11.88,64.09,30.79,87.06A92.16,92.16,0,0,1,36.09,132Zm105.06,87.06c18.91-23,30-54.13,30.79-87.06h48A92.16,92.16,0,0,1,141.15,219.06Z"/></svg>