<svg xmlns="http://www.w3.org/2000/svg" viewBox="0 0 256 256" fill="currentColor"><path d="M224,52H32A12,12,0,0,0,20,64V192a12,12,0,0,0,12,12H92.69a12,12,0,0,0,8.48-3.51l24-24a4.08,4.08,0,0,1,5.66,0l24,24a12,12,0,0,0,8.48,3.51H224a12,12,0,0,0,12-12V64A12,12,0,0,0,224,52Zm4,140a4,4,0,0,1-4,4H163.31a4,4,0,0,1-2.82-1.17l-24-24a12,12,0,0,0-17,0l-24,24A4,4,0,0,1,92.69,196H32a4,4,0,0,1-4-4V64a4,4,0,0,1,4-4H224a4,4,0,0,1,4,4ZM80,100a28,28,0,1,0,28,28A28,28,0,0,0,80,100Zm0,48a20,20,0,1,1,20-20A20,20,0,0,1,80,148Zm96-48a28,28,0,1,0,28,28A28,28,0,0,0,176,100Zm0,48a20,20,0,1,1,20-20A20,20,0,0,1,176,148Z"/></svg>