<svg xmlns="http://www.w3.org/2000/svg" viewBox="0 0 256 256" fill="currentColor"><path d="M234.19,153.86,165.74,41.64A11.94,11.94,0,0,0,155.56,36H100.43a11.93,11.93,0,0,0-10.17,5.64l0,0L21.83,153.82a12,12,0,0,0-.25,12.32L48.91,214A12,12,0,0,0,59.32,220H196.67A12,12,0,0,0,207.09,214l27.32-47.81A12,12,0,0,0,234.19,153.86ZM226.13,156H170.26l-37.6-62.67,27.39-45.65ZM95.06,156,128,101.11,160.93,156Zm70.67,8,28.8,48H61.47l28.79-48ZM128,85.56,103.06,44h49.87ZM95.94,47.68l27.39,45.65L85.74,156H29.87ZM29.58,164H80.94L54.63,207.85Zm171.79,43.85L175.06,164h51.36Z"/></svg>