<svg xmlns="http://www.w3.org/2000/svg" viewBox="0 0 256 256" fill="currentColor"><path d="M115.88,217a4,4,0,0,1-3.88,3,4.09,4.09,0,0,1-1-.12l-32-8a4,4,0,0,1-1.25-.55l-24-16a4,4,0,0,1,4.44-6.66l23.42,15.62L113,212.12A4,4,0,0,1,115.88,217Zm132.77-96.75a11.88,11.88,0,0,1-6,6.93l-24.26,12.14-55.54,55.54a4,4,0,0,1-3.8,1l-64-16a3.84,3.84,0,0,1-1.36-.63L37.93,139.44,13.37,127.15A12,12,0,0,1,8,111.05L32.84,61.37h0A12,12,0,0,1,48.94,56L72.4,67.73l54.5-15.58a4.11,4.11,0,0,1,2.2,0l54.5,15.58L207.06,56a12,12,0,0,1,16.1,5.37L248,111.06A11.9,11.9,0,0,1,248.65,120.22ZM16.94,120l21.27,10.63L66.63,73.79,45.37,63.16A4,4,0,0,0,40,64.94L15.16,114.63A4,4,0,0,0,16.94,120ZM194,152.33l-33.78-27.06c-18.53,16.76-42.78,19.51-62.66,6.81a12,12,0,0,1-2.06-18.62l45.7-44.33A4,4,0,0,1,144,68h11.44L128,60.16,74.79,75.36,45.11,134.73l52.6,37.57,61.06,15.27Zm17.12-17.12L181.53,76H145.62l-44.49,43.16a3.89,3.89,0,0,0-1.11,3.2,4.07,4.07,0,0,0,1.85,3c13.95,8.91,35.8,11.44,55.29-8.2a4,4,0,0,1,5.34-.3l37.21,29.8Zm29.71-20.58L216,64.94a4,4,0,0,0-5.37-1.78L189.37,73.79l28.42,56.84L239.06,120a4,4,0,0,0,1.78-5.37Z"/></svg>