<svg xmlns="http://www.w3.org/2000/svg" viewBox="0 0 256 256" fill="currentColor"><path d="M178,36c-21.44,0-39.92,10.19-50,27.07C117.92,46.19,99.44,36,78,36A58.07,58.07,0,0,0,20,94c0,28.59,18,58.47,53.4,88.79a333.81,333.81,0,0,0,52.7,36.73,4,4,0,0,0,3.8,0,333.81,333.81,0,0,0,52.7-36.73C218,152.47,236,122.59,236,94A58.07,58.07,0,0,0,178,36ZM128,211.42C114,203.46,28,152.07,28,94A50.06,50.06,0,0,1,78,44c21.11,0,38.85,11.31,46.3,29.51a4,4,0,0,0,7.4,0C139.15,55.31,156.89,44,178,44a50.06,50.06,0,0,1,50,50C228,152,142,203.46,128,211.42Z"/></svg>