<svg xmlns="http://www.w3.org/2000/svg" viewBox="0 0 256 256" fill="currentColor"><path d="M178,36a57.59,57.59,0,0,0-41,17l-9,9-9-9A58,58,0,0,0,20,94c0,28.59,18,58.47,53.4,88.79a333.81,333.81,0,0,0,52.7,36.73,4,4,0,0,0,3.8,0,333.81,333.81,0,0,0,52.7-36.73C218,152.47,236,122.59,236,94A58.07,58.07,0,0,0,178,36ZM128,211.42C114,203.46,28,152.07,28,94a50,50,0,0,1,85.36-35.36l9,9L109.17,80.8a4,4,0,0,0,0,5.66l27.36,27.36-19.36,19.35a4,4,0,0,0,5.66,5.66L145,116.64a4,4,0,0,0,0-5.65L117.66,83.63l13.16-13.16h0l11.8-11.81A50,50,0,0,1,228,94C228,152,142,203.46,128,211.42Z"/></svg>