<svg xmlns="http://www.w3.org/2000/svg" viewBox="0 0 256 256" fill="currentColor"><path d="M235.33,125.78,179,41.34a12,12,0,0,0-10-5.34H87a12,12,0,0,0-10,5.34L20.67,125.78a4,4,0,0,0-.53,3.27l22.39,82.11A12,12,0,0,0,54.11,220H80a12,12,0,0,0,12-12V188h72v20a12,12,0,0,0,12,12h25.89a12,12,0,0,0,11.58-8.84l22.39-82.11A4,4,0,0,0,235.33,125.78ZM80,180a4,4,0,0,1-4-4V62.89l32,18.29V136a4,4,0,0,0,8,0V85.75l10,5.72a4,4,0,0,0,4,0l10-5.72V128a4,4,0,0,0,8,0V81.18l32-18.29V176a4,4,0,0,1-4,4ZM83.62,45.78A4,4,0,0,1,87,44h82.1a4,4,0,0,1,3.33,1.78l5.91,8.87L128,83.39,77.71,54.65ZM84,208a4,4,0,0,1-4,4H54.11a4,4,0,0,1-3.86-2.95L28.34,128.7,68,69.21V176a12,12,0,0,0,12,12h4Zm121.75,1.05a4,4,0,0,1-3.86,2.95H176a4,4,0,0,1-4-4V188h4a12,12,0,0,0,12-12V69.21l39.66,59.49Z"/></svg>