<svg xmlns="http://www.w3.org/2000/svg" viewBox="0 0 256 256" fill="currentColor"><path d="M216.13,106.72,136.07,31.13a12,12,0,0,0-16.2.05L39.93,106.67A12,12,0,0,0,36,115.54V208a12,12,0,0,0,12,12H96a12,12,0,0,0,12-12V160a4,4,0,0,1,4-4h32a4,4,0,0,1,4,4v48a12,12,0,0,0,12,12h48a12,12,0,0,0,12-12V115.54A12,12,0,0,0,216.13,106.72ZM212,208a4,4,0,0,1-4,4H160a4,4,0,0,1-4-4V160a12,12,0,0,0-12-12H112a12,12,0,0,0-12,12v48a4,4,0,0,1-4,4H48a4,4,0,0,1-4-4V115.54a4.09,4.09,0,0,1,1.36-3L125.3,37.05a4,4,0,0,1,5.33,0l80.06,75.58a4,4,0,0,1,1.31,3Z"/></svg>