<svg xmlns="http://www.w3.org/2000/svg" viewBox="0 0 256 256" fill="currentColor"><path d="M240,100H227.23l-10-46.51A12.07,12.07,0,0,0,205.53,44H50.47a12.07,12.07,0,0,0-11.74,9.49L28.77,100H16a4,4,0,0,0,0,8H28V208a12,12,0,0,0,12,12H64a12,12,0,0,0,12-12V180H180v28a12,12,0,0,0,12,12h24a12,12,0,0,0,12-12V108h12a4,4,0,0,0,0-8ZM46.56,55.16A4,4,0,0,1,50.47,52H205.53a4,4,0,0,1,3.91,3.16L219.05,100H37ZM68,208a4,4,0,0,1-4,4H40a4,4,0,0,1-4-4V180H68Zm148,4H192a4,4,0,0,1-4-4V180h32v28A4,4,0,0,1,216,212Zm4-40H148V136a4,4,0,0,0-8,0v36H116V136a4,4,0,0,0-8,0v36H36V108H220ZM60,140a8,8,0,1,1,8,8A8,8,0,0,1,60,140Zm120,0a8,8,0,1,1,8,8A8,8,0,0,1,180,140Z"/></svg>