<svg xmlns="http://www.w3.org/2000/svg" viewBox="0 0 256 256" fill="currentColor"><path d="M223.51,52h-191A12.5,12.5,0,0,0,20,64.49v127A12.5,12.5,0,0,0,32.49,204h191A12.5,12.5,0,0,0,236,191.51v-127A12.5,12.5,0,0,0,223.51,52ZM228,191.51a4.49,4.49,0,0,1-4.49,4.49h-191A4.49,4.49,0,0,1,28,191.51v-127A4.49,4.49,0,0,1,32.49,60h191A4.49,4.49,0,0,1,228,64.49ZM204,128a4,4,0,0,1-4,4H56a4,4,0,0,1,0-8H200A4,4,0,0,1,204,128Zm0-32a4,4,0,0,1-4,4H56a4,4,0,0,1,0-8H200A4,4,0,0,1,204,96ZM68,160a4,4,0,0,1-4,4H56a4,4,0,0,1,0-8h8A4,4,0,0,1,68,160Zm96,0a4,4,0,0,1-4,4H96a4,4,0,0,1,0-8h64A4,4,0,0,1,164,160Zm40,0a4,4,0,0,1-4,4h-8a4,4,0,0,1,0-8h8A4,4,0,0,1,204,160Z"/></svg>