<svg xmlns="http://www.w3.org/2000/svg" viewBox="0 0 256 256" fill="currentColor"><path d="M134.71,189.19a4,4,0,0,1,0,5.66l-9.94,9.94a52,52,0,0,1-73.56-73.56l24.12-24.12a52,52,0,0,1,71.32-2.1,4,4,0,1,1-5.32,6A44,44,0,0,0,81,112.77L56.87,136.89a44,44,0,0,0,62.24,62.24l9.94-9.94A4,4,0,0,1,134.71,189.19Zm70.08-138a52.07,52.07,0,0,0-73.56,0l-9.94,9.94A4,4,0,1,0,127,66.81l9.94-9.94a44,44,0,0,1,62.24,62.24L175,143.23A44,44,0,0,1,114.67,145a4,4,0,1,0-5.32,6,52,52,0,0,0,71.32-2.1l24.12-24.12A52.07,52.07,0,0,0,204.79,51.21Z"/></svg>