<svg xmlns="http://www.w3.org/2000/svg" viewBox="0 0 256 256" fill="currentColor"><path d="M88,100a28,28,0,1,0,28,28A28,28,0,0,0,88,100Zm0,48a20,20,0,1,1,20-20A20,20,0,0,1,88,148Zm128-40H204V48a12,12,0,0,0-12-12H112a12,12,0,0,0-12,12V68H40A12,12,0,0,0,28,80v96a12,12,0,0,0,12,12H76v20a12,12,0,0,0,12,12H216a12,12,0,0,0,12-12V120A12,12,0,0,0,216,108Zm-57.17,56L220,119.84a.78.78,0,0,1,0,.16v88a1,1,0,0,1,0,.17Zm52.8-48L204,121.51V116ZM108,48a4,4,0,0,1,4-4h80a4,4,0,0,1,4,4v79.29l-44,31.78-4-2.89V80a12,12,0,0,0-12-12H108ZM36,176V80a4,4,0,0,1,4-4h96a4,4,0,0,1,4,4v96a4,4,0,0,1-4,4H40A4,4,0,0,1,36,176Zm48,32V188h52a12,12,0,0,0,12-12v-9.95L211.63,212H88A4,4,0,0,1,84,208Z"/></svg>