<svg xmlns="http://www.w3.org/2000/svg" viewBox="0 0 256 256" fill="currentColor"><path d="M211,213.31,51,37.31A4,4,0,0,0,45,42.69L84,85.55V128a44,44,0,0,0,70.52,35.11l16.17,17.8A68,68,0,0,1,60,128a4,4,0,0,0-8,0,76.09,76.09,0,0,0,72,75.89V232a4,4,0,0,0,8,0V203.89a75.76,75.76,0,0,0,44.09-17L205,218.69a4,4,0,1,0,5.92-5.38ZM128,164a36,36,0,0,1-36-36V94.35l57.1,62.81A35.9,35.9,0,0,1,128,164ZM90.56,40.88A44,44,0,0,1,172,64v60.43a4,4,0,0,1-8,0V64A36,36,0,0,0,97.36,45.09a4,4,0,1,1-6.8-4.21ZM191.37,152.73A67.81,67.81,0,0,0,196,128a4,4,0,0,1,8,0,75.64,75.64,0,0,1-5.18,27.64,4,4,0,0,1-3.73,2.54,3.88,3.88,0,0,1-1.45-.27A4,4,0,0,1,191.37,152.73Z"/></svg>