<svg xmlns="http://www.w3.org/2000/svg" viewBox="0 0 256 256" fill="currentColor"><path d="M230.5,164.88a4,4,0,0,0-5,0c-.88.7-21.5,17.45-21.5,39.12a24,24,0,0,0,48,0C252,182.33,231.38,165.58,230.5,164.88ZM228,220a16,16,0,0,1-16-16c0-13.75,10.95-25.8,16-30.63,5.05,4.83,16,16.88,16,30.63A16,16,0,0,1,228,220Zm-1.17-99.34L119.34,13.17a4,4,0,0,0-5.65,0L70.25,56.6,42.82,29.17a4,4,0,0,0-5.65,5.66L64.6,62.26,17.86,109a20,20,0,0,0,0,28.29l84.85,84.85a20,20,0,0,0,28.29,0l95.83-95.83A4,4,0,0,0,226.83,120.66ZM125.34,216.48a12,12,0,0,1-17,0L23.51,131.63a12,12,0,0,1,0-17L70.25,67.92l34.2,34.2A24,24,0,0,0,141,133h0a24,24,0,0,0-30.86-36.51l-34.2-34.2,40.61-40.6L218.34,123.48Zm10-89.17a16,16,0,1,1,0-22.62A16,16,0,0,1,135.31,127.31Z"/></svg>