<svg xmlns="http://www.w3.org/2000/svg" viewBox="0 0 256 256" fill="currentColor"><path d="M224.47,31.52a11.87,11.87,0,0,0-11.82-3L20.74,86.67a12,12,0,0,0-1.88,22.4l85.61,40.55a4,4,0,0,1,1.91,1.9l40.55,85.62A11.88,11.88,0,0,0,157.74,244c.34,0,.69,0,1,0a11.89,11.89,0,0,0,10.52-8.63l58.21-192,0-.08A11.85,11.85,0,0,0,224.47,31.52Zm-4.62,9.54-58.23,192a4,4,0,0,1-7.46.63L113.61,148.1a.05.05,0,0,1,0,0l49.24-49.23a4,4,0,1,0-5.66-5.66l-49.24,49.24,0,0L22.29,101.84a3.88,3.88,0,0,1-2.27-4,3.93,3.93,0,0,1,3-3.54L214.9,36.16A3.93,3.93,0,0,1,216,36a4,4,0,0,1,2.79,1.19A3.93,3.93,0,0,1,219.85,41.06Z"/></svg>