<svg xmlns="http://www.w3.org/2000/svg" viewBox="0 0 256 256" fill="currentColor"><path d="M44,56V200a4,4,0,0,1-8,0V56a4,4,0,0,1,8,0Zm89.2,58.31L108,122.49V96a4,4,0,0,0-8,0v26.49l-25.2-8.18a4,4,0,1,0-2.47,7.61l25.2,8.18L82,151.54a4,4,0,1,0,6.47,4.7L104,134.81l15.57,21.43a4,4,0,0,0,3.24,1.65,4,4,0,0,0,3.23-6.35L110.47,130.1l25.2-8.18a4,4,0,0,0-2.47-7.61Zm101,2.57a4,4,0,0,0-5-2.57L204,122.49V96a4,4,0,0,0-8,0v26.49l-25.2-8.18a4,4,0,0,0-2.47,7.61l25.2,8.18L178,151.54a4,4,0,1,0,6.47,4.7L200,134.81l15.57,21.43a4,4,0,0,0,3.24,1.65,4,4,0,0,0,3.23-6.35L206.47,130.1l25.2-8.18A4,4,0,0,0,234.24,116.88Z"/></svg>