<svg xmlns="http://www.w3.org/2000/svg" viewBox="0 0 256 256" fill="currentColor"><path d="M156.14,39A4,4,0,0,1,161,36.13,82.24,82.24,0,0,1,219.86,95,4,4,0,0,1,217,99.86a3.65,3.65,0,0,1-1,.14,4,4,0,0,1-3.86-3A74.35,74.35,0,0,0,159,43.86,4,4,0,0,1,156.14,39ZM151,75.86C166,79.89,176.11,90,180.14,105a4,4,0,0,0,3.86,3,3.65,3.65,0,0,0,1-.14,4,4,0,0,0,2.83-4.89c-4.8-18-16.85-30-34.83-34.84A4,4,0,0,0,151,75.86Zm76.94,98.72A52.25,52.25,0,0,1,176,220C98.8,220,36,157.2,36,80A52.25,52.25,0,0,1,81.42,28.09,12,12,0,0,1,93.9,35.28L115,82.42a12,12,0,0,1-1,11.36c-.09.13-.18.26-.28.38l-21.2,25.21a3.9,3.9,0,0,0-.18,3.69c7.84,16.05,24.65,32.73,40.89,40.57a3.93,3.93,0,0,0,3.7-.21L161.8,142.3l.38-.29a12,12,0,0,1,11.38-1l47.22,21.16A12,12,0,0,1,227.91,174.58Zm-10.35-5.12L170.35,148.3a3.93,3.93,0,0,0-3.57.27L142,169.69l-.37.28a12,12,0,0,1-11.79.87c-18-8.69-35.91-26.48-44.6-44.27A12,12,0,0,1,86,114.82c.09-.14.19-.26.29-.39l21.19-25.2a4,4,0,0,0,.23-3.6L86.57,38.49A4,4,0,0,0,82.9,36a3.87,3.87,0,0,0-.48,0A44.23,44.23,0,0,0,44,80c0,72.78,59.22,132,132,132a44.23,44.23,0,0,0,44-38.42A4,4,0,0,0,217.56,169.46Z"/></svg>