<svg xmlns="http://www.w3.org/2000/svg" viewBox="0 0 256 256" fill="currentColor"><path d="M243.63,40.12a4,4,0,0,0-3.76-3.75c-50.25-3-90.44,12.1-107.52,40.29-11.64,19.22-11.17,41.92,1.24,64.21a67.33,67.33,0,0,0-16.65,34.41L93.45,151.79c8.63-16,8.81-32.33.42-46.19C81.45,85.09,52.35,74.13,16,76.26A4,4,0,0,0,12.26,80c-2.13,36.33,8.83,65.43,29.34,77.85a41.82,41.82,0,0,0,21.88,6.18,51.29,51.29,0,0,0,24.31-6.6L116,185.67c0,.28,0,.56,0,.84V216a4,4,0,0,0,8,0V186.51a59.57,59.57,0,0,1,15.29-40c11.49,6.36,23.07,9.56,34.24,9.56a57,57,0,0,0,29.81-8.41C231.52,130.57,246.59,90.38,243.63,40.12ZM45.74,151C28.47,140.56,19,115.69,20.08,84.08,51.69,83,76.56,92.47,87,109.74c6.48,10.71,6.59,23.37.46,36.09L58.82,117.17a4,4,0,0,0-5.65,5.65l28.67,28.67C69.11,157.62,56.45,157.51,45.74,151ZM199.19,140.8c-16.05,9.72-35.09,9.59-54.08-.25l57.72-57.73a4,4,0,0,0-5.65-5.66l-57.73,57.73c-9.84-19-10-38-.25-54.08,15.11-25,51.08-38.53,96.63-36.64C237.73,89.72,224.15,125.69,199.19,140.8Z"/></svg>