<svg xmlns="http://www.w3.org/2000/svg" viewBox="0 0 256 256" fill="currentColor"><path d="M100,176a4,4,0,0,1-4,4H64a4,4,0,0,1,0-8H96A4,4,0,0,1,100,176Zm-4-36H64a4,4,0,0,0,0,8H96a4,4,0,0,0,0-8ZM228,88V200a12,12,0,0,1-12,12H40a12,12,0,0,1-12-12V80a4,4,0,0,1,2.85-3.81l160-48a4,4,0,0,1,2.3,7.66L59.25,76H216A12,12,0,0,1,228,88Zm-8,0a4,4,0,0,0-4-4H36V200a4,4,0,0,0,4,4H216a4,4,0,0,0,4-4Zm-24,56a36,36,0,1,1-36-36A36,36,0,0,1,196,144Zm-8,0a28,28,0,1,0-28,28A28,28,0,0,0,188,144ZM96,108H64a4,4,0,0,0,0,8H96a4,4,0,0,0,0-8Z"/></svg>