<svg xmlns="http://www.w3.org/2000/svg" viewBox="0 0 256 256" fill="currentColor"><path d="M208,44H48A12,12,0,0,0,36,56v58.77c0,86.87,73.54,115.7,88.28,120.6a11.65,11.65,0,0,0,7.44,0c14.74-4.9,88.28-33.73,88.28-120.6V56A12,12,0,0,0,208,44ZM129.2,227.79a3.53,3.53,0,0,1-2.4,0c-9.75-3.24-47-17.66-68-54.45L128,124.88l69.23,48.46C176.16,210.13,139,224.55,129.2,227.79Zm82.8-113c0,20.38-4.33,37.35-11,51.41l-70.68-49.48a4,4,0,0,0-4.58,0L55,166.2c-6.7-14.06-11-31-11-51.41V56a4,4,0,0,1,4-4H208a4,4,0,0,1,4,4Z"/></svg>