<svg xmlns="http://www.w3.org/2000/svg" viewBox="0 0 256 256" fill="currentColor"><path d="M171.71,118.52a4,4,0,0,1-2.22,5.19l-35.16,14.07L155.2,165.6a4,4,0,1,1-6.4,4.8L128,142.67,107.2,170.4a4,4,0,0,1-6.4-4.8l20.87-27.82L86.51,123.71a4,4,0,0,1,3-7.42L124,130.09V96a4,4,0,0,1,8,0v34.09l34.51-13.8A4,4,0,0,1,171.71,118.52ZM220,56v58.77c0,86.88-73.54,115.7-88.28,120.59a11.47,11.47,0,0,1-7.44,0C109.54,230.49,36,201.67,36,114.79V56A12,12,0,0,1,48,44H208A12,12,0,0,1,220,56Zm-8,0a4,4,0,0,0-4-4H48a4,4,0,0,0-4,4v58.77c0,81.38,69,108.41,82.8,113a3.51,3.51,0,0,0,2.39,0C143,223.2,212,196.17,212,114.79Z"/></svg>