<svg xmlns="http://www.w3.org/2000/svg" viewBox="0 0 256 256" fill="currentColor"><path d="M200,52H177.66L162.83,37.17A4,4,0,0,0,160.39,36a2.13,2.13,0,0,0-.39,0H96v0a4,4,0,0,0-2.83,1.15L78.34,52H56A12,12,0,0,0,44,64V216a12,12,0,0,0,12,12H200a12,12,0,0,0,12-12V64A12,12,0,0,0,200,52Zm-28,5.66V112a4,4,0,0,1-2.3,3.63,3.93,3.93,0,0,1-4.21-.51l-32.2-27.82,27.33-41ZM128,80.79,103.47,44h49.06ZM95.38,46.28l27.33,41-32.17,27.8A4,4,0,0,1,84,112V57.66ZM52,216V64a4,4,0,0,1,4-4H76v52a11.89,11.89,0,0,0,6.91,10.87A12.08,12.08,0,0,0,88,124a11.88,11.88,0,0,0,7.65-2.8l.06,0L124,96.74V220H56A4,4,0,0,1,52,216Zm152,0a4,4,0,0,1-4,4H132V96.74l28.32,24.46A11.9,11.9,0,0,0,168,124a12.08,12.08,0,0,0,5.12-1.15A11.89,11.89,0,0,0,180,112V60h20a4,4,0,0,1,4,4Z"/></svg>