<svg xmlns="http://www.w3.org/2000/svg" viewBox="0 0 256 256" fill="currentColor"><path d="M235.55,71.32a9.18,9.18,0,0,0-8-6.33L188.68,61.7a1.2,1.2,0,0,1-1-.71L172.47,25.56a9.24,9.24,0,0,0-16.95,0L140.33,61a1.2,1.2,0,0,1-1,.71L100.43,65a9.18,9.18,0,0,0-8,6.33A9,9,0,0,0,95.21,81l29.49,25.19a1.09,1.09,0,0,1,.36,1.09l-8.84,37.46a9,9,0,0,0,3.49,9.43,9.23,9.23,0,0,0,10.22.49l33.42-19.86a1.29,1.29,0,0,1,1.29,0l33.42,19.86a9.22,9.22,0,0,0,10.21-.49,9,9,0,0,0,3.49-9.43l-8.84-37.46a1.11,1.11,0,0,1,.37-1.09L232.78,81A9,9,0,0,0,235.55,71.32Zm-8,3.62L198.1,100.13a9.06,9.06,0,0,0-3,9L204,146.6a1,1,0,0,1-.44,1.14,1.21,1.21,0,0,1-1.4.07l-33.41-19.87a9.27,9.27,0,0,0-9.47,0l-33.42,19.87a1.19,1.19,0,0,1-1.39-.07,1,1,0,0,1-.44-1.14l8.84-37.46a9.08,9.08,0,0,0-3-9L100.4,74.94a1,1,0,0,1-.34-1.17,1.12,1.12,0,0,1,1-.81L140,69.67a9.16,9.16,0,0,0,7.69-5.52l15.19-35.44a1.25,1.25,0,0,1,2.25,0l15.19,35.43A9.14,9.14,0,0,0,188,69.67L226.88,73a1.14,1.14,0,0,1,1.05.81A1,1,0,0,1,227.59,74.94ZM82.83,122.83l-56,56a4,4,0,0,1-5.66-5.66l56-56a4,4,0,0,1,5.66,5.66Zm16,50.34a4,4,0,0,1,0,5.66l-56,56a4,4,0,0,1-5.66-5.66l56-56A4,4,0,0,1,98.82,173.17Zm72,0a4,4,0,0,1,0,5.66l-56,56a4,4,0,0,1-5.65-5.66l56-56A4,4,0,0,1,170.82,173.17Z"/></svg>