<svg xmlns="http://www.w3.org/2000/svg" viewBox="0 0 256 256" fill="currentColor"><path d="M219.07,61.44A4,4,0,0,0,216,60H51.34L45.86,29.85A12,12,0,0,0,34.05,20H16a4,4,0,0,0,0,8h18A4,4,0,0,1,38,31.28l25.5,140.3A20,20,0,0,0,71,183.85,24,24,0,1,0,101.87,188h60.26A24,24,0,1,0,180,180H83.17a12,12,0,0,1-11.8-9.85l-4-22.15H188.1a20,20,0,0,0,19.68-16.42l12.16-66.86A4,4,0,0,0,219.07,61.44ZM100,204a16,16,0,1,1-16-16A16,16,0,0,1,100,204Zm96,0a16,16,0,1,1-16-16A16,16,0,0,1,196,204Zm3.91-73.85A12,12,0,0,1,188.1,140H65.88L52.79,68H211.21Z"/></svg>