<svg xmlns="http://www.w3.org/2000/svg" viewBox="0 0 256 256" fill="currentColor"><path d="M234.83,181.17a4,4,0,0,1,0,5.66l-24,24a4,4,0,0,1-5.66-5.66L222.34,188H172.12a12,12,0,0,1-9.77-5L87.14,77.67A4,4,0,0,0,83.88,76H32a4,4,0,0,1,0-8H83.88a12,12,0,0,1,9.77,5l75.21,105.31a4,4,0,0,0,3.26,1.67h50.22l-17.17-17.17a4,4,0,0,1,5.66-5.66Zm-89.49-77.44a4,4,0,0,0,5.58-.93l17.94-25.13A4,4,0,0,1,172.12,76h50.22L205.17,93.17a4,4,0,0,0,5.66,5.66l24-24a4,4,0,0,0,0-5.66l-24-24a4,4,0,0,0-5.66,5.66L222.34,68H172.12a12,12,0,0,0-9.77,5L144.41,98.15A4,4,0,0,0,145.34,103.73Zm-34.68,48.54a4,4,0,0,0-5.58.93L87.14,178.33A4,4,0,0,1,83.88,180H32a4,4,0,0,0,0,8H83.88a12,12,0,0,0,9.77-5l17.94-25.13A4,4,0,0,0,110.66,152.27Z"/></svg>