<svg xmlns="http://www.w3.org/2000/svg" viewBox="0 0 256 256" fill="currentColor"><path d="M178.83,165.17a4,4,0,0,1-5.66,5.66L160,157.66l-13.17,13.17a4,4,0,0,1-5.66,0L128,157.66l-13.17,13.17a4,4,0,0,1-5.66,0L96,157.66,82.83,170.83a4,4,0,0,1-5.66-5.66l16-16a4,4,0,0,1,5.66,0L112,162.34l13.17-13.17a4,4,0,0,1,5.66,0L144,162.34l13.17-13.17a4,4,0,0,1,5.66,0ZM228,128A100,100,0,1,1,128,28,100.11,100.11,0,0,1,228,128Zm-8,0a92,92,0,1,0-92,92A92.1,92.1,0,0,0,220,128ZM92,116a8,8,0,1,0-8-8A8,8,0,0,0,92,116Zm72,0a8,8,0,1,0-8-8A8,8,0,0,0,164,116Z"/></svg>