<svg xmlns="http://www.w3.org/2000/svg" viewBox="0 0 256 256" fill="currentColor"><path d="M196.2,132.81l-51.66-19a3.91,3.91,0,0,1-2.32-2.32l-19-51.66a11.93,11.93,0,0,0-22.38,0l-19,51.66a3.91,3.91,0,0,1-2.32,2.32l-51.66,19a11.93,11.93,0,0,0,0,22.38l51.66,19a3.91,3.91,0,0,1,2.32,2.32l19,51.66a11.93,11.93,0,0,0,22.38,0l19-51.66a3.91,3.91,0,0,1,2.32-2.32l51.66-19a11.93,11.93,0,0,0,0-22.38Zm-2.77,14.87-51.65,19a11.93,11.93,0,0,0-7.07,7.07l-19,51.65a3.92,3.92,0,0,1-7.36,0l-19-51.65a11.93,11.93,0,0,0-7.07-7.07h0l-51.65-19a3.92,3.92,0,0,1,0-7.36l51.65-19a11.93,11.93,0,0,0,7.07-7.07l19-51.65a3.92,3.92,0,0,1,7.36,0l19,51.65a11.93,11.93,0,0,0,7.07,7.07l51.65,19a3.92,3.92,0,0,1,0,7.36ZM148,40a4,4,0,0,1,4-4h20V16a4,4,0,0,1,8,0V36h20a4,4,0,0,1,0,8H180V64a4,4,0,0,1-8,0V44H152A4,4,0,0,1,148,40Zm96,48a4,4,0,0,1-4,4H228v12a4,4,0,0,1-8,0V92H208a4,4,0,0,1,0-8h12V72a4,4,0,0,1,8,0V84h12A4,4,0,0,1,244,88Z"/></svg>