<svg xmlns="http://www.w3.org/2000/svg" viewBox="0 0 256 256" fill="currentColor"><path d="M231.86,111.36l-5.24,4.57a4,4,0,0,1-5.26-6l5.24-4.57a4,4,0,0,0,1.18-4.32,4,4,0,0,0-3.44-2.75l-8.69-.75a4,4,0,1,1,.69-8l8.69.75a12,12,0,0,1,6.83,21.07Zm-54.18,45.12,2.87,12.41a4,4,0,1,0,7.79-1.8l-2.86-12.41a4,4,0,0,1,1.28-4l7.86-6.86a4,4,0,1,0-5.26-6l-7.86,6.86A12,12,0,0,0,177.68,156.48Zm-2-62.43-10.76-.93a12,12,0,0,1-10-7.31L132,31.27V187.34a11.74,11.74,0,0,1,2.19,1l11.88,7.21a4,4,0,1,1-4.15,6.84L130,195.2a3.89,3.89,0,0,0-4.08,0l-51.1,31a12,12,0,0,1-17.86-13l13.52-58.54a4,4,0,0,0-1.28-4l-45.1-39.35A12,12,0,0,1,31,90.29l59.45-5.14a4,4,0,0,0,3.32-2.44L117,27.36a11.95,11.95,0,0,1,22.06,0l23.23,55.35a4,4,0,0,0,3.32,2.44l10.76.93a4,4,0,1,1-.69,8Zm-53.84,94.31a11.74,11.74,0,0,1,2.19-1V31.27L101.12,85.81a12,12,0,0,1-10,7.31L31.66,98.26A4,4,0,0,0,28.22,101a4,4,0,0,0,1.18,4.32l45.1,39.35a12,12,0,0,1,3.82,11.8L64.8,215a4,4,0,0,0,1.56,4.2,3.86,3.86,0,0,0,4.35.17Zm73.92,10.73a4,4,0,1,0-7.79,1.8L191.2,215a4,4,0,0,1-1.56,4.2,3.86,3.86,0,0,1-4.35.17l-11.23-6.82a4,4,0,0,0-4.15,6.84l11.23,6.82a12,12,0,0,0,17.86-13Z"/></svg>