<svg xmlns="http://www.w3.org/2000/svg" viewBox="0 0 256 256" fill="currentColor"><path d="M28,112a36,36,0,0,0,16,29.92V208a12,12,0,0,0,12,12H200a12,12,0,0,0,12-12V141.92A36,36,0,0,0,228,112l0-16a4.09,4.09,0,0,0-.13-1.1L213.5,44.7A12,12,0,0,0,202,36H54A12,12,0,0,0,42.5,44.7L28.15,94.9A4.09,4.09,0,0,0,28,96ZM50.19,46.9A4,4,0,0,1,54,44H202a4,4,0,0,1,3.84,2.9L218.7,92H37.3ZM100,100h56v12a28,28,0,0,1-56,0ZM36,112V100H92v12a28,28,0,0,1-56,0Zm168,96a4,4,0,0,1-4,4H56a4,4,0,0,1-4-4V145.94a36,36,0,0,0,44-17.48,36,36,0,0,0,64,0,36,36,0,0,0,44,17.48Zm-12-68a28,28,0,0,1-28-28V100h56v12A28,28,0,0,1,192,140Z"/></svg>