<svg xmlns="http://www.w3.org/2000/svg" viewBox="0 0 256 256" fill="currentColor"><path d="M227.27,152.07,208.19,99.85a12,12,0,0,0-15.34-7.13l-74.3,26.92,13.27-75.83a12,12,0,0,0-9.68-13.9L67.47,20.19a11.75,11.75,0,0,0-8.89,2,11.9,11.9,0,0,0-4.94,7.77l-25,143.13A40,40,0,0,0,60.8,219.39,42.68,42.68,0,0,0,68,220H216a12,12,0,0,0,12-12V156.19A14,14,0,0,0,227.27,152.07Zm-31.7-51.83a4,4,0,0,1,5.1,2.36l19.09,52.21a3.9,3.9,0,0,1-.13,3,3.94,3.94,0,0,1-2.24,2L100.78,202.11a40,40,0,0,0,6-15.17L117,128.73ZM85.75,206.29a31.25,31.25,0,0,1-23.55,5.22,32,32,0,0,1-25.71-37.08l25-143.13a4,4,0,0,1,1.64-2.59A3.85,3.85,0,0,1,65.38,28a4,4,0,0,1,.69.06l54.67,9.73a4,4,0,0,1,3.2,4.64l-25,143.13h0A31.79,31.79,0,0,1,85.75,206.29ZM220,208a4,4,0,0,1-4,4H97l123-44.59ZM76,180a8,8,0,1,1-8-8A8,8,0,0,1,76,180Z"/></svg>