<svg xmlns="http://www.w3.org/2000/svg" viewBox="0 0 256 256" fill="currentColor"><path d="M240,116H226.32L197.78,66.05a12,12,0,0,0-10.42-6H162.71l-13-32.46A12,12,0,0,0,138.58,20H117.42a12,12,0,0,0-11.15,7.54L93.29,60H68.64a12,12,0,0,0-10.42,6L29.68,116H16a4,4,0,0,0,0,8H28v84a12,12,0,0,0,12,12H64a12,12,0,0,0,12-12V188H180v20a12,12,0,0,0,12,12h24a12,12,0,0,0,12-12V124h12a4,4,0,0,0,0-8ZM113.7,30.51A4,4,0,0,1,117.42,28h21.16a4,4,0,0,1,3.72,2.51L154.09,60H101.91ZM65.17,70a4,4,0,0,1,3.47-2H187.36a4,4,0,0,1,3.47,2l26.28,46H38.89ZM68,208a4,4,0,0,1-4,4H40a4,4,0,0,1-4-4V188H68Zm148,4H192a4,4,0,0,1-4-4V188h32v20A4,4,0,0,1,216,212Zm4-32H36V124H220ZM60,152a4,4,0,0,1,4-4H80a4,4,0,0,1,0,8H64A4,4,0,0,1,60,152Zm112,0a4,4,0,0,1,4-4h16a4,4,0,0,1,0,8H176A4,4,0,0,1,172,152Z"/></svg>