<svg xmlns="http://www.w3.org/2000/svg" viewBox="0 0 256 256" fill="currentColor"><path d="M226.4,100.56A12,12,0,0,0,236,88.81V64a12,12,0,0,0-12-12H32A12,12,0,0,0,20,64V88.81a12,12,0,0,0,9.6,11.75,28,28,0,0,1,0,54.88A12,12,0,0,0,20,167.19V192a12,12,0,0,0,12,12H224a12,12,0,0,0,12-12V167.19a12,12,0,0,0-9.6-11.75,28,28,0,0,1,0-54.88ZM28,192V167.19a4,4,0,0,1,3.2-3.91,36,36,0,0,0,0-70.56A4,4,0,0,1,28,88.81V64a4,4,0,0,1,4-4H92V196H32A4,4,0,0,1,28,192Zm168-64a36.09,36.09,0,0,0,28.8,35.28,4,4,0,0,1,3.2,3.91V192a4,4,0,0,1-4,4H100V60H224a4,4,0,0,1,4,4V88.81a4,4,0,0,1-3.2,3.91A36.09,36.09,0,0,0,196,128Z"/></svg>