<svg xmlns="http://www.w3.org/2000/svg" viewBox="0 0 256 256" fill="currentColor"><path d="M196.42,66.23a4,4,0,0,1-2-2.09,72,72,0,0,0-132.82,0,4,4,0,0,1-2,2.09A68.23,68.23,0,0,0,20,127.81c-.1,36.66,29.62,67.24,66.25,68.17A67.74,67.74,0,0,0,124,185.67V232a4,4,0,0,0,8,0V185.67A67.47,67.47,0,0,0,168,196l1.76,0c36.62-.93,66.34-31.51,66.24-68.17A68.23,68.23,0,0,0,196.42,66.23ZM169.55,188A59.43,59.43,0,0,1,134.7,177.9a12.39,12.39,0,0,0-2.7-1.35V130.47l45.79-22.89a4,4,0,1,0-3.58-7.16L132,121.53V88a4,4,0,0,0-8,0v57.53L81.79,124.42a4,4,0,1,0-3.58,7.16L124,154.47v22.08a12.39,12.39,0,0,0-2.7,1.35A59.36,59.36,0,0,1,86.45,188,60,60,0,0,1,62.93,73.49a11.92,11.92,0,0,0,6-6.25,64,64,0,0,1,118.08,0,11.92,11.92,0,0,0,6,6.25A60,60,0,0,1,169.55,188Z"/></svg>