<svg xmlns="http://www.w3.org/2000/svg" viewBox="0 0 256 256" fill="currentColor"><path d="M168,108h48a12,12,0,0,0,12-12V48a12,12,0,0,0-12-12H168a12,12,0,0,0-12,12V68H144a28,28,0,0,0-28,28v28H76V112a12,12,0,0,0-12-12H32a12,12,0,0,0-12,12v32a12,12,0,0,0,12,12H64a12,12,0,0,0,12-12V132h40v28a28,28,0,0,0,28,28h12v20a12,12,0,0,0,12,12h48a12,12,0,0,0,12-12V160a12,12,0,0,0-12-12H168a12,12,0,0,0-12,12v20H144a20,20,0,0,1-20-20V96a20,20,0,0,1,20-20h12V96A12,12,0,0,0,168,108ZM68,144a4,4,0,0,1-4,4H32a4,4,0,0,1-4-4V112a4,4,0,0,1,4-4H64a4,4,0,0,1,4,4Zm96,16a4,4,0,0,1,4-4h48a4,4,0,0,1,4,4v48a4,4,0,0,1-4,4H168a4,4,0,0,1-4-4Zm0-112a4,4,0,0,1,4-4h48a4,4,0,0,1,4,4V96a4,4,0,0,1-4,4H168a4,4,0,0,1-4-4Z"/></svg>