<svg xmlns="http://www.w3.org/2000/svg" viewBox="0 0 256 256" fill="currentColor"><path d="M243.71,118.52l-14-35A12,12,0,0,0,218.58,76H180V64a4,4,0,0,0-4-4H24A12,12,0,0,0,12,72V184a12,12,0,0,0,12,12H44.29a28,28,0,0,0,55.42,0h56.58a28,28,0,0,0,55.42,0H232a12,12,0,0,0,12-12V120A4,4,0,0,0,243.71,118.52ZM180,84h38.58a4,4,0,0,1,3.72,2.51L234.09,116H180ZM20,72a4,4,0,0,1,4-4H172v72H20ZM72,212a20,20,0,1,1,20-20A20,20,0,0,1,72,212Zm84.29-24H99.71a28,28,0,0,0-55.42,0H24a4,4,0,0,1-4-4V148H172v18.71A28.05,28.05,0,0,0,156.29,188ZM184,212a20,20,0,1,1,20-20A20,20,0,0,1,184,212Zm52-28a4,4,0,0,1-4,4H211.71A28,28,0,0,0,180,164.29V124h56Z"/></svg>