<svg xmlns="http://www.w3.org/2000/svg" viewBox="0 0 256 256" fill="currentColor"><path d="M220,48V76a4,4,0,0,1-8,0V48a4,4,0,0,0-4-4H180a4,4,0,0,1,0-8h28A12,12,0,0,1,220,48Zm-4,128a4,4,0,0,0-4,4v28a4,4,0,0,1-4,4H180a4,4,0,0,0,0,8h28a12,12,0,0,0,12-12V180A4,4,0,0,0,216,176ZM76,212H48a4,4,0,0,1-4-4V180a4,4,0,0,0-8,0v28a12,12,0,0,0,12,12H76a4,4,0,0,0,0-8ZM40,80a4,4,0,0,0,4-4V48a4,4,0,0,1,4-4H76a4,4,0,0,0,0-8H48A12,12,0,0,0,36,48V76A4,4,0,0,0,40,80Zm136,92a4,4,0,0,1-3.2-1.6,56,56,0,0,0-89.6,0,4,4,0,1,1-6.4-4.8,63.65,63.65,0,0,1,32.5-22.85,36,36,0,1,1,37.4,0,63.65,63.65,0,0,1,32.5,22.85A4,4,0,0,1,176,172Zm-48-32a28,28,0,1,0-28-28A28,28,0,0,0,128,140Z"/></svg>