<svg xmlns="http://www.w3.org/2000/svg" viewBox="0 0 256 256" fill="currentColor"><path d="M251,117.4,205.47,64.3a12,12,0,0,0-9.21-4.3H32A12,12,0,0,0,20,72V184a12,12,0,0,0,12,12H52.29a28,28,0,0,0,55.42,0h56.58a28,28,0,0,0,55.42,0H240a12,12,0,0,0,12-12V120A4,4,0,0,0,251,117.4ZM199.36,69.47,239.3,116H172V68h24.26A4,4,0,0,1,199.36,69.47ZM100,116V68h64v48ZM32,68H92v48H28V72A4,4,0,0,1,32,68ZM80,212a20,20,0,1,1,20-20A20,20,0,0,1,80,212Zm112,0a20,20,0,1,1,20-20A20,20,0,0,1,192,212Zm48-24H219.71a28,28,0,0,0-55.42,0H107.71a28,28,0,0,0-55.42,0H32a4,4,0,0,1-4-4V124H244v60A4,4,0,0,1,240,188Z"/></svg>