<svg xmlns="http://www.w3.org/2000/svg" viewBox="0 0 256 256" fill="currentColor"><path d="M37.16,74.81a4,4,0,0,1,0-5.64C37.87,68.47,54.72,52,88,52c17.21,0,29.92,8.48,42.22,16.67C142,76.55,153.21,84,168,84c29.77,0,45-14.69,45.18-14.84a4,4,0,0,1,5.65,5.67C218.13,75.53,201.28,92,168,92c-17.21,0-29.92-8.48-42.22-16.67C114,67.45,102.79,60,88,60,58.23,60,43,74.69,42.82,74.84A4,4,0,0,1,37.16,74.81Zm176,50.35C213,125.31,197.77,140,168,140c-14.79,0-26-7.45-37.78-15.33C117.92,116.48,105.21,108,88,108c-33.28,0-50.13,16.47-50.83,17.17a4,4,0,0,0,5.65,5.67C43,130.69,58.23,116,88,116c14.79,0,26,7.45,37.78,15.33,12.3,8.19,25,16.67,42.22,16.67,33.28,0,50.13-16.47,50.83-17.17a4,4,0,0,0-5.65-5.67Zm0,56C213,181.31,197.77,196,168,196c-14.79,0-26-7.45-37.78-15.33C117.92,172.48,105.21,164,88,164c-33.28,0-50.13,16.47-50.83,17.17a4,4,0,0,0,5.65,5.67C43,186.69,58.23,172,88,172c14.79,0,26,7.45,37.78,15.33,12.3,8.19,25,16.67,42.22,16.67,33.28,0,50.13-16.47,50.83-17.17a4,4,0,0,0-5.65-5.67Z"/></svg>