<svg xmlns="http://www.w3.org/2000/svg" viewBox="0 0 256 256" fill="currentColor"><path d="M136,204a8,8,0,1,1-8-8A8,8,0,0,1,136,204ZM205.66,80l21.17-21.17a4,4,0,1,0-5.66-5.66L200,74.34,178.83,53.17a4,4,0,0,0-5.66,5.66L194.34,80l-21.17,21.17a4,4,0,0,0,5.66,5.66L200,85.66l21.17,21.17a4,4,0,1,0,5.66-5.66Zm-35.31,81.77a72,72,0,0,0-84.71,0,4,4,0,0,0,4.71,6.46,64.05,64.05,0,0,1,75.29,0,4,4,0,1,0,4.71-6.46Zm-26.74-101a4,4,0,1,0,.78-8C139,52.27,133.46,52,128,52A168.33,168.33,0,0,0,21.46,90.09a4,4,0,1,0,5.08,6.19A160.22,160.22,0,0,1,128,60C133.21,60,138.46,60.25,143.61,60.75Zm-.16,48.31a4,4,0,0,0,1.1-7.93A121.84,121.84,0,0,0,128,100a118.72,118.72,0,0,0-74.48,25.91,4,4,0,0,0,5,6.27A110.84,110.84,0,0,1,128,108,113.6,113.6,0,0,1,143.45,109.06Z"/></svg>