<svg xmlns="http://www.w3.org/2000/svg" viewBox="0 0 256 256" fill="currentColor"><path d="M216,140H136a4,4,0,0,0-4,4v57.45a4,4,0,0,0,3.28,3.94l80,14.55a4.37,4.37,0,0,0,.72.06,4,4,0,0,0,2.56-.93A4,4,0,0,0,220,216V144A4,4,0,0,0,216,140Zm-4,71.21-72-13.09V148h72ZM104,140H40a4,4,0,0,0-4,4v40a4,4,0,0,0,3.28,3.94l64,11.63a3.51,3.51,0,0,0,.72.07,4,4,0,0,0,4-4V144A4,4,0,0,0,104,140Zm-4,50.84L44,180.66V148h56ZM218.56,36.93a4,4,0,0,0-3.28-.87l-80,14.55A4,4,0,0,0,132,54.55V112a4,4,0,0,0,4,4h80a4,4,0,0,0,4-4V40A4,4,0,0,0,218.56,36.93ZM212,108H140V57.88l72-13.09ZM103.28,56.43l-64,11.63A4,4,0,0,0,36,72v40a4,4,0,0,0,4,4h64a4,4,0,0,0,4-4V60.36a4,4,0,0,0-4.72-3.93ZM100,108H44V75.34l56-10.18Z"/></svg>