<svg xmlns="http://www.w3.org/2000/svg" viewBox="0 0 256 256"><rect width="256" height="256" fill="none"/><path d="M88,207.3A96,96,0,0,1,32,120H224a96,96,0,0,1-56,87.3V216a8,8,0,0,1-8,8H96a8,8,0,0,1-8-8Z" fill="none" stroke="currentColor" stroke-linecap="round" stroke-linejoin="round" stroke-width="16"/><path d="M168,88s-18-5.6,0-28,0-28,0-28" fill="none" stroke="currentColor" stroke-linecap="round" stroke-linejoin="round" stroke-width="16"/><path d="M128,88s-18-5.6,0-28,0-28,0-28" fill="none" stroke="currentColor" stroke-linecap="round" stroke-linejoin="round" stroke-width="16"/><path d="M88,88s-18-5.6,0-28,0-28,0-28" fill="none" stroke="currentColor" stroke-linecap="round" stroke-linejoin="round" stroke-width="16"/></svg>