<svg xmlns="http://www.w3.org/2000/svg" viewBox="0 0 256 256" fill="currentColor"><path d="M213.38,221.92a8,8,0,0,1-11.3-.54l-26.45-29.1L124.8,230.4a8,8,0,0,1-8.91.46,8.32,8.32,0,0,1-3.89-7.18V144L60.8,182.4a8,8,0,0,1-11.16-1.55,8.27,8.27,0,0,1,1.8-11.43l61.48-46.11L42.08,45.38A8,8,0,1,1,53.92,34.62l160,176A8,8,0,0,1,213.38,221.92ZM144.55,110.53a8,8,0,0,0,10.72,1l33.35-25a8.31,8.31,0,0,0,3-4.08,8,8,0,0,0-2.82-8.85l-64-48a8,8,0,0,0-10,.3A8.24,8.24,0,0,0,112,32.24V71.63A8,8,0,0,0,114.08,77Z"/></svg>