<svg xmlns="http://www.w3.org/2000/svg" viewBox="0 0 256 256" fill="currentColor"><path d="M128,24l32,32H96Zm0,208,32-32H96ZM200,96v64l32-32ZM24,128l32,32V96Z" opacity="0.2"/><path d="M96,64h24V96a8,8,0,0,0,16,0V64h24a8,8,0,0,0,5.66-13.66l-32-32a8,8,0,0,0-11.32,0l-32,32A8,8,0,0,0,96,64Zm32-28.69L140.69,48H115.31ZM160,192H136V160a8,8,0,0,0-16,0v32H96a8,8,0,0,0-5.66,13.66l32,32a8,8,0,0,0,11.32,0l32-32A8,8,0,0,0,160,192Zm-32,28.69L115.31,208h25.38Zm109.66-98.35-32-32A8,8,0,0,0,192,96v24H160a8,8,0,0,0,0,16h32v24a8,8,0,0,0,13.66,5.66l32-32A8,8,0,0,0,237.66,122.34ZM208,140.69V115.31L220.69,128ZM96,136a8,8,0,0,0,0-16H64V96a8,8,0,0,0-13.66-5.66l-32,32a8,8,0,0,0,0,11.32l32,32A8,8,0,0,0,64,160V136Zm-48,4.69L35.31,128,48,115.31Z"/></svg>