<svg xmlns="http://www.w3.org/2000/svg" viewBox="0 0 256 256" fill="currentColor"><path d="M192,104H152V64Zm-88,88V152H64Zm48,0,40-40H152Zm-48-88V64L64,104Z" opacity="0.2"/><path d="M152,112h40a8,8,0,0,0,5.66-13.66L183.31,84l30.35-30.34a8,8,0,0,0-11.32-11.32L172,72.69,157.66,58.34A8,8,0,0,0,144,64v40A8,8,0,0,0,152,112Zm8-28.69L172.69,96H160ZM104,144H64a8,8,0,0,0-5.66,13.66L72.69,172,42.34,202.34a8,8,0,0,0,11.32,11.32L84,183.31l14.34,14.35A8,8,0,0,0,112,192V152A8,8,0,0,0,104,144Zm-8,28.69L83.31,160H96Zm87.31-.69,14.35-14.34A8,8,0,0,0,192,144H152a8,8,0,0,0-8,8v40a8,8,0,0,0,13.66,5.66L172,183.31l30.34,30.35a8,8,0,0,0,11.32-11.32Zm-23.31.69V160h12.69ZM107.06,56.61a8,8,0,0,0-8.72,1.73L84,72.69,53.66,42.34A8,8,0,0,0,42.34,53.66L72.69,84,58.34,98.34A8,8,0,0,0,64,112h40a8,8,0,0,0,8-8V64A8,8,0,0,0,107.06,56.61ZM96,96H83.31L96,83.31Z"/></svg>