<svg xmlns="http://www.w3.org/2000/svg" viewBox="0 0 256 256" fill="currentColor"><path d="M208,48V96L160,48ZM48,208H96L48,160Zm160,0V160l-48,48ZM48,96,96,48H48Z" opacity="0.2"/><path d="M98.34,146.34,72,172.69,53.66,154.34A8,8,0,0,0,40,160v48a8,8,0,0,0,8,8H96a8,8,0,0,0,5.66-13.66L83.31,184l26.35-26.34a8,8,0,0,0-11.32-11.32ZM56,200V179.31L76.69,200ZM83.31,72l18.35-18.34A8,8,0,0,0,96,40H48a8,8,0,0,0-8,8V96a8,8,0,0,0,13.66,5.66L72,83.31l26.34,26.35a8,8,0,0,0,11.32-11.32ZM56,76.69V56H76.69ZM208,40H160a8,8,0,0,0-5.66,13.66L172.69,72,146.34,98.34a8,8,0,0,0,11.32,11.32L184,83.31l18.34,18.35A8,8,0,0,0,216,96V48A8,8,0,0,0,208,40Zm-8,36.69L179.31,56H200Zm11.06,75.92a8,8,0,0,0-8.72,1.73L184,172.69l-26.34-26.35a8,8,0,0,0-11.32,11.32L172.69,184l-18.35,18.34A8,8,0,0,0,160,216h48a8,8,0,0,0,8-8V160A8,8,0,0,0,211.06,152.61ZM200,200H179.31L200,179.31Z"/></svg>