<svg xmlns="http://www.w3.org/2000/svg" viewBox="0 0 256 256" fill="currentColor"><path d="M192,112H144V64Zm-80,80V144H64Z" opacity="0.2"/><path d="M213.66,42.34a8,8,0,0,0-11.32,0L168,76.69,149.66,58.34A8,8,0,0,0,136,64v48a8,8,0,0,0,8,8h48a8,8,0,0,0,5.66-13.66L179.31,88l34.35-34.34A8,8,0,0,0,213.66,42.34ZM152,104V83.31L172.69,104Zm-40,32H64a8,8,0,0,0-5.66,13.66L76.69,168,42.34,202.34a8,8,0,0,0,11.32,11.32L88,179.31l18.34,18.35A8,8,0,0,0,120,192V144A8,8,0,0,0,112,136Zm-8,36.69L83.31,152H104Z"/></svg>