<svg xmlns="http://www.w3.org/2000/svg" viewBox="0 0 256 256" fill="currentColor"><path d="M128,96,96,64h64ZM96,192h64l-32-32Zm64-64,32,32V96ZM64,96v64l32-32Z" opacity="0.2"/><path d="M122.34,101.66a8,8,0,0,0,11.32,0l32-32A8,8,0,0,0,160,56H136V24a8,8,0,0,0-16,0V56H96a8,8,0,0,0-5.66,13.66ZM140.69,72,128,84.69,115.31,72Zm-7,82.34a8,8,0,0,0-11.32,0l-32,32A8,8,0,0,0,96,200h24v32a8,8,0,0,0,16,0V200h24a8,8,0,0,0,5.66-13.66ZM115.31,184,128,171.31,140.69,184ZM232,120H200V96a8,8,0,0,0-13.66-5.66l-32,32a8,8,0,0,0,0,11.32l32,32A8,8,0,0,0,200,160V136h32a8,8,0,0,0,0-16Zm-48,20.69L171.31,128,184,115.31Zm-82.34-18.35-32-32A8,8,0,0,0,56,96v24H24a8,8,0,0,0,0,16H56v24a8,8,0,0,0,13.66,5.66l32-32A8,8,0,0,0,101.66,122.34ZM72,140.69V115.31L84.69,128Z"/></svg>