<svg xmlns="http://www.w3.org/2000/svg" viewBox="0 0 256 256" fill="currentColor"><path d="M160,48H96l32-32ZM128,240l32-32H96Z" opacity="0.2"/><path d="M224,128a8,8,0,0,1-8,8H40a8,8,0,0,1,0-16H216A8,8,0,0,1,224,128ZM88.61,51.06a8,8,0,0,1,1.73-8.72l32-32a8,8,0,0,1,11.32,0l32,32A8,8,0,0,1,160,56H136V96a8,8,0,0,1-16,0V56H96A8,8,0,0,1,88.61,51.06ZM115.31,40h25.38L128,27.31Zm52.08,164.94a8,8,0,0,1-1.73,8.72l-32,32a8,8,0,0,1-11.32,0l-32-32A8,8,0,0,1,96,200h24V160a8,8,0,0,1,16,0v40h24A8,8,0,0,1,167.39,204.94ZM140.69,216H115.31L128,228.69Z"/></svg>