<svg xmlns="http://www.w3.org/2000/svg" viewBox="0 0 256 256" fill="currentColor"><path d="M16,128,48,96v64ZM208,96v64l32-32Z" opacity="0.2"/><path d="M136,40V216a8,8,0,0,1-16,0V40a8,8,0,0,1,16,0Zm-32,88a8,8,0,0,1-8,8H56v24a8,8,0,0,1-13.66,5.66l-32-32a8,8,0,0,1,0-11.32l32-32A8,8,0,0,1,56,96v24H96A8,8,0,0,1,104,128ZM40,115.31,27.31,128,40,140.69Zm205.66,18.35-32,32A8,8,0,0,1,200,160V136H160a8,8,0,0,1,0-16h40V96a8,8,0,0,1,13.66-5.66l32,32A8,8,0,0,1,245.66,133.66Zm-17-5.66L216,115.31v25.38Z"/></svg>