<svg xmlns="http://www.w3.org/2000/svg" viewBox="0 0 256 256" fill="currentColor"><path d="M224,56V184a8,8,0,0,1-8,8H156.53a8,8,0,0,0-6.86,3.88l-14.81,24.24a8,8,0,0,1-13.72,0l-14.81-24.24A8,8,0,0,0,99.47,192H40a8,8,0,0,1-8-8V56a8,8,0,0,1,8-8H216A8,8,0,0,1,224,56Z" opacity="0.2"/><path d="M88,104a8,8,0,0,1,8-8h64a8,8,0,0,1,0,16H96A8,8,0,0,1,88,104Zm8,40h64a8,8,0,0,0,0-16H96a8,8,0,0,0,0,16ZM232,56V184a16,16,0,0,1-16,16H156.53l-14.84,24.29a16,16,0,0,1-27.41-.06L99.47,200H40a16,16,0,0,1-16-16V56A16,16,0,0,1,40,40H216A16,16,0,0,1,232,56Zm-16,0H40V184H99.47a16.08,16.08,0,0,1,13.7,7.73L128,216l14.82-24.32A16.07,16.07,0,0,1,156.53,184H216Z"/></svg>