<svg xmlns="http://www.w3.org/2000/svg" viewBox="0 0 256 256" fill="currentColor"><path d="M224,56V184a8,8,0,0,1-8,8H156.53a8,8,0,0,0-6.86,3.88l-14.81,24.24a8,8,0,0,1-13.72,0l-14.81-24.24A8,8,0,0,0,99.47,192H40a8,8,0,0,1-8-8V56a8,8,0,0,1,8-8H216A8,8,0,0,1,224,56Z" opacity="0.2"/><path d="M216,40H40A16,16,0,0,0,24,56V184a16,16,0,0,0,16,16H99.47l14.81,24.23a16,16,0,0,0,27.41.06L156.53,200H216a16,16,0,0,0,16-16V56A16,16,0,0,0,216,40Zm0,144H156.53a16.07,16.07,0,0,0-13.69,7.71L128,216l-14.85-24.3A16.08,16.08,0,0,0,99.47,184H40V56H216Z"/></svg>