<svg xmlns="http://www.w3.org/2000/svg" viewBox="0 0 256 256" fill="currentColor"><path d="M237.66,85.26l-128.4,128.4a8,8,0,0,1-11.32,0l-71.6-72a8,8,0,0,1,0-11.31l24-24a8,8,0,0,1,11.32,0l36.68,35.32a8,8,0,0,0,11.32,0l92.68-91.32a8,8,0,0,1,11.32,0l24,23.6A8,8,0,0,1,237.66,85.26Z" opacity="0.2"/><path d="M243.28,68.24l-24-23.56a16,16,0,0,0-22.58,0L104,136h0l-.11-.11L67.25,100.62a16,16,0,0,0-22.57.06l-24,24a16,16,0,0,0,0,22.61l71.62,72a16,16,0,0,0,22.63,0L243.33,90.91A16,16,0,0,0,243.28,68.24ZM103.62,208,32,136l24-24,.11.11,36.64,35.27a16,16,0,0,0,22.52,0L208.06,56,232,79.6Z"/></svg>