<svg xmlns="http://www.w3.org/2000/svg" viewBox="0 0 256 256" fill="currentColor"><path d="M208,48V88L168,48ZM48,208H88L48,168Zm160,0V168l-40,40ZM48,88,88,48H48Z" opacity="0.2"/><path d="M208,40H168a8,8,0,0,0-5.66,13.66l40,40A8,8,0,0,0,216,88V48A8,8,0,0,0,208,40Zm-8,28.69L187.31,56H200ZM53.66,162.34A8,8,0,0,0,40,168v40a8,8,0,0,0,8,8H88a8,8,0,0,0,5.66-13.66ZM56,200V187.31L68.69,200Zm155.06-39.39a8,8,0,0,0-8.72,1.73l-40,40A8,8,0,0,0,168,216h40a8,8,0,0,0,8-8V168A8,8,0,0,0,211.06,160.61ZM200,200H187.31L200,187.31ZM88,40H48a8,8,0,0,0-8,8V88a8,8,0,0,0,13.66,5.66l40-40A8,8,0,0,0,88,40ZM56,68.69V56H68.69Z"/></svg>