<svg xmlns="http://www.w3.org/2000/svg" viewBox="0 0 256 256" fill="currentColor"><path d="M208,96H160V48ZM96,208V160H48Zm64,0,48-48H160ZM96,96V48L48,96Z" opacity="0.2"/><path d="M160,104h48a8,8,0,0,0,5.66-13.66l-48-48A8,8,0,0,0,152,48V96A8,8,0,0,0,160,104Zm8-36.69L188.69,88H168ZM96,152H48a8,8,0,0,0-5.66,13.66l48,48A8,8,0,0,0,104,208V160A8,8,0,0,0,96,152Zm-8,36.69L67.31,168H88ZM208,152H160a8,8,0,0,0-8,8v48a8,8,0,0,0,13.66,5.66l48-48A8,8,0,0,0,208,152Zm-40,36.69V168h20.69ZM99.06,40.61a8,8,0,0,0-8.72,1.73l-48,48A8,8,0,0,0,48,104H96a8,8,0,0,0,8-8V48A8,8,0,0,0,99.06,40.61ZM88,88H67.31L88,67.31Z"/></svg>