<svg xmlns="http://www.w3.org/2000/svg" viewBox="0 0 256 256" fill="currentColor"><path d="M208,88v32a8,8,0,0,1-8,8H160a8,8,0,0,0-8,8v88a8,8,0,0,1-8,8H112a8,8,0,0,1-8-8V136a8,8,0,0,0-8-8H56a8,8,0,0,1-8-8V88a8,8,0,0,1,8-8H96a8,8,0,0,0,8-8V32a8,8,0,0,1,8-8h32a8,8,0,0,1,8,8V72a8,8,0,0,0,8,8h40A8,8,0,0,1,208,88Z" opacity="0.2"/><path d="M200,72H160V32a16,16,0,0,0-16-16H112A16,16,0,0,0,96,32V72H56A16,16,0,0,0,40,88v32a16,16,0,0,0,16,16H96v88a16,16,0,0,0,16,16h32a16,16,0,0,0,16-16V136h40a16,16,0,0,0,16-16V88A16,16,0,0,0,200,72Zm0,48H160a16,16,0,0,0-16,16v88H112V136a16,16,0,0,0-16-16H56V88H96a16,16,0,0,0,16-16V32h32V72a16,16,0,0,0,16,16h40Z"/></svg>