<svg xmlns="http://www.w3.org/2000/svg" viewBox="0 0 256 256" fill="currentColor"><path d="M216,176v24a8,8,0,0,1-8,8H48a8,8,0,0,1-8-8V176a8,8,0,0,1,8-8H208A8,8,0,0,1,216,176ZM48.23,136H207.77c7.16,0,10.89-8.27,6-13.37l-73.74-77.5a16.76,16.76,0,0,0-24.14,0l-73.74,77.5C37.34,127.73,41.07,136,48.23,136Z" opacity="0.2"/><path d="M208,160H48a16,16,0,0,0-16,16v24a16,16,0,0,0,16,16H208a16,16,0,0,0,16-16V176A16,16,0,0,0,208,160Zm0,40H48V176H208ZM48.24,144H207.76a16.18,16.18,0,0,0,14.93-9.76,15.59,15.59,0,0,0-3.1-17.12L145.86,39.61a24.76,24.76,0,0,0-35.72,0L36.41,117.12h0a15.59,15.59,0,0,0-3.1,17.12A16.18,16.18,0,0,0,48.24,144Zm73.49-93.36a8.77,8.77,0,0,1,12.54,0L207.85,128H48.14Z"/></svg>