<svg xmlns="http://www.w3.org/2000/svg" viewBox="0 0 256 256" fill="currentColor"><path d="M24,128H72v64H24Zm80,64h48V160H104Zm80-96v96h48V96Z" opacity="0.2"/><path d="M80,96a8,8,0,0,1-8,8H24a8,8,0,0,1,0-16H72A8,8,0,0,1,80,96Zm72,24H104a8,8,0,0,0,0,16h48a8,8,0,0,0,0-16Zm32-48h48a8,8,0,0,0,0-16H184a8,8,0,0,0,0,16ZM80,128v64a8,8,0,0,1-8,8H24a8,8,0,0,1-8-8V128a8,8,0,0,1,8-8H72A8,8,0,0,1,80,128Zm-16,8H32v48H64Zm96,24v32a8,8,0,0,1-8,8H104a8,8,0,0,1-8-8V160a8,8,0,0,1,8-8h48A8,8,0,0,1,160,160Zm-16,8H112v16h32Zm96-72v96a8,8,0,0,1-8,8H184a8,8,0,0,1-8-8V96a8,8,0,0,1,8-8h48A8,8,0,0,1,240,96Zm-16,8H192v80h32Z"/></svg>