<svg xmlns="http://www.w3.org/2000/svg" viewBox="0 0 256 256" fill="currentColor"><path d="M232,56V96a8,8,0,0,1-8,8H187.5a8,8,0,0,0-5.88,2.57L90.38,205.43A8,8,0,0,1,84.5,208H32a8,8,0,0,1-8-8V160a8,8,0,0,1,8-8H68.5a8,8,0,0,0,5.88-2.57l91.24-98.86A8,8,0,0,1,171.5,48H224A8,8,0,0,1,232,56Z" opacity="0.2"/><path d="M224,40H171.5a16,16,0,0,0-11.75,5.15L68.5,144H32a16,16,0,0,0-16,16v40a16,16,0,0,0,16,16H84.5a16,16,0,0,0,11.75-5.15L187.5,112H224a16,16,0,0,0,16-16V56A16,16,0,0,0,224,40Zm0,56H187.5a16,16,0,0,0-11.75,5.15L84.5,200H32V160H68.5a16,16,0,0,0,11.75-5.15L171.5,56H224Zm5.66,74.34a8,8,0,0,1-11.32,11.32L208,171.31V208a8,8,0,0,1-16,0V171.31l-10.34,10.35a8,8,0,0,1-11.32-11.32l24-24a8,8,0,0,1,11.32,0Z"/></svg>