<svg xmlns="http://www.w3.org/2000/svg" viewBox="0 0 256 256" fill="currentColor"><path d="M216,48v64c-19.89,17.23-38.23,18.39-56,13.48v-64C177.76,66.39,196.11,65.23,216,48ZM96,98.52v-64C78.24,29.61,59.89,30.77,40,48v64C59.89,94.78,78.23,93.61,96,98.52v56c21.62,6,42.38,21,64,27v-56c-21.62-6-42.38-21-64-27Z" opacity="0.2"/><path d="M219.32,40.75A8,8,0,0,0,210.76,42c-28,24.22-51.72,12.48-79.21-1.13C103.07,26.76,70.78,10.79,34.76,42A8,8,0,0,0,32,48V216a8,8,0,0,0,16,0V171.77c26.79-21.16,49.87-9.75,76.45,3.41,28.49,14.09,60.77,30.06,96.79-1.13a8,8,0,0,0,2.76-6V48A8,8,0,0,0,219.32,40.75ZM88,144.7a65.5,65.5,0,0,0-9.42-.71A60.06,60.06,0,0,0,48,152.43V115.78c14-11.06,27-13.22,40-10.88Zm0-56a60.06,60.06,0,0,0-40,7.75V51.78C62,40.72,75,38.57,88,40.91Zm64,81.63c-6.66-2.67-13.43-6-20.45-9.48-8.82-4.37-18-8.9-27.55-12.17v-39c6.66,2.66,13.43,6,20.45,9.48,8.82,4.37,18,8.9,27.55,12.17Zm0-56c-6.66-2.67-13.43-6-20.45-9.49-8.82-4.36-18-8.9-27.55-12.17v-47c6.66,2.66,13.43,6,20.45,9.48,8.82,4.36,18,8.9,27.55,12.17Zm56,49.92c-14,11.06-27,13.21-40,10.87v-39.8a65.5,65.5,0,0,0,9.42.72A60.11,60.11,0,0,0,208,127.57Zm0-56c-14,11.06-27,13.22-40,10.88V71.34a60.05,60.05,0,0,0,40-7.74Z"/></svg>