<svg xmlns="http://www.w3.org/2000/svg" viewBox="0 0 256 256" fill="currentColor"><path d="M128,80,98.13,102.4a8,8,0,0,1-4.8,1.6H32V64a8,8,0,0,1,8-8H93.33a8,8,0,0,1,4.8,1.6Z" opacity="0.2"/><path d="M216,72H130.67L102.93,51.2a16.12,16.12,0,0,0-9.6-3.2H40A16,16,0,0,0,24,64V200a16,16,0,0,0,16,16H216a16,16,0,0,0,16-16V88A16,16,0,0,0,216,72ZM40,64H93.33l21.34,16L93.33,96H40ZM216,200H40V112H93.33a16.12,16.12,0,0,0,9.6-3.2L130.67,88H216Zm-80-72v16h16a8,8,0,0,1,0,16H136v16a8,8,0,0,1-16,0V160H104a8,8,0,0,1,0-16h16V128a8,8,0,0,1,16,0Z"/></svg>