<svg xmlns="http://www.w3.org/2000/svg" viewBox="0 0 256 256" fill="currentColor"><path d="M24,160H88L55.12,214.8A7.91,7.91,0,0,1,52.38,212L25.05,164.15A8,8,0,0,1,24,160Zm144,0,32.88,54.8a7.91,7.91,0,0,0,2.74-2.83l27.32-47.82A8,8,0,0,0,232,160ZM100.43,40a8.06,8.06,0,0,0-3.84,1L128,93.33,159.41,41a8.07,8.07,0,0,0-3.85-1Z" opacity="0.2"/><path d="M237.6,151.78,169.13,39.52A15.91,15.91,0,0,0,155.56,32H100.43a15.89,15.89,0,0,0-13.56,7.52l-.05.07L18.44,151.7a16,16,0,0,0-.33,16.42l27.32,47.82A16,16,0,0,0,59.32,224H196.67a16,16,0,0,0,13.89-8.06l27.32-47.82A15.91,15.91,0,0,0,237.6,151.78ZM219,152H172.52L137.33,93.33l22.75-37.92Zm-116.87,0L128,108.88,153.87,152Zm61.34,16,24,40H68.53l24-40ZM128,77.78,110.12,48l35.78-.05ZM95.91,55.41l22.76,37.92L83.47,152H37ZM36.54,168H73.87L54.72,199.92Zm164.74,31.93L182.12,168h37.41Z"/></svg>