<svg xmlns="http://www.w3.org/2000/svg" viewBox="0 0 256 256" fill="currentColor"><path d="M128,72V216S24,160,24,94A54,54,0,0,1,78,40C100.59,40,119.94,52.31,128,72Z" opacity="0.2"/><path d="M178,32c-20.65,0-38.73,8.88-50,23.89C116.73,40.88,98.65,32,78,32A62.07,62.07,0,0,0,16,94c0,70,103.79,126.67,108.21,129a8,8,0,0,0,7.58,0C136.21,220.67,240,164,240,94A62.07,62.07,0,0,0,178,32ZM32,94A46.06,46.06,0,0,1,78,48c18.91,0,34.86,9.79,42,25.65V202C93.59,185.44,32,141.78,32,94ZM136,202V73.65C143.14,57.79,159.09,48,178,48a46.06,46.06,0,0,1,46,46C224,141.71,162.42,185.41,136,202Z"/></svg>