<svg xmlns="http://www.w3.org/2000/svg" viewBox="0 0 256 256" fill="currentColor"><path d="M216,115.54V216H152V160a8,8,0,0,0-8-8H112a8,8,0,0,0-8,8v56H40V115.54a8,8,0,0,1,2.62-5.92l80-75.54a8,8,0,0,1,10.77,0l80,75.54A8,8,0,0,1,216,115.54Z" opacity="0.2"/><path d="M240,208H224V115.55a16,16,0,0,0-5.17-11.78l-80-75.48a1.14,1.14,0,0,1-.11-.11,16,16,0,0,0-21.53,0l-.11.11L37.17,103.77A16,16,0,0,0,32,115.55V208H16a8,8,0,0,0,0,16H240a8,8,0,0,0,0-16ZM48,115.55l.11-.1L128,40l79.9,75.43.11.1V208H160V160a16,16,0,0,0-16-16H112a16,16,0,0,0-16,16v48H48ZM144,208H112V160h32Z"/></svg>