<svg xmlns="http://www.w3.org/2000/svg" viewBox="0 0 256 256" fill="currentColor"><path d="M209.94,113.94l-28,28a47.76,47.76,0,0,1-26.52,13.48,47.76,47.76,0,0,1-13.48,26.52l-28,28a48,48,0,0,1-67.88-67.88l28-28a47.76,47.76,0,0,1,26.52-13.48,47.76,47.76,0,0,1,13.48-26.52l28-28a48,48,0,0,1,67.88,67.88Z" opacity="0.2"/><path d="M137.54,186.36a8,8,0,0,1,0,11.31l-17.94,18A56,56,0,0,1,40.38,136.4L68.5,108.29A56,56,0,0,1,145.31,106a8,8,0,1,1-10.64,12,40,40,0,0,0-54.85,1.63L51.7,147.72a40,40,0,1,0,56.58,56.58l17.94-17.94A8,8,0,0,1,137.54,186.36Zm78.08-146a56.08,56.08,0,0,0-79.22,0L118.46,58.33a8,8,0,0,0,11.32,11.31L147.72,51.7a40,40,0,0,1,56.58,56.58L176.18,136.4A40,40,0,0,1,121.33,138,8,8,0,1,0,110.69,150a56,56,0,0,0,76.81-2.27l28.12-28.11A56.08,56.08,0,0,0,215.62,40.38Z"/></svg>