<svg xmlns="http://www.w3.org/2000/svg" viewBox="0 0 256 256" fill="currentColor"><path d="M168,184a40,40,0,1,1-40-40A40,40,0,0,1,168,184ZM207,40H168v85.82l42.72-19.42A9,9,0,0,0,216,98.2V49A9,9,0,0,0,207,40ZM88,40H49a9,9,0,0,0-9,9V98.2a9,9,0,0,0,5.28,8.2L88,125.82Z" opacity="0.2"/><path d="M207,32H49A17,17,0,0,0,32,49V98.21a17,17,0,0,0,10,15.47l62.6,28.45a48,48,0,1,0,46.88,0L214,113.68a17,17,0,0,0,10-15.47V49A17,17,0,0,0,207,32ZM160,48v72.67l-32,14.54L96,120.67V48ZM48,98.21V49a1,1,0,0,1,1-1H80v65.39L48.59,99.12A1,1,0,0,1,48,98.21ZM128,216a32,32,0,1,1,32-32A32,32,0,0,1,128,216ZM208,98.21a1,1,0,0,1-.59.91L176,113.39V48h31a1,1,0,0,1,1,1Z"/></svg>