<svg xmlns="http://www.w3.org/2000/svg" viewBox="0 0 256 256" fill="currentColor"><path d="M226.35,121,149.8,144.5a8,8,0,0,0-5.3,5.3L121,226.35a8,8,0,0,1-15.21.27l-65.28-176A8,8,0,0,1,50.63,40.46l176,65.28A8,8,0,0,1,226.35,121Z" opacity="0.2"/><path d="M229.33,98.21,53.41,33l-.16-.05A16,16,0,0,0,32.9,53.25a1,1,0,0,0,.05.16L98.21,229.33A15.77,15.77,0,0,0,113.28,240h.3a15.77,15.77,0,0,0,15-11.29l23.56-76.56,76.56-23.56a16,16,0,0,0,.62-30.38ZM224,113.3l-76.56,23.56a16,16,0,0,0-10.58,10.58L113.3,224h0l-.06-.17L48,48l175.82,65.22.16.06Z"/></svg>