<svg xmlns="http://www.w3.org/2000/svg" viewBox="0 0 256 256" fill="currentColor"><path d="M219.91,134.86,51.93,231a8,8,0,0,1-11.44-9.67l31-90.71a7.89,7.89,0,0,0,0-5.38l-31-90.47a8,8,0,0,1,11.44-9.67l168,95.85A8,8,0,0,1,219.91,134.86Z" opacity="0.2"/><path d="M223.87,114l-168-95.89A16,16,0,0,0,32.93,37.32l31,90.47a.42.42,0,0,0,0,.1.3.3,0,0,0,0,.1l-31,90.67A16,16,0,0,0,48,240a16.14,16.14,0,0,0,7.92-2.1l167.91-96.05a16,16,0,0,0,.05-27.89ZM48,224l0-.09L78.14,136H136a8,8,0,0,0,0-16H78.22L48.06,32.12,48,32l168,95.83Z"/></svg>