<svg xmlns="http://www.w3.org/2000/svg" viewBox="0 0 256 256" fill="currentColor"><path d="M138.54,141.46C106.62,88.25,149.18,35.05,239.63,40.37,245,130.82,191.75,173.39,138.54,141.46ZM16.26,80.26c-3.8,64.61,34.21,95,72.21,72.21C111.27,114.47,80.87,76.46,16.26,80.26Z" opacity="0.2"/><path d="M247.63,39.89a8,8,0,0,0-7.52-7.52c-51.76-3-93.32,12.74-111.18,42.22-11.8,19.48-11.78,43.16-.16,65.74a71.37,71.37,0,0,0-14.17,26.95L98.33,151c7.82-16.33,7.52-33.36-1-47.49C84.09,81.73,53.62,70,15.79,72.27a8,8,0,0,0-7.52,7.52c-2.23,37.83,9.46,68.3,31.25,81.5A45.82,45.82,0,0,0,63.44,168,54.58,54.58,0,0,0,87,162.33l25,25V216a8,8,0,0,0,16,0V186.51a55.61,55.61,0,0,1,12.27-35,73.91,73.91,0,0,0,33.31,8.4,60.9,60.9,0,0,0,31.83-8.86C234.89,133.21,250.67,91.65,247.63,39.89ZM86.06,138.74l-24.41-24.4a8,8,0,0,0-11.31,11.31l24.41,24.41c-9.61,3.18-18.93,2.39-26.94-2.46C32.47,138.31,23.79,116.32,24,88c28.31-.25,50.31,8.47,59.6,23.81C88.45,119.82,89.24,129.14,86.06,138.74Zm111.06-1.36c-13.4,8.11-29.15,8.73-45.15,2l53.69-53.7a8,8,0,0,0-11.31-11.32L140.65,128c-6.76-16-6.15-31.76,2-45.15,13.94-23,47-35.8,89.33-34.83C232.94,90.34,220.14,123.44,197.12,137.38Z"/></svg>