<svg xmlns="http://www.w3.org/2000/svg" viewBox="0 0 256 256" fill="currentColor"><path d="M202.5,172.15c-21.39,40.41-61.72,56-72,59.44a7.54,7.54,0,0,1-4.92,0c-10.32-3.43-50.65-19-72-59.44L128,120Z" opacity="0.2"/><path d="M208,40H48A16,16,0,0,0,32,56v58.77c0,89.61,75.82,119.34,91,124.39a15.53,15.53,0,0,0,10,0c15.2-5.05,91-34.78,91-124.39V56A16,16,0,0,0,208,40ZM128,224c-9.26-3.08-43.29-16.32-63.87-49.5L128,129.76l63.87,44.71C171.31,207.61,137.34,220.85,128,224Zm80-109.18c0,17.64-3.36,32.63-8.72,45.34l-66.69-46.68a8,8,0,0,0-9.18,0L56.72,160.13C51.36,147.42,48,132.43,48,114.79V56l160,0Z"/></svg>