<svg xmlns="http://www.w3.org/2000/svg" viewBox="0 0 256 256" fill="currentColor"><path d="M215.39,128c-7,73.93-71.47,99.12-84.93,103.59A7.93,7.93,0,0,1,128,232V128h87.39ZM128,48H48a8,8,0,0,0-8,8v58.77q0,6.85.61,13.21H128Z" opacity="0.2"/><path d="M208,40H48A16,16,0,0,0,32,56v58.77c0,89.62,75.82,119.34,91,124.38a15.44,15.44,0,0,0,10,0c15.2-5.05,91-34.77,91-124.39V56A16,16,0,0,0,208,40Zm0,74.79c0,1.77,0,3.5-.11,5.21H136V56h72ZM48,56h72v64H48.11c-.07-1.71-.11-3.44-.11-5.21Zm1.74,80H120v84.92C100.32,212.56,58.73,188.92,49.74,136ZM136,220.91V136h70.26C197.27,188.89,155.72,212.54,136,220.91Z"/></svg>