<svg xmlns="http://www.w3.org/2000/svg" viewBox="0 0 256 256" fill="currentColor"><path d="M208,64V216a8,8,0,0,1-8,8H56a8,8,0,0,1-8-8V64a8,8,0,0,1,8-8H80v56a8,8,0,0,0,13.12,6.15L128,88l34.88,30.13A8,8,0,0,0,176,112V56h24A8,8,0,0,1,208,64ZM96,40l32,48,32-48Z" opacity="0.2"/><path d="M200,48H179.31L165.66,34.34A8.08,8.08,0,0,0,160,32H96l-.49,0-.23,0a8,8,0,0,0-4.89,2.29L76.69,48H56A16,16,0,0,0,40,64V216a16,16,0,0,0,16,16H200a16,16,0,0,0,16-16V64A16,16,0,0,0,200,48ZM168,59.31V112L138.57,86.56l22.67-34ZM128,73.58,111,48h34.1Zm-33.24-21,22.67,34L88,112V59.31ZM56,64H72v48a15.85,15.85,0,0,0,9.21,14.49A16.1,16.1,0,0,0,88,128a15.89,15.89,0,0,0,10.2-3.73.52.52,0,0,0,.11-.1L120,105.48V216H56ZM200,216H136V105.48l21.65,18.7a.52.52,0,0,0,.11.1A15.89,15.89,0,0,0,168,128a16.1,16.1,0,0,0,6.83-1.54A15.85,15.85,0,0,0,184,112V64h16Z"/></svg>