<svg xmlns="http://www.w3.org/2000/svg" viewBox="0 0 256 256" fill="currentColor"><path d="M90.39,75.35,128,128,90.39,180.65A8,8,0,0,1,83.88,184H32V72H83.88A8,8,0,0,1,90.39,75.35ZM172.12,72a8,8,0,0,0-6.51,3.35L128,128l37.61,52.65a8,8,0,0,0,6.51,3.35H232V72Z" opacity="0.2"/><path d="M237.66,178.34a8,8,0,0,1,0,11.32l-24,24a8,8,0,0,1-11.32-11.32L212.69,192H172.12a16,16,0,0,1-13-6.7L83.88,80H32a8,8,0,0,1,0-16H83.88a16,16,0,0,1,13,6.7L172.12,176h40.57l-10.35-10.34a8,8,0,0,1,11.32-11.32ZM143,107a8,8,0,0,0,11.16-1.86l18-25.12h40.57L202.34,90.34a8,8,0,0,0,11.32,11.32l24-24a8,8,0,0,0,0-11.32l-24-24a8,8,0,0,0-11.32,11.32L212.69,64H172.12a16,16,0,0,0-13,6.7L141.15,95.82A8,8,0,0,0,143,107Zm-30,42a8,8,0,0,0-11.16,1.86L83.88,176H32a8,8,0,0,0,0,16H83.88a16,16,0,0,0,13-6.7l17.95-25.12A8,8,0,0,0,113,149Z"/></svg>