<svg xmlns="http://www.w3.org/2000/svg" viewBox="0 0 256 256" fill="currentColor"><path d="M226.76,135.48l-63.45,23.07a8,8,0,0,0-4.76,4.76l-23.07,63.45a8,8,0,0,1-15,0L97.45,163.31a8,8,0,0,0-4.76-4.76L29.24,135.48a8,8,0,0,1,0-15L92.69,97.45a8,8,0,0,0,4.76-4.76l23.07-63.45a8,8,0,0,1,15,0l23.07,63.45a8,8,0,0,0,4.76,4.76l63.45,23.07A8,8,0,0,1,226.76,135.48Z" opacity="0.2"/><path d="M229.5,113,166.07,90,143,26.5a16,16,0,0,0-30,0L90,89.93,26.5,113a16,16,0,0,0,0,30l63.43,23L113,229.5a16,16,0,0,0,30,0l23.07-63.44L229.5,143a16,16,0,0,0,0-30Zm-68.93,38a16,16,0,0,0-9.54,9.54L128,223.9l-23-63.33A16,16,0,0,0,95.43,151L32.1,128l63.33-23A16,16,0,0,0,105,95.43L128,32.1l23,63.33a16,16,0,0,0,9.54,9.54l63.33,23Z"/></svg>