<svg xmlns="http://www.w3.org/2000/svg" viewBox="0 0 256 256" fill="currentColor"><path d="M128,24V190.63a7.93,7.93,0,0,0-4.12,1.16l-51.1,31a8,8,0,0,1-11.89-8.69l13.52-58.54a8.08,8.08,0,0,0-2.54-7.89L26.76,108.35A8,8,0,0,1,31.3,94.28l59.46-5.14a8,8,0,0,0,6.67-4.88L120.66,28.9A7.84,7.84,0,0,1,128,24Z" opacity="0.2"/><path d="M239.2,97.29a16,16,0,0,0-13.81-11L166,81.17,142.72,25.81a15.95,15.95,0,0,0-29.44,0L90.07,81.17,30.61,86.31a16,16,0,0,0-9.11,28.07L66.61,153.8,53.09,212.34a16,16,0,0,0,23.84,17.34l51-31,51.11,31a16,16,0,0,0,23.84-17.34l-13.51-58.6,45.1-39.36A16,16,0,0,0,239.2,97.29ZM68.68,216v0L82.2,157.4a16,16,0,0,0-5.08-15.71L32,102.35a.58.58,0,0,1,0-.1l59.44-5.13a16,16,0,0,0,13.35-9.75L120,51.15V184.81l-.27.15ZM224,102.33l-45.1,39.36a16,16,0,0,0-5.08,15.71L187.35,216v0l-51.07-31-.27-.15V51.15l15.2,36.22a16,16,0,0,0,13.35,9.75L224,102.26S224,102.32,224,102.33Z"/></svg>