<svg xmlns="http://www.w3.org/2000/svg" viewBox="0 0 256 256" fill="currentColor"><path d="M230.66,132.44l-42.67,64a8,8,0,0,1-6.66,3.56H24l46.65-67.56a8,8,0,0,0,0-8.88L24,56H181.33A8,8,0,0,1,188,59.56l42.67,64A8,8,0,0,1,230.66,132.44Z" opacity="0.2"/><path d="M237.3,119.12l-42.66-64A16,16,0,0,0,181.33,48H24a8,8,0,0,0-6.58,12.55L64,128,17.42,195.45A8,8,0,0,0,24,208H181.33a16,16,0,0,0,13.31-7.12l42.66-64A16,16,0,0,0,237.3,119.12Zm-56,72.88H39.25l38-55,.08-.1a16,16,0,0,0,0-17.76l-.08-.1-38-55H181.33L224,128Z"/></svg>