<svg xmlns="http://www.w3.org/2000/svg" viewBox="0 0 256 256" fill="currentColor"><path d="M88,200V134.87l44.37,38.91-30.61,31.76A8,8,0,0,1,88,200ZM230.63,32.07,28,111.38A6.23,6.23,0,0,0,29,123.3l59,11.57L232,33.22A1,1,0,0,0,230.63,32.07Z" opacity="0.2"/><path d="M236.88,26.19a9,9,0,0,0-9.16-1.57L25.06,103.93a14.22,14.22,0,0,0,2.43,27.21L80,141.45V200a15.92,15.92,0,0,0,10,14.83,15.91,15.91,0,0,0,17.51-3.73l25.32-26.26L173,220a15.88,15.88,0,0,0,10.51,4,16.3,16.3,0,0,0,5-.79,15.85,15.85,0,0,0,10.67-11.63L239.77,35A9,9,0,0,0,236.88,26.19Zm-61.14,36L86.15,126.35l-49.61-9.73ZM96,200V152.52l24.79,21.74Zm87.53,8L100.85,135.5l119-85.29Z"/></svg>