<svg xmlns="http://www.w3.org/2000/svg" viewBox="0 0 256 256" fill="currentColor"><path d="M200,128a32,32,0,0,0,25.6,31.36,8,8,0,0,1,6.4,7.83V192a8,8,0,0,1-8,8H96V56H224a8,8,0,0,1,8,8V88.81a8,8,0,0,1-6.4,7.83A32,32,0,0,0,200,128Z" opacity="0.2"/><path d="M227.19,104.48A16,16,0,0,0,240,88.81V64a16,16,0,0,0-16-16H32A16,16,0,0,0,16,64V88.81a16,16,0,0,0,12.81,15.67,24,24,0,0,1,0,47A16,16,0,0,0,16,167.19V192a16,16,0,0,0,16,16H224a16,16,0,0,0,16-16V167.19a16,16,0,0,0-12.81-15.67,24,24,0,0,1,0-47ZM32,167.2a40,40,0,0,0,0-78.39V64H88V192H32Zm192,0V192H104V64H224V88.8a40,40,0,0,0,0,78.39Z"/></svg>