<svg xmlns="http://www.w3.org/2000/svg" viewBox="0 0 256 256" fill="currentColor"><path d="M227.47,64A14,14,0,0,0,216,58H134V22h18a6,6,0,0,0,0-12H104a6,6,0,0,0,0,12h18V58H40A14,14,0,0,0,26.84,76.78l26.19,72A14,14,0,0,0,66.18,158H98v66a6,6,0,0,0,12,0V158h36v66a6,6,0,0,0,12,0V158h31.82A14,14,0,0,0,203,148.78l26.19-72A14,14,0,0,0,227.47,64ZM109,146,95.19,70h65.62L147,146ZM64.3,144.68l-26.18-72a2,2,0,0,1,.24-1.83A1.94,1.94,0,0,1,40,70H83l13.82,76H66.18A2,2,0,0,1,64.3,144.68Zm153.58-72-26.18,72a2,2,0,0,1-1.88,1.32H159.19L173,70h43a1.94,1.94,0,0,1,1.64.85A2,2,0,0,1,217.88,72.68Z"/></svg>