<svg xmlns="http://www.w3.org/2000/svg" viewBox="0 0 256 256" fill="currentColor"><path d="M196.24,187.76a6,6,0,0,1,0,8.48C195.19,197.29,170,222,128,222c-39.66,0-67.59-25.75-82-43.26V208a6,6,0,0,1-12,0V160a6,6,0,0,1,6-6H88a6,6,0,0,1,0,12H51.35c11.41,15.11,38.23,44,76.65,44,37.09,0,59.54-22,59.76-22.24A6,6,0,0,1,196.24,187.76ZM216,42a6,6,0,0,0-6,6V77.26C195.59,59.75,167.66,34,128,34,86,34,60.81,58.71,59.76,59.76a6,6,0,0,0,8.48,8.48C68.46,68,90.91,46,128,46c38.42,0,65.24,28.89,76.65,44H168a6,6,0,0,0,0,12h48a6,6,0,0,0,6-6V48A6,6,0,0,0,216,42Z"/></svg>