<svg xmlns="http://www.w3.org/2000/svg" viewBox="0 0 256 256" fill="currentColor"><path d="M154,104a6,6,0,0,1,6-6h80a6,6,0,0,1,0,12H160A6,6,0,0,1,154,104Zm86,26H160a6,6,0,0,0,0,12h80a6,6,0,0,0,0-12Zm0,32H160a6,6,0,0,0,0,12h80a6,6,0,0,0,0-12Zm0,32H72a6,6,0,0,0,0,12H240a6,6,0,0,0,0-12ZM80,174A53.94,53.94,0,0,1,30.6,98.26,26,26,0,0,1,44,50a6,6,0,0,1,2.91.75l70.52,39.18A14,14,0,0,0,116,62a6,6,0,0,1,0-12,26,26,0,0,1,0,52,6,6,0,0,1-2.91-.75L72.46,78.67A42,42,0,0,0,74,161.56V120a6,6,0,0,1,12,0v41.56A42.06,42.06,0,0,0,119.61,134a6,6,0,0,1,11.32,4A54.11,54.11,0,0,1,80,174ZM36.64,87.9A54.29,54.29,0,0,1,58.05,70.67l-15.48-8.6A14,14,0,0,0,36.64,87.9Z"/></svg>