<svg xmlns="http://www.w3.org/2000/svg" viewBox="0 0 256 256" fill="currentColor"><path d="M174,68a10,10,0,1,1-10-10A10,10,0,0,1,174,68Zm-50.16,63.39a6,6,0,0,0-8.45.77l-40,48a6,6,0,1,0,9.22,7.68l40-48A6,6,0,0,0,123.84,131.39ZM238,80a6,6,0,0,1-2.67,5L214,99.21V120A102.12,102.12,0,0,1,112,222H8a6,6,0,0,1-4.69-9.75L98,93.9V76A58,58,0,0,1,211.51,59.13L235.33,75A6,6,0,0,1,238,80Zm-16.82,0L203,67.88a6,6,0,0,1-2.47-3.48A46,46,0,0,0,110,76V96a6,6,0,0,1-1.31,3.75L20.48,210H112a90.1,90.1,0,0,0,90-90V96a6,6,0,0,1,2.67-5Z"/></svg>