<svg xmlns="http://www.w3.org/2000/svg" viewBox="0 0 256 256" fill="currentColor"><path d="M220.43,112.53,206,107.71V56a14,14,0,0,0-14-14H134V24a6,6,0,0,0-12,0V42H64A14,14,0,0,0,50,56v51.71l-14.43,4.82A14,14,0,0,0,26,125.82V160.1a6.07,6.07,0,0,0,.23,1.64c15.41,54,84.84,72.7,98.6,75.9a14.14,14.14,0,0,0,6.34,0c13.76-3.2,83.19-21.88,98.6-75.9a6.07,6.07,0,0,0,.23-1.64V125.82A14,14,0,0,0,220.43,112.53ZM62,56a2,2,0,0,1,2-2H192a2,2,0,0,1,2,2v47.7L129.9,82.31a6,6,0,0,0-3.8,0L62,103.7ZM218,159.24c-5.87,19.62-21,36.3-45,49.56A183.74,183.74,0,0,1,128.45,226a2,2,0,0,1-.9,0A183.74,183.74,0,0,1,83,208.8c-24-13.26-39.11-29.94-45-49.56V125.82a2,2,0,0,1,1.37-1.91L122,96.33V168a6,6,0,0,0,12,0V96.33l82.63,27.58a2,2,0,0,1,1.37,1.91Z"/></svg>