<svg xmlns="http://www.w3.org/2000/svg" viewBox="0 0 256 256" fill="currentColor"><path d="M189,43.47l15.22-15.23a6,6,0,0,0-8.48-8.48L180,35.54A85.76,85.76,0,0,0,76,35.54L60.24,19.76a6,6,0,0,0-8.48,8.48L67,43.47A85.7,85.7,0,0,0,42,104v40a86,86,0,0,0,172,0V104A85.7,85.7,0,0,0,189,43.47ZM128,30a74.09,74.09,0,0,1,74,74v10H54V104A74.09,74.09,0,0,1,128,30Zm0,188a74.09,74.09,0,0,1-74-74V126H202v18A74.09,74.09,0,0,1,128,218ZM146,84a10,10,0,1,1,10,10A10,10,0,0,1,146,84ZM90,84a10,10,0,1,1,10,10A10,10,0,0,1,90,84Z"/></svg>