<svg xmlns="http://www.w3.org/2000/svg" viewBox="0 0 256 256" fill="currentColor"><path d="M206,142h18a6,6,0,0,0,0-12H206V110h18a6,6,0,0,0,0-12H205.75a77.81,77.81,0,0,0-22.38-48.88l20.87-20.88a6,6,0,0,0-8.48-8.48L174.27,41.25a77.8,77.8,0,0,0-92.53,0L60.24,19.76a6,6,0,0,0-8.48,8.48L72.64,49.12A77.76,77.76,0,0,0,50.25,98H32a6,6,0,0,0,0,12H50v20H32a6,6,0,0,0,0,12H50v10a78.6,78.6,0,0,0,.66,10H32a6,6,0,0,0,0,12H53.18a78,78,0,0,0,149.64,0H224a6,6,0,0,0,0-12H205.34a78.6,78.6,0,0,0,.66-10ZM128,38a66.07,66.07,0,0,1,65.71,60H62.29A66.07,66.07,0,0,1,128,38Zm6,179.71V136a6,6,0,0,0-12,0v81.71A66.07,66.07,0,0,1,62,152V110H194v42A66.07,66.07,0,0,1,134,217.71Z"/></svg>