<svg xmlns="http://www.w3.org/2000/svg" viewBox="0 0 256 256" fill="currentColor"><path d="M200,26H184a14,14,0,0,0-14,14V56a2,2,0,0,1-2,2H152a2,2,0,0,1-2-2V40a14,14,0,0,0-14-14H120a14,14,0,0,0-14,14V56a2,2,0,0,1-2,2H88a2,2,0,0,1-2-2V40A14,14,0,0,0,72,26H56A14,14,0,0,0,42,40V84.69a13.9,13.9,0,0,0,4.1,9.89L57.42,105.9a2,2,0,0,1,.58,1.41V216a14,14,0,0,0,14,14H184a14,14,0,0,0,14-14V107.31a2,2,0,0,1,.58-1.41L209.9,94.58a13.9,13.9,0,0,0,4.1-9.89V40A14,14,0,0,0,200,26ZM146,218H110V152a18,18,0,0,1,36,0ZM202,84.69a2,2,0,0,1-.58,1.41L190.1,97.42a13.9,13.9,0,0,0-4.1,9.89V216a2,2,0,0,1-2,2H158V152a30,30,0,0,0-60,0v66H72a2,2,0,0,1-2-2V107.31a13.9,13.9,0,0,0-4.1-9.89L54.58,86.1A2,2,0,0,1,54,84.69V40a2,2,0,0,1,2-2H72a2,2,0,0,1,2,2V56A14,14,0,0,0,88,70h16a14,14,0,0,0,14-14V40a2,2,0,0,1,2-2h16a2,2,0,0,1,2,2V56a14,14,0,0,0,14,14h16a14,14,0,0,0,14-14V40a2,2,0,0,1,2-2h16a2,2,0,0,1,2,2Z"/></svg>