<svg xmlns="http://www.w3.org/2000/svg" viewBox="0 0 256 256" fill="currentColor"><path d="M246,128a54,54,0,1,0-92,38.32V224a6,6,0,0,0,8.68,5.37L192,214.71l29.32,14.66A6,6,0,0,0,224,230a5.93,5.93,0,0,0,3.15-.9A6,6,0,0,0,230,224V166.32A53.83,53.83,0,0,0,246,128Zm-96,0a42,42,0,1,1,42,42A42,42,0,0,1,150,128Zm68,86.29-23.32-11.66a6,6,0,0,0-5.36,0L166,214.29v-39a53.87,53.87,0,0,0,52,0ZM134,192a6,6,0,0,1-6,6H40a14,14,0,0,1-14-14V56A14,14,0,0,1,40,42H216a14,14,0,0,1,14,14,6,6,0,0,1-12,0,2,2,0,0,0-2-2H40a2,2,0,0,0-2,2V184a2,2,0,0,0,2,2h88A6,6,0,0,1,134,192Zm-16-56a6,6,0,0,1-6,6H72a6,6,0,0,1,0-12h40A6,6,0,0,1,118,136Zm0-32a6,6,0,0,1-6,6H72a6,6,0,0,1,0-12h40A6,6,0,0,1,118,104Z"/></svg>