<svg xmlns="http://www.w3.org/2000/svg" viewBox="0 0 256 256" fill="currentColor"><path d="M102,109.5v-72a6,6,0,0,0-8-5.66A102,102,0,0,0,27.7,146.59a6,6,0,0,0,8.9,4.11l62.4-36A6,6,0,0,0,102,109.5ZM90,106l-51.66,29.8Q38,131.91,38,128A90.1,90.1,0,0,1,90,46.42ZM216.57,77.45c-.08-.16-.16-.32-.25-.47a3,3,0,0,0-.27-.42A102,102,0,0,0,128,26a6,6,0,0,0-6,6v93L42.2,171.46a6,6,0,0,0-2.15,8.22A102,102,0,0,0,230,128,101.41,101.41,0,0,0,216.57,77.45ZM134,38.2a90,90,0,0,1,68.76,39.74L134,118ZM128,218a90.48,90.48,0,0,1-74.38-39.31l77.31-45,.17-.1,77.67-45.24A90,90,0,0,1,128,218Z"/></svg>