<svg xmlns="http://www.w3.org/2000/svg" viewBox="0 0 256 256" fill="currentColor"><path d="M137.21,26.05A14,14,0,0,0,122,40V80.67a13.86,13.86,0,0,0,11.58,13.78,34,34,0,1,1-39.53,35.33c-.44-8.68,1.37-15.92,5.38-21.53h0a13.87,13.87,0,0,0-1.5-17.91L70.28,62.1a14,14,0,0,0-20.69,1,101.62,101.62,0,0,0,6.79,137.57A101.29,101.29,0,0,0,128,230h1.46A102.31,102.31,0,0,0,230,129.45C230.73,76.2,190,30.78,137.21,26.05ZM58.81,70.74A2.06,2.06,0,0,1,60.29,70h.09a1.89,1.89,0,0,1,1.37.54L89.4,98.78a2,2,0,0,1,.27,2.49A41.83,41.83,0,0,0,82.23,122h-44A88.42,88.42,0,0,1,58.81,70.74ZM38.22,134H82.4A46,46,0,0,0,122,173.61v44.17A89.93,89.93,0,0,1,38.22,134Zm153.34,57.56A89.48,89.48,0,0,1,134,217.79V173.62a45.53,45.53,0,0,0,25.36-12,46,46,0,0,0-23.83-79A1.93,1.93,0,0,1,134,80.67V40a2,2,0,0,1,.66-1.5,1.91,1.91,0,0,1,1.48-.5c46.55,4.17,82.51,44.26,81.85,91.27A89.44,89.44,0,0,1,191.56,191.56Z"/></svg>