<svg xmlns="http://www.w3.org/2000/svg" viewBox="0 0 256 256" fill="currentColor"><path d="M216,42H40A14,14,0,0,0,26,56V184a14,14,0,0,0,14,14H99.47a2,2,0,0,1,1.71,1l0,0L116,223.2a14,14,0,0,0,24,.05L154.82,199a2,2,0,0,1,1.71-1H216a14,14,0,0,0,14-14V56A14,14,0,0,0,216,42Zm2,142a2,2,0,0,1-2,2H156.53a14,14,0,0,0-12,6.75L129.72,217a2,2,0,0,1-3.46,0l-14.8-24.22a14.09,14.09,0,0,0-12-6.77H40a2,2,0,0,1-2-2V56a2,2,0,0,1,2-2H216a2,2,0,0,1,2,2Zm-80-64a10,10,0,1,1-10-10A10,10,0,0,1,138,120Zm-44,0a10,10,0,1,1-10-10A10,10,0,0,1,94,120Zm88,0a10,10,0,1,1-10-10A10,10,0,0,1,182,120Z"/></svg>