<svg xmlns="http://www.w3.org/2000/svg" viewBox="0 0 256 256" fill="currentColor"><path d="M229.66,187.13a78,78,0,0,0-61.5-112.71A78,78,0,1,0,26.34,139.13L18.47,166.7A12,12,0,0,0,33.3,181.53l27.57-7.87a78.25,78.25,0,0,0,26.94,7.9,78.05,78.05,0,0,0,107.32,40.1l27.57,7.87a12,12,0,0,0,14.83-14.83ZM61.53,161.23a5.82,5.82,0,0,0-1.65.23L30,170l8.53-29.87a6,6,0,0,0-.5-4.53A66,66,0,1,1,64.41,162,6.1,6.1,0,0,0,61.53,161.23Zm155.93,26.89L226,218l-29.87-8.53a6,6,0,0,0-4.53.5,66,66,0,0,1-90.48-28.15,77.92,77.92,0,0,0,71-94.68A66,66,0,0,1,218,183.59,6,6,0,0,0,217.46,188.12Z"/></svg>