<svg xmlns="http://www.w3.org/2000/svg" viewBox="0 0 256 256" fill="currentColor"><path d="M164,74a74.41,74.41,0,0,0-14.17,1.36A70,70,0,0,0,95.72,11.77,6,6,0,0,0,88.53,19,58.06,58.06,0,0,1,19,88.53a6,6,0,0,0-7.19,7.19,70.22,70.22,0,0,0,33.3,44.95A50,50,0,0,0,84,222h80a74,74,0,0,0,0-148ZM26.22,101.76Q29.1,102,32,102a70.08,70.08,0,0,0,70-70c0-1.94-.08-3.88-.24-5.8A57.64,57.64,0,0,1,138,78.71,74.32,74.32,0,0,0,94.2,123,50.36,50.36,0,0,0,84,122a49.74,49.74,0,0,0-29.86,9.92A58.24,58.24,0,0,1,26.22,101.76ZM164,210H84a38,38,0,1,1,7.08-75.34,75.84,75.84,0,0,0-1.07,9,6,6,0,0,0,12,.7,61.54,61.54,0,0,1,2-12.24c0-.15.08-.29.11-.43A62.06,62.06,0,1,1,164,210Z"/></svg>