<svg xmlns="http://www.w3.org/2000/svg" viewBox="0 0 256 256" fill="currentColor"><path d="M200,74H160a2,2,0,0,1-2-2V32a14,14,0,0,0-14-14H112A14,14,0,0,0,98,32V72a2,2,0,0,1-2,2H56A14,14,0,0,0,42,88v32a14,14,0,0,0,14,14H96a2,2,0,0,1,2,2v88a14,14,0,0,0,14,14h32a14,14,0,0,0,14-14V136a2,2,0,0,1,2-2h40a14,14,0,0,0,14-14V88A14,14,0,0,0,200,74Zm2,46a2,2,0,0,1-2,2H160a14,14,0,0,0-14,14v88a2,2,0,0,1-2,2H112a2,2,0,0,1-2-2V136a14,14,0,0,0-14-14H56a2,2,0,0,1-2-2V88a2,2,0,0,1,2-2H96a14,14,0,0,0,14-14V32a2,2,0,0,1,2-2h32a2,2,0,0,1,2,2V72a14,14,0,0,0,14,14h40a2,2,0,0,1,2,2Z"/></svg>