<svg xmlns="http://www.w3.org/2000/svg" viewBox="0 0 256 256" fill="currentColor"><path d="M242.52,77.7a10.07,10.07,0,0,0-11.12-1.42l-51.87,25.86L136.66,30.89a10.11,10.11,0,0,0-17.32,0L76.47,102.14,24.62,76.29A10.1,10.1,0,0,0,10.52,88.5l37,113.36a6,6,0,0,0,8.77,3.3c.07,0,6.56-3.84,18.6-7.58C86,194.12,104.21,190,128,190s42,4.12,53.12,7.58c12,3.74,18.53,7.54,18.58,7.57a6,6,0,0,0,8.78-3.29l37-113.34A10,10,0,0,0,242.52,77.7ZM199.23,191.53c-11-4.92-35.4-13.53-71.23-13.53s-60.23,8.61-71.23,13.53L23.32,89.05l49.35,24.6a10.17,10.17,0,0,0,13.18-3.83l42.15-70,42.15,70.05a10.17,10.17,0,0,0,13.17,3.83l49.36-24.61Z"/></svg>