<svg xmlns="http://www.w3.org/2000/svg" viewBox="0 0 256 256" fill="currentColor"><path d="M190,157.43V98.57a11,11,0,0,0-5.42-9.51L133.24,59.41a10.49,10.49,0,0,0-10.48,0L71.43,89.06A11,11,0,0,0,66,98.57v58.86a11,11,0,0,0,5.42,9.51l51.34,29.65a10.51,10.51,0,0,0,10.48,0l51.33-29.65A11,11,0,0,0,190,157.43ZM128,70.24,172.59,96,128,121.74,83.41,96ZM78,106.73l44,25.4V182.3L78,156.88Zm56,75.57V132.13l44-25.4v50.15ZM230,48V88a6,6,0,0,1-12,0V54H184a6,6,0,0,1,0-12h40A6,6,0,0,1,230,48ZM78,208a6,6,0,0,1-6,6H32a6,6,0,0,1-6-6V168a6,6,0,0,1,12,0v34H72A6,6,0,0,1,78,208Zm152-40v40a6,6,0,0,1-6,6H184a6,6,0,0,1,0-12h34V168a6,6,0,0,1,12,0ZM26,88V48a6,6,0,0,1,6-6H72a6,6,0,0,1,0,12H38V88a6,6,0,0,1-12,0Z"/></svg>