<svg xmlns="http://www.w3.org/2000/svg" viewBox="0 0 256 256" fill="currentColor"><path d="M117.59,105.69h0a14.75,14.75,0,0,0,20.82,0l31.28-31.28a14.75,14.75,0,0,0,0-20.83L138.41,22.3a14.74,14.74,0,0,0-20.82,0L86.31,53.58a14.75,14.75,0,0,0,0,20.83ZM94.8,62.07l31.27-31.28a2.74,2.74,0,0,1,3.86,0L161.2,62.07a2.71,2.71,0,0,1,0,3.85L129.93,97.2a2.74,2.74,0,0,1-3.86,0L94.8,65.92A2.71,2.71,0,0,1,94.8,62.07Zm138.89,55.52L202.41,86.31a14.74,14.74,0,0,0-20.82,0l-31.28,31.28a14.74,14.74,0,0,0,0,20.82l31.28,31.28h0a14.74,14.74,0,0,0,20.83,0l31.27-31.28A14.72,14.72,0,0,0,233.69,117.59Zm-8.48,12.34L193.93,161.2a2.71,2.71,0,0,1-3.85,0L158.8,129.93a2.74,2.74,0,0,1,0-3.86L190.08,94.8a2.72,2.72,0,0,1,3.85,0l31.28,31.28A2.74,2.74,0,0,1,225.21,129.93ZM105.69,117.59,74.41,86.31a14.75,14.75,0,0,0-20.83,0L22.31,117.59a14.72,14.72,0,0,0,0,20.82l31.27,31.28h0a14.73,14.73,0,0,0,20.82,0l31.28-31.28A14.74,14.74,0,0,0,105.69,117.59ZM97.2,129.93,65.92,161.2a2.71,2.71,0,0,1-3.85,0L30.79,129.93a2.74,2.74,0,0,1,0-3.86L62.07,94.8a2.72,2.72,0,0,1,3.85,0L97.2,126.07A2.74,2.74,0,0,1,97.2,129.93Zm41.21,20.38a14.74,14.74,0,0,0-20.82,0L86.31,181.59a14.74,14.74,0,0,0,0,20.82l31.28,31.28h0a14.74,14.74,0,0,0,20.82,0l31.28-31.28a14.74,14.74,0,0,0,0-20.82Zm22.79,43.62-31.27,31.28a2.74,2.74,0,0,1-3.86,0L94.8,193.93a2.71,2.71,0,0,1,0-3.85l31.27-31.28a2.74,2.74,0,0,1,3.86,0l31.27,31.28A2.71,2.71,0,0,1,161.2,193.93Z"/></svg>