<svg xmlns="http://www.w3.org/2000/svg" viewBox="0 0 256 256" fill="currentColor"><path d="M248,106a6,6,0,0,0-6,6v26H222V120a14,14,0,0,0-14-14H195.31a2,2,0,0,1-1.41-.58L158.58,70.1a13.9,13.9,0,0,0-9.89-4.1H126V46h26a6,6,0,0,0,0-12H88a6,6,0,0,0,0,12h26V66H48A14,14,0,0,0,34,80v58H14V112a6,6,0,0,0-12,0v64a6,6,0,0,0,12,0V150H34v22.69a13.9,13.9,0,0,0,4.1,9.89L73.42,217.9a13.9,13.9,0,0,0,9.89,4.1h65.38a13.9,13.9,0,0,0,9.89-4.1l35.32-35.32a2,2,0,0,1,1.41-.58H208a14,14,0,0,0,14-14V150h20v26a6,6,0,0,0,12,0V112A6,6,0,0,0,248,106Zm-38,62a2,2,0,0,1-2,2H195.31a13.9,13.9,0,0,0-9.89,4.1L150.1,209.42a2,2,0,0,1-1.41.58H83.31a2,2,0,0,1-1.41-.58L46.58,174.1a2,2,0,0,1-.58-1.41V80a2,2,0,0,1,2-2H148.69a2,2,0,0,1,1.41.58l35.32,35.32a13.9,13.9,0,0,0,9.89,4.1H208a2,2,0,0,1,2,2Z"/></svg>