<svg xmlns="http://www.w3.org/2000/svg" viewBox="0 0 256 256" fill="currentColor"><path d="M147.18,154.91a6,6,0,0,0-5.82-.3l-23.5,11.51A14,14,0,0,0,104,154H48a14,14,0,0,0-14,14v40a14,14,0,0,0,14,14h56a14,14,0,0,0,14-12.92l23.26,12.23A6,6,0,0,0,150,216V160A6,6,0,0,0,147.18,154.91ZM104,210H48a2,2,0,0,1-2-2V168a2,2,0,0,1,2-2h56a2,2,0,0,1,2,2v40A2,2,0,0,1,104,210Zm34-3.93-20-10.52V179.41l20-9.79ZM212.24,83.76l-56-56A6,6,0,0,0,152,26H56A14,14,0,0,0,42,40v88a6,6,0,0,0,12,0V40a2,2,0,0,1,2-2h90V88a6,6,0,0,0,6,6h50V216a2,2,0,0,1-2,2H176a6,6,0,0,0,0,12h24a14,14,0,0,0,14-14V88A6,6,0,0,0,212.24,83.76ZM158,46.48,193.52,82H158Z"/></svg>