<svg xmlns="http://www.w3.org/2000/svg" viewBox="0 0 256 256" fill="currentColor"><path d="M126,152a6,6,0,0,1-6,6H110v50a6,6,0,0,1-12,0V158H88a6,6,0,0,1,0-12h32A6,6,0,0,1,126,152Zm-62-6a6,6,0,0,0-6,6v22H38V152a6,6,0,0,0-12,0v56a6,6,0,0,0,12,0V186H58v22a6,6,0,0,0,12,0V152A6,6,0,0,0,64,146Zm176,56H226V152a6,6,0,0,0-12,0v56a6,6,0,0,0,6,6h20a6,6,0,0,0,0-12Zm-46.4-55.78a6,6,0,0,0-6.75,2.69L168,180.34l-18.85-31.43A6,6,0,0,0,138,152v56a6,6,0,0,0,12,0V173.66l12.85,21.43a6,6,0,0,0,10.3,0L186,173.66V208a6,6,0,0,0,12,0V152A6,6,0,0,0,193.6,146.22ZM214,112a6,6,0,0,1-12,0V94H152a6,6,0,0,1-6-6V38H56a2,2,0,0,0-2,2v72a6,6,0,0,1-12,0V40A14,14,0,0,1,56,26h96a6,6,0,0,1,4.25,1.76l56,56A6,6,0,0,1,214,88ZM193.52,82,158,46.48V82Z"/></svg>