<svg xmlns="http://www.w3.org/2000/svg" viewBox="0 0 256 256" fill="currentColor"><path d="M166.05,75.94a10,10,0,1,1-10-10A10,10,0,0,1,166.05,75.94Zm40.3,79.79c-20.57,26.13-53.59,40.27-98.18,42.05L85.64,250.36A6,6,0,0,1,80.12,254h-.38a6,6,0,0,1-5.39-4.34L59.24,196.76,6.35,181.61a6,6,0,0,1-.71-11.29l52.58-22.49C60,103.23,74.16,70.22,100.3,49.65,142.8,16.2,203.71,27.23,215.48,29.79a14,14,0,0,1,10.73,10.72C228.76,52.3,239.8,113.23,206.35,155.73ZM167,172.27a50.09,50.09,0,0,1-36.95-46.35A50.12,50.12,0,0,1,83.73,89c-8.46,16.94-13,38-13.64,63a6,6,0,0,1-3.63,5.38L25.88,174.72l39.87,11.42a6,6,0,0,1,4.12,4.12l11.38,39.86,17.39-40.58A6,6,0,0,1,104,185.9C129,185.31,150.08,180.74,167,172.27ZM214.48,43.05a2,2,0,0,0-1.54-1.53C202.09,39.17,146,29,107.72,59.08A83.55,83.55,0,0,0,94.19,72.53a38,38,0,0,0,41.48,41.25,6,6,0,0,1,6.55,6.55A38,38,0,0,0,183.5,161.8a83.18,83.18,0,0,0,13.42-13.5C227,110,216.83,53.92,214.48,43.05Z"/></svg>