<svg xmlns="http://www.w3.org/2000/svg" viewBox="0 0 256 256" fill="currentColor"><path d="M218.49,42.5a6,6,0,0,0-6.42.92c-29,25.11-53.28,13.08-81.41-.84-27.92-13.82-59.57-29.49-94.59.84A6,6,0,0,0,34,48V216a6,6,0,0,0,12,0V170.78c28.08-22.79,51.88-11,79.34,2.59,27.92,13.82,59.58,29.48,94.59-.85A6,6,0,0,0,222,168V48A6,6,0,0,0,218.49,42.5ZM210,60v49.2c-15.53,12.6-29.75,14.65-44,11.65V68.88C180,71.33,194.64,69.78,210,60Zm-56,5.87v51.4c-7.6-2.85-15.31-6.66-23.34-10.64C121.5,102.06,112,97.33,102,94.09V42.71a255.17,255.17,0,0,1,23.34,10.63C134.5,57.87,144.05,62.59,154,65.83ZM90,39.13V91c-14-2.45-28.64-.89-44,8.93V50.75C61.53,38.15,75.75,36.13,90,39.13ZM78.63,146C68.13,146,57.24,148.79,46,156V114.79c15.53-12.61,29.75-14.65,44-11.65v43.93A66.32,66.32,0,0,0,78.63,146ZM102,150.11V106.72c7.6,2.84,15.31,6.66,23.34,10.63,9.16,4.53,18.71,9.26,28.66,12.5v43.39c-7.6-2.85-15.31-6.66-23.34-10.63C121.5,158.07,112,153.35,102,150.11Zm64,26.7V132.89a66.32,66.32,0,0,0,11.37,1c10.5,0,21.39-2.78,32.63-10v41.23C194.47,177.79,180.25,179.81,166,176.81Z"/></svg>