<svg xmlns="http://www.w3.org/2000/svg" viewBox="0 0 256 256" fill="currentColor"><path d="M243.36,111.81A14,14,0,0,0,232,106H214V88a14,14,0,0,0-14-14H130.67a2,2,0,0,1-1.2-.4L101.74,52.8a14.06,14.06,0,0,0-8.4-2.8H40A14,14,0,0,0,26,64V208h0a6,6,0,0,0,6,6H211.1a6,6,0,0,0,5.69-4.1l28.49-85.47A14,14,0,0,0,243.36,111.81ZM40,62H93.34a2,2,0,0,1,1.2.4l27.73,20.8a14.06,14.06,0,0,0,8.4,2.8H200a2,2,0,0,1,2,2v18H146.43a13.94,13.94,0,0,0-7.77,2.35l-20,13.31a2,2,0,0,1-1.11.34H69.42a13.93,13.93,0,0,0-13,8.8L38,176.84V64A2,2,0,0,1,40,62Zm193.9,58.63L206.78,202H40.86l26.7-66.74A2,2,0,0,1,69.42,134h48.16a13.94,13.94,0,0,0,7.77-2.35l20-13.31a2,2,0,0,1,1.11-.34H232a2,2,0,0,1,1.9,2.63Z"/></svg>