<svg xmlns="http://www.w3.org/2000/svg" viewBox="0 0 256 256" fill="currentColor"><path d="M228.77,50.34A13.8,13.8,0,0,0,216,42H40A14,14,0,0,0,29.67,65.42l.06.07L97.46,137.8a2,2,0,0,1,.54,1.37V216a14,14,0,0,0,21.77,11.64l32-21.33A14,14,0,0,0,158,194.66V139.17a2,2,0,0,1,.54-1.37l67.79-72.38A13.82,13.82,0,0,0,228.77,50.34Zm-11.26,6.94L149.78,129.6a13.93,13.93,0,0,0-3.78,9.57v55.49a2,2,0,0,1-.89,1.67l-32,21.33A2,2,0,0,1,110,216V139.17a14,14,0,0,0-3.78-9.58L38.53,57.32A2,2,0,0,1,40,54H216a1.9,1.9,0,0,1,1.83,1.19A1.86,1.86,0,0,1,217.51,57.28Z"/></svg>