<svg xmlns="http://www.w3.org/2000/svg" viewBox="0 0 256 256" fill="currentColor"><path d="M205.65,82.08A109.26,109.26,0,0,0,128,50h-.39C67.17,50.21,18,100.06,18,161.13V184a14,14,0,0,0,14,14H224a14,14,0,0,0,14-14V160A109.3,109.3,0,0,0,205.65,82.08ZM226,184a2,2,0,0,1-2,2H115.78l57.07-78.47a6,6,0,0,0-9.7-7.06L100.94,186H32a2,2,0,0,1-2-2V161.13A102.36,102.36,0,0,1,30.62,150H56a6,6,0,0,0,0-12H32.71C42.6,96.4,78.53,64.86,122,62.19V88a6,6,0,0,0,12,0V62.19A98.05,98.05,0,0,1,223.53,138H200a6,6,0,0,0,0,12h25.5c.33,3.3.5,6.64.5,10Z"/></svg>