<svg xmlns="http://www.w3.org/2000/svg" viewBox="0 0 256 256" fill="currentColor"><path d="M112,154a6,6,0,0,0-6,6v33.52l-31.7-31.7A41.75,41.75,0,0,1,62,132.12V93.4a30,30,0,1,0-12,0v38.72A53.65,53.65,0,0,0,65.82,170.3L97.52,202H64a6,6,0,0,0,0,12h48a6,6,0,0,0,6-6V160A6,6,0,0,0,112,154ZM38,64A18,18,0,1,1,56,82,18,18,0,0,1,38,64Zm168,98.6V123.88A53.65,53.65,0,0,0,190.18,85.7L158.48,54H192a6,6,0,0,0,0-12H144a6,6,0,0,0-6,6V96a6,6,0,0,0,12,0V62.48l31.7,31.7a41.75,41.75,0,0,1,12.3,29.7V162.6a30,30,0,1,0,12,0ZM200,210a18,18,0,1,1,18-18A18,18,0,0,1,200,210Z"/></svg>