<svg xmlns="http://www.w3.org/2000/svg" viewBox="0 0 256 256" fill="currentColor"><path d="M128,26A102,102,0,1,0,230,128,102.12,102.12,0,0,0,128,26Zm81.57,64H169.39a139.15,139.15,0,0,0-23.45-50.2A90.32,90.32,0,0,1,209.57,90ZM218,128a89.7,89.7,0,0,1-3.83,26H171.86a159,159,0,0,0,0-52h42.31A89.7,89.7,0,0,1,218,128Zm-90,90a1.75,1.75,0,0,1-1.32-.59C113.8,203.54,104.34,185.73,99,166h58c-5.34,19.73-14.8,37.54-27.68,51.41A1.75,1.75,0,0,1,128,218ZM96.31,154a147.48,147.48,0,0,1,0-52h63.38a147.48,147.48,0,0,1,0,52ZM38,128a89.7,89.7,0,0,1,3.83-26H84.14a159,159,0,0,0,0,52H41.83A89.7,89.7,0,0,1,38,128Zm90-90a1.75,1.75,0,0,1,1.32.59C142.2,52.46,151.66,70.27,157,90H99c5.34-19.73,14.8-37.54,27.68-51.41A1.75,1.75,0,0,1,128,38Zm-17.94,1.8A139.15,139.15,0,0,0,86.61,90H46.43A90.32,90.32,0,0,1,110.06,39.8ZM46.43,166H86.61a139.15,139.15,0,0,0,23.45,50.2A90.32,90.32,0,0,1,46.43,166Zm99.51,50.2A139.15,139.15,0,0,0,169.39,166h40.18A90.32,90.32,0,0,1,145.94,216.2Z"/></svg>