<svg xmlns="http://www.w3.org/2000/svg" viewBox="0 0 256 256" fill="currentColor"><path d="M128,26A102,102,0,1,0,230,128,102.12,102.12,0,0,0,128,26Zm89.8,96H173.88c-1.15-30.72-11.09-59.83-27.94-82.2A90.18,90.18,0,0,1,217.8,122ZM128,218a1.75,1.75,0,0,1-1.32-.59c-19.56-21.07-31.26-51.2-32.56-83.41h67.75c-1.29,32.21-13,62.34-32.55,83.41A1.75,1.75,0,0,1,128,218ZM94.12,122c1.3-32.21,13-62.34,32.56-83.41a1.77,1.77,0,0,1,2.64,0c19.56,21.07,31.26,51.2,32.55,83.41Zm15.94-82.2C93.21,62.17,83.27,91.28,82.12,122H38.2A90.18,90.18,0,0,1,110.06,39.8ZM38.2,134H82.12c1.15,30.72,11.09,59.83,27.94,82.2A90.18,90.18,0,0,1,38.2,134Zm107.74,82.2c16.85-22.37,26.79-51.48,27.94-82.2H217.8A90.18,90.18,0,0,1,145.94,216.2Z"/></svg>