<svg xmlns="http://www.w3.org/2000/svg" viewBox="0 0 256 256" fill="currentColor"><path d="M224,50H32A14,14,0,0,0,18,64V192a14,14,0,0,0,14,14H92.69a13.94,13.94,0,0,0,9.9-4.1l24-24a2,2,0,0,1,2.82,0l24,24a13.94,13.94,0,0,0,9.9,4.1H224a14,14,0,0,0,14-14V64A14,14,0,0,0,224,50Zm2,142a2,2,0,0,1-2,2H163.31a2,2,0,0,1-1.41-.58l-24-24a14,14,0,0,0-19.8,0l-24,24a2,2,0,0,1-1.41.59H32a2,2,0,0,1-2-2V64a2,2,0,0,1,2-2H224a2,2,0,0,1,2,2ZM80,98a30,30,0,1,0,30,30A30,30,0,0,0,80,98Zm0,48a18,18,0,1,1,18-18A18,18,0,0,1,80,146Zm96-48a30,30,0,1,0,30,30A30,30,0,0,0,176,98Zm0,48a18,18,0,1,1,18-18A18,18,0,0,1,176,146Z"/></svg>