<svg xmlns="http://www.w3.org/2000/svg" viewBox="0 0 256 256" fill="currentColor"><path d="M117.82,217.45A6,6,0,0,1,112,222a6.14,6.14,0,0,1-1.46-.18l-32-8a6.15,6.15,0,0,1-1.87-.83l-24-16a6,6,0,0,1,6.66-10l23.13,15.42,31,7.75A6,6,0,0,1,117.82,217.45Zm132.73-96.6a13.89,13.89,0,0,1-7,8.09l-24,12-55.31,55.31A6,6,0,0,1,160,198a6.08,6.08,0,0,1-1.46-.18l-64-16a6,6,0,0,1-2-.94L36.9,141.16,12.47,128.94a14,14,0,0,1-6.26-18.78L31.06,60.47h0a14,14,0,0,1,18.78-6.26L72.6,65.59l53.75-15.36a6,6,0,0,1,3.3,0L183.4,65.59l22.76-11.38a14,14,0,0,1,18.78,6.26l24.85,49.69A13.93,13.93,0,0,1,250.55,120.85ZM17.84,118.21,37.32,128,64,74.68,44.47,64.94a2,2,0,0,0-2.68.9L16.94,115.53a2,2,0,0,0-.1,1.52A1.92,1.92,0,0,0,17.84,118.21ZM191,152.49l-30.73-24.61c-19,16.38-43.58,18.8-63.8,5.88a14,14,0,0,1-2.39-21.71l45.72-44.36a6,6,0,0,1,2.35-1.4L128,62.24,76.19,77,47.66,134.1l50.9,36.35,59.6,14.9Zm17.68-17.68L180.29,78H146.43l-43.91,42.6a1.9,1.9,0,0,0-.51,1.55,2,2,0,0,0,.94,1.5c13.29,8.49,34.14,10.87,52.79-7.92a6,6,0,0,1,8-.45L199.56,144Zm30.36-19.28L214.21,65.84a2,2,0,0,0-2.68-.9l-19.48,9.74L218.68,128l19.48-9.74a1.92,1.92,0,0,0,1-1.16A2,2,0,0,0,239.06,115.53Z"/></svg>