<svg xmlns="http://www.w3.org/2000/svg" viewBox="0 0 256 256" fill="currentColor"><path d="M170,24V8a6,6,0,0,1,12,0V24a6,6,0,0,1-12,0Zm34.87,15.25a6,6,0,0,0,8.25-2l8-13.11a6,6,0,1,0-10.24-6.25l-8,13.11A6,6,0,0,0,204.87,39.25Zm44.5,14.92a6,6,0,0,0-7.55-3.88l-15,4.85a6,6,0,0,0,1.84,11.72,5.91,5.91,0,0,0,1.84-.3l15-4.84A6,6,0,0,0,249.37,54.17ZM219.54,94.49a77.71,77.71,0,0,1-12.63,94.4A78,78,0,0,1,64.22,207l-35-60.63a24,24,0,0,1,20.79-36l-5.61-9.73A24,24,0,0,1,63.85,64.71a24,24,0,0,1,39.71-26.25,24,24,0,0,1,41.8-.45L159,61.59a24,24,0,0,1,41.56,0ZM114.18,56h0l6.09,10.56a23.61,23.61,0,0,1,4.86,6l13.63,23.56a23.95,23.95,0,0,1,19.36-12L135,44a12,12,0,0,0-20.79,12ZM75,60.15,81.1,70.71A23.69,23.69,0,0,1,83.33,73,23.92,23.92,0,0,1,103,60.57L95.79,48.15A12,12,0,0,0,75,60.15ZM195.52,185.09A65.62,65.62,0,0,0,188.93,135l-19-32.91a12,12,0,0,0-21.19,11.22l11.4,19.7a6,6,0,1,1-10.39,6l-35-60.5A12,12,0,0,0,93.9,90.4L118.53,133a6,6,0,1,1-10.39,6L75.57,82.66a12,12,0,0,0-20.78,12l36,62.36a6,6,0,0,1-10.39,6l-20-34.64a12,12,0,0,0-20.79,12l35,60.63a66,66,0,0,0,120.91-15.92Zm13.63-84.6-19-32.91a12,12,0,0,0-20.79,12h0l6.1,10.57a24,24,0,0,1,4.86,5.94l19,32.91a77.68,77.68,0,0,1,10.44,36.51A65.8,65.8,0,0,0,209.15,100.49Z"/></svg>