<svg xmlns="http://www.w3.org/2000/svg" viewBox="0 0 256 256" fill="currentColor"><path d="M200.47,64.07A101.37,101.37,0,0,0,128.77,34H128A102,102,0,0,0,26,136v56a22,22,0,0,0,22,22H64a22,22,0,0,0,22-22V152a22,22,0,0,0-22-22H38.2A90.12,90.12,0,0,1,192,72.52,89.41,89.41,0,0,1,217.81,130H192a22,22,0,0,0-22,22v40a22,22,0,0,0,22,22h16a22,22,0,0,0,22-22V136A101.44,101.44,0,0,0,200.47,64.07ZM64,142a10,10,0,0,1,10,10v40a10,10,0,0,1-10,10H48a10,10,0,0,1-10-10V142Zm154,50a10,10,0,0,1-10,10H192a10,10,0,0,1-10-10V152a10,10,0,0,1,10-10h26Z"/></svg>