<svg xmlns="http://www.w3.org/2000/svg" viewBox="0 0 256 256" fill="currentColor"><path d="M72,134H32a6,6,0,0,1,0-12H68.79L83,100.67a6,6,0,0,1,10,0l27,40.51,11-16.51a6,6,0,0,1,5-2.67h24a6,6,0,0,1,0,12H139.21L125,155.33a6,6,0,0,1-10,0L88,114.82,77,131.33A6,6,0,0,1,72,134ZM178,34c-21,0-39.26,9.47-50,25.34C117.26,43.47,99,34,78,34A60.07,60.07,0,0,0,18,94q0,1.09,0,2.19a6,6,0,1,0,12-.38c0-.6,0-1.21,0-1.81A48.05,48.05,0,0,1,78,46c20.28,0,37.31,10.83,44.45,28.27a6,6,0,0,0,11.1,0C140.69,56.83,157.72,46,178,46a48.05,48.05,0,0,1,48,48c0,55.73-81.61,105.65-98,115.11-9.84-5.66-43.09-25.82-68.16-53.16a6,6,0,1,0-8.84,8.1c30.94,33.77,72.41,56.29,74.16,57.23a6,6,0,0,0,5.68,0,334.68,334.68,0,0,0,53.06-37C219.8,153.59,238,123.2,238,94A60.07,60.07,0,0,0,178,34Z"/></svg>