<svg xmlns="http://www.w3.org/2000/svg" viewBox="0 0 256 256" fill="currentColor"><path d="M237,124.67,180.7,40.23A14,14,0,0,0,169.05,34H87A14,14,0,0,0,75.3,40.23L19,124.67a6,6,0,0,0-.8,4.91l22.39,82.1A14,14,0,0,0,54.11,222H80a14,14,0,0,0,14-14V190h68v18a14,14,0,0,0,14,14h25.89a14,14,0,0,0,13.51-10.32l22.39-82.1A6,6,0,0,0,237,124.67ZM80,178a2,2,0,0,1-2-2V66.34l28,16V136a6,6,0,0,0,12,0V89.2l7,4a6,6,0,0,0,6,0l7-4V128a6,6,0,0,0,12,0V82.34l28-16V176a2,2,0,0,1-2,2ZM87,46h82.1a2,2,0,0,1,1.67.89L175.44,54,128,81.09,80.56,54l4.72-7.09A2,2,0,0,1,87,46ZM82,208a2,2,0,0,1-2,2H54.11a2,2,0,0,1-1.93-1.47L30.51,129.06,66,75.82V176a14,14,0,0,0,14,14h2Zm121.82.53a2,2,0,0,1-1.93,1.47H176a2,2,0,0,1-2-2V190h2a14,14,0,0,0,14-14V75.82l35.49,53.24Z"/></svg>