<svg xmlns="http://www.w3.org/2000/svg" viewBox="0 0 256 256" fill="currentColor"><path d="M217.47,105.24l-80-75.5-.09-.08a13.94,13.94,0,0,0-18.83,0l-.09.08-80,75.5A14,14,0,0,0,34,115.55V208a14,14,0,0,0,14,14H96a14,14,0,0,0,14-14V160a2,2,0,0,1,2-2h32a2,2,0,0,1,2,2v48a14,14,0,0,0,14,14h48a14,14,0,0,0,14-14V115.55A14,14,0,0,0,217.47,105.24ZM210,208a2,2,0,0,1-2,2H160a2,2,0,0,1-2-2V160a14,14,0,0,0-14-14H112a14,14,0,0,0-14,14v48a2,2,0,0,1-2,2H48a2,2,0,0,1-2-2V115.55a2,2,0,0,1,.65-1.48l.09-.08,79.94-75.48a2,2,0,0,1,2.63,0L209.26,114l.08.08a2,2,0,0,1,.66,1.48Z"/></svg>