<svg xmlns="http://www.w3.org/2000/svg" viewBox="0 0 256 256" fill="currentColor"><path d="M240,98H228.85l-9.63-44.93A14.06,14.06,0,0,0,205.53,42H50.47A14.06,14.06,0,0,0,36.78,53.07L27.15,98H16a6,6,0,0,0,0,12H26v98a14,14,0,0,0,14,14H64a14,14,0,0,0,14-14V182H178v26a14,14,0,0,0,14,14h24a14,14,0,0,0,14-14V110h10a6,6,0,0,0,0-12ZM48.51,55.58a2,2,0,0,1,2-1.58H205.53a2,2,0,0,1,2,1.58L216.58,98H39.42ZM66,208a2,2,0,0,1-2,2H40a2,2,0,0,1-2-2V182H66Zm150,2H192a2,2,0,0,1-2-2V182h28v26A2,2,0,0,1,216,210Zm2-40H150V136a6,6,0,0,0-12,0v34H118V136a6,6,0,0,0-12,0v34H38V110H218ZM58,140a10,10,0,1,1,10,10A10,10,0,0,1,58,140Zm120,0a10,10,0,1,1,10,10A10,10,0,0,1,178,140Z"/></svg>