<svg xmlns="http://www.w3.org/2000/svg" viewBox="0 0 256 256" fill="currentColor"><path d="M223.51,50h-191A14.51,14.51,0,0,0,18,64.49v127A14.51,14.51,0,0,0,32.49,206h191A14.51,14.51,0,0,0,238,191.51v-127A14.51,14.51,0,0,0,223.51,50ZM226,191.51a2.49,2.49,0,0,1-2.49,2.49h-191A2.49,2.49,0,0,1,30,191.51v-127A2.49,2.49,0,0,1,32.49,62h191A2.49,2.49,0,0,1,226,64.49ZM206,128a6,6,0,0,1-6,6H56a6,6,0,0,1,0-12H200A6,6,0,0,1,206,128Zm0-32a6,6,0,0,1-6,6H56a6,6,0,0,1,0-12H200A6,6,0,0,1,206,96ZM70,160a6,6,0,0,1-6,6H56a6,6,0,0,1,0-12h8A6,6,0,0,1,70,160Zm96,0a6,6,0,0,1-6,6H96a6,6,0,0,1,0-12h64A6,6,0,0,1,166,160Zm40,0a6,6,0,0,1-6,6h-8a6,6,0,0,1,0-12h8A6,6,0,0,1,206,160Z"/></svg>