<svg xmlns="http://www.w3.org/2000/svg" viewBox="0 0 256 256" fill="currentColor"><path d="M230.4,33.6a26,26,0,0,0-36.83.06L19.71,212a6,6,0,0,0,2.94,10.05A153.08,153.08,0,0,0,57.15,226c33,0,66.11-10.76,97.22-31.86,31.47-21.35,49.68-45.41,50.44-46.42a6,6,0,0,0-.56-7.85l-20.11-20.14,46.33-49.39A26.09,26.09,0,0,0,230.4,33.6ZM191.94,144.53a226.59,226.59,0,0,1-44.61,39.87c-36.18,24.45-73.55,33.84-111.26,28L146.55,99.09Zm30-82.61-.13.14-46.13,49.18L154.93,90.49,202.11,42.1a14,14,0,0,1,19.8,19.82Z"/></svg>