<svg xmlns="http://www.w3.org/2000/svg" viewBox="0 0 256 256" fill="currentColor"><path d="M136.13,187.77a6,6,0,0,1,0,8.49l-9.95,9.94A54,54,0,0,1,49.8,129.82L73.91,105.7A54,54,0,0,1,148,103.51a6,6,0,1,1-8,9,42,42,0,0,0-57.6,1.71L58.28,138.3a42,42,0,0,0,59.42,59.42l9.94-9.95A6,6,0,0,1,136.13,187.77Zm70.07-138a54.06,54.06,0,0,0-76.38,0l-9.95,9.94a6,6,0,0,0,8.49,8.49l9.94-10a42,42,0,0,1,59.42,59.42L173.6,141.81a42,42,0,0,1-57.6,1.71,6,6,0,1,0-8,9,54,54,0,0,0,74.07-2.19l24.11-24.12A54,54,0,0,0,206.2,49.8Z"/></svg>