<svg xmlns="http://www.w3.org/2000/svg" viewBox="0 0 256 256" fill="currentColor"><path d="M192,64a34,34,0,0,0-48-.05L132.34,76.14a6,6,0,1,1-8.68-8.28l11.71-12.28.1-.11a46,46,0,0,1,65.06,65.06l-.11.1-12.28,11.71a6,6,0,0,1-8.28-8.68L192.09,112A34,34,0,0,0,192,64Zm-68.38,115.9L112,192.09A34,34,0,0,1,63.91,144l12.23-11.67a6,6,0,1,0-8.28-8.68L55.58,135.37l-.11.1a46,46,0,0,0,65.06,65.06l.1-.11,11.71-12.28a6,6,0,1,0-8.68-8.28ZM208,154H184a6,6,0,0,0,0,12h24a6,6,0,0,0,0-12ZM48,102H72a6,6,0,0,0,0-12H48a6,6,0,0,0,0,12Zm112,76a6,6,0,0,0-6,6v24a6,6,0,0,0,12,0V184A6,6,0,0,0,160,178ZM96,78a6,6,0,0,0,6-6V48a6,6,0,0,0-12,0V72A6,6,0,0,0,96,78Z"/></svg>