<svg xmlns="http://www.w3.org/2000/svg" viewBox="0 0 256 256" fill="currentColor"><path d="M220,88.59l-176.08-54A14,14,0,0,0,26,48V192a14,14,0,0,0,14,14,14.59,14.59,0,0,0,4-.59L130,179v13a14,14,0,0,0,14,14h32a14,14,0,0,0,14-14V160.62l30-9.19A14.07,14.07,0,0,0,230,138V102A14,14,0,0,0,220,88.59ZM40.56,193.92a2,2,0,0,1-1.76-.32A2,2,0,0,1,38,192V48a2,2,0,0,1,.8-1.6A2.05,2.05,0,0,1,40,46a1.79,1.79,0,0,1,.49.08L130,73.53v92.95ZM178,192a2,2,0,0,1-2,2H144a2,2,0,0,1-2-2V175.35l36-11Zm40-54a2,2,0,0,1-1.44,1.92l-.08,0L142,162.8V77.21l74.56,22.87A2,2,0,0,1,218,102Z"/></svg>