<svg xmlns="http://www.w3.org/2000/svg" viewBox="0 0 256 256" fill="currentColor"><path d="M231.75,163.32a6,6,0,0,0-7.5,0C223.34,164,202,181.38,202,204a26,26,0,0,0,52,0C254,181.38,232.66,164,231.75,163.32ZM228,218a14,14,0,0,1-14-14c0-11.88,8.79-22.55,14-27.83,5.21,5.28,14,16,14,27.83A14,14,0,0,1,228,218Zm.24-98.76L120.76,11.76a6,6,0,0,0-8.49,0l-42,42-26-26a6,6,0,0,0-8.49,8.48l26,26L16.44,107.59a22,22,0,0,0,0,31.11l84.86,84.86a22,22,0,0,0,31.11,0l95.83-95.83A6,6,0,0,0,228.24,119.24ZM123.93,215.07a10,10,0,0,1-14.14,0L24.93,130.21a10,10,0,0,1,0-14.14L70.25,70.75l31.62,31.61a26,26,0,0,0,3.75,32,26,26,0,0,0,36.76,0h0a26,26,0,0,0-32-40.51L78.74,62.26l37.78-37.77,99,99ZM124,102a14,14,0,1,1-9.9,4.1A13.92,13.92,0,0,1,124,102Z"/></svg>