<svg xmlns="http://www.w3.org/2000/svg" viewBox="0 0 256 256" fill="currentColor"><path d="M155.76,91.76,175.52,72,155.76,52.24a6,6,0,0,1,8.48-8.48L184,63.51l19.76-19.75a6,6,0,0,1,8.48,8.48L192.48,72l19.76,19.76a6,6,0,1,1-8.48,8.48L184,80.48l-19.76,19.76a6,6,0,0,1-8.48-8.48Zm74.13,83.07A54.25,54.25,0,0,1,176,222C97.7,222,34,158.3,34,80A54.25,54.25,0,0,1,81.17,26.11a14,14,0,0,1,14.56,8.38l21.1,47.11a14,14,0,0,1-1.12,13.28,6,6,0,0,1-.42.57L94.22,120.51a1.89,1.89,0,0,0,0,1.67c7.66,15.68,24.1,32,40,39.65a1.88,1.88,0,0,0,1.68-.06l24.69-21a4.81,4.81,0,0,1,.56-.42,14,14,0,0,1,13.28-1.22l47.24,21.17A14,14,0,0,1,229.89,174.83ZM218,173.32a2,2,0,0,0-1.21-2l-47.25-21.17a1.92,1.92,0,0,0-1.6.1l-24.68,21c-.18.15-.37.29-.56.42a14,14,0,0,1-13.77,1c-18.36-8.87-36.66-27-45.53-45.19a14,14,0,0,1,.91-13.73,4.73,4.73,0,0,1,.43-.57l21.06-25.06a2,2,0,0,0,0-1.67L84.74,39.31A2,2,0,0,0,82.9,38h-.23A42.24,42.24,0,0,0,46,80c0,71.68,58.32,130,130,130A42.24,42.24,0,0,0,218,173.32Z"/></svg>