<svg xmlns="http://www.w3.org/2000/svg" viewBox="0 0 256 256" fill="currentColor"><path d="M154.2,38.45a6,6,0,0,1,7.35-4.25A84.24,84.24,0,0,1,221.8,94.45a6,6,0,0,1-4.25,7.35,5.94,5.94,0,0,1-1.55.2,6,6,0,0,1-5.8-4.45A72.34,72.34,0,0,0,158.45,45.8,6,6,0,0,1,154.2,38.45ZM150.45,77.8C165,81.68,174.32,91,178.2,105.55A6,6,0,0,0,184,110a5.94,5.94,0,0,0,1.55-.2,6,6,0,0,0,4.25-7.35c-5-18.71-17.54-31.25-36.25-36.25a6,6,0,1,0-3.1,11.6Zm79.44,97A54.25,54.25,0,0,1,176,222C97.7,222,34,158.3,34,80A54.25,54.25,0,0,1,81.17,26.11,14,14,0,0,1,95.73,34.5l21.1,47.1a14,14,0,0,1-1.12,13.28,6,6,0,0,1-.42.57L94.22,120.51a1.89,1.89,0,0,0,0,1.67c7.66,15.68,24.1,32,40,39.65a1.88,1.88,0,0,0,1.68-.06l24.69-21a4.81,4.81,0,0,1,.56-.42,14,14,0,0,1,13.28-1.22l47.24,21.17A14,14,0,0,1,229.89,174.83ZM218,173.32a2,2,0,0,0-1.21-2l-47.25-21.17a1.92,1.92,0,0,0-1.6.1l-24.68,21c-.18.15-.37.29-.56.42a14,14,0,0,1-13.77,1c-18.36-8.87-36.66-27-45.53-45.19a14,14,0,0,1,.91-13.73,4.73,4.73,0,0,1,.43-.57l21.06-25.06a2,2,0,0,0,0-1.67L84.74,39.31A2,2,0,0,0,82.9,38h-.23A42.24,42.24,0,0,0,46,80c0,71.68,58.32,130,130,130A42.24,42.24,0,0,0,218,173.32Z"/></svg>