<svg xmlns="http://www.w3.org/2000/svg" viewBox="0 0 256 256" fill="currentColor"><path d="M245.63,40A6,6,0,0,0,240,34.37c-51-3-91.88,12.42-109.35,41.26-11.63,19.21-11.38,42.68.53,65a69.42,69.42,0,0,0-15.48,30.59L95.9,151.41c8.15-16.1,8.1-32.95-.32-46.85C82.77,83.41,53,72.07,15.9,74.27a6,6,0,0,0-5.63,5.64C8.09,117,19.41,146.77,40.56,159.58A43.75,43.75,0,0,0,63.44,166a53.17,53.17,0,0,0,24-6L114,186.48V216a6,6,0,0,0,12,0V186.51A57.55,57.55,0,0,1,139.76,149c11.21,5.93,22.72,8.91,33.82,8.91a58.9,58.9,0,0,0,30.79-8.57C233.21,131.89,248.63,91,245.63,40ZM46.78,149.31C30.47,139.44,21.39,116,22,86c30-.65,53.41,8.44,63.28,24.75,5.68,9.37,6.16,20.38,1.54,31.59L60.24,115.75a6,6,0,0,0-8.49,8.49l26.62,26.61C67.16,155.47,56.15,155,46.78,149.31Zm151.38-10.22c-14.74,8.92-32.14,9.18-49.67.9l55.76-55.75a6,6,0,0,0-8.49-8.49L140,131.51c-8.28-17.53-8-34.93.9-49.66,14.52-24,49.06-37.18,93-35.75C235.33,90,222.14,124.56,198.16,139.09Z"/></svg>