<svg xmlns="http://www.w3.org/2000/svg" viewBox="0 0 256 256" fill="currentColor"><path d="M240,114H227.48l-28-48.95a14,14,0,0,0-12.15-7H68.64a14,14,0,0,0-12.15,7l-28,49H16a6,6,0,0,0,0,12H26v82a14,14,0,0,0,14,14H64a14,14,0,0,0,14-14V190H178v18a14,14,0,0,0,14,14h24a14,14,0,0,0,14-14V126h10a6,6,0,0,0,0-12ZM66.91,71a2,2,0,0,1,1.73-1H187.36a2,2,0,0,1,1.73,1l24.57,43H42.34ZM66,208a2,2,0,0,1-2,2H40a2,2,0,0,1-2-2V190H66Zm150,2H192a2,2,0,0,1-2-2V190h28v18A2,2,0,0,1,216,210Zm2-32H38V126H218ZM58,152a6,6,0,0,1,6-6H80a6,6,0,0,1,0,12H64A6,6,0,0,1,58,152Zm112,0a6,6,0,0,1,6-6h16a6,6,0,0,1,0,12H176A6,6,0,0,1,170,152ZM98,32a6,6,0,0,1,6-6h48a6,6,0,0,1,0,12H104A6,6,0,0,1,98,32Z"/></svg>