<svg xmlns="http://www.w3.org/2000/svg" viewBox="0 0 256 256" fill="currentColor"><path d="M102,112a6,6,0,0,1-6,6H64a6,6,0,0,1,0-12H96A6,6,0,0,1,102,112Zm-6,26H64a6,6,0,0,0,0,12H96a6,6,0,0,0,0-12Zm0,32H64a6,6,0,0,0,0,12H96a6,6,0,0,0,0-12ZM230,88V200a14,14,0,0,1-14,14H40a14,14,0,0,1-14-14V80a6,6,0,0,1,4.28-5.75l160-48a6,6,0,0,1,3.44,11.5L72.88,74H216A14,14,0,0,1,230,88Zm-12,0a2,2,0,0,0-2-2H38V200a2,2,0,0,0,2,2H216a2,2,0,0,0,2-2Zm-20,56a38,38,0,1,1-38-38A38,38,0,0,1,198,144Zm-12,0a26,26,0,1,0-26,26A26,26,0,0,0,186,144Z"/></svg>