<svg xmlns="http://www.w3.org/2000/svg" viewBox="0 0 256 256" fill="currentColor"><path d="M173.57,117.77a6,6,0,0,1-3.34,7.8L137.5,138.66l19.3,25.74a6,6,0,0,1-9.6,7.2L128,146l-19.2,25.6a6,6,0,1,1-9.6-7.2l19.3-25.74L85.77,125.57a6,6,0,0,1,4.46-11.14L122,127.14V96a6,6,0,0,1,12,0v31.14l31.77-12.71A6,6,0,0,1,173.57,117.77ZM222,56v58.77c0,88.25-74.68,117.52-89.65,122.49a13.5,13.5,0,0,1-8.7,0C108.68,232.31,34,203,34,114.79V56A14,14,0,0,1,48,42H208A14,14,0,0,1,222,56Zm-12,0a2,2,0,0,0-2-2H48a2,2,0,0,0-2,2v58.77c0,80,67.84,106.59,81.43,111.1a1.57,1.57,0,0,0,1.13,0c13.6-4.51,81.44-31.09,81.44-111.1Z"/></svg>