<svg xmlns="http://www.w3.org/2000/svg" viewBox="0 0 256 256" fill="currentColor"><path d="M52.44,36a6,6,0,0,0-9.63,7A14,14,0,0,0,34,56v58.77c0,88.25,74.68,117.52,89.65,122.49a13.5,13.5,0,0,0,8.7,0c7.76-2.58,33.48-12.37,55.29-34.76L203.56,220a6,6,0,0,0,4.44,2,6,6,0,0,0,4.44-10Zm76.12,189.93a1.57,1.57,0,0,1-1.13,0C113.84,221.38,46,194.8,46,114.79V56a2,2,0,0,1,2-2h4.62L179.55,193.62C159.54,214.44,135.72,223.52,128.56,225.89ZM222,56v58.77c0,19.38-3.67,37.37-10.92,53.47a6,6,0,0,1-11-4.93c6.55-14.54,9.87-30.87,9.87-48.54V56a2,2,0,0,0-2-2H98.52a6,6,0,1,1,0-12H208A14,14,0,0,1,222,56Z"/></svg>