<svg xmlns="http://www.w3.org/2000/svg" viewBox="0 0 256 256" fill="currentColor"><path d="M200,50H178.48L164.24,35.76A6,6,0,0,0,160,34H96a6,6,0,0,0-4.21,1.76L77.52,50H56A14,14,0,0,0,42,64V216a14,14,0,0,0,14,14H200a14,14,0,0,0,14-14V64A14,14,0,0,0,200,50Zm-30,8.49V112a2,2,0,0,1-3.25,1.56L135.93,86.92l25-37.5ZM128,77.18,107.21,46h41.58ZM95.07,49.42l25,37.5L89.25,113.54A2,2,0,0,1,86,112V58.49ZM54,216V64a2,2,0,0,1,2-2H74v50a13.87,13.87,0,0,0,8.06,12.68A14.11,14.11,0,0,0,88,126,13.87,13.87,0,0,0,97,122.74l.08-.07,25-21.56V218H56A2,2,0,0,1,54,216Zm148,0a2,2,0,0,1-2,2H134V101.11l25,21.56.08.07A13.87,13.87,0,0,0,168,126a14.08,14.08,0,0,0,6-1.35A13.87,13.87,0,0,0,182,112V62h18a2,2,0,0,1,2,2Z"/></svg>