<svg xmlns="http://www.w3.org/2000/svg" viewBox="0 0 256 256" fill="currentColor"><path d="M62,236a10,10,0,1,1-10-10A10,10,0,0,1,62,236Zm22-42a10,10,0,1,0,10,10A10,10,0,0,0,84,194Zm-64,0a10,10,0,1,0,10,10A10,10,0,0,0,20,194Zm32-32a10,10,0,1,0,10,10A10,10,0,0,0,52,162ZM254,40a6,6,0,0,1-6,6H219.31a2,2,0,0,0-1.41.59l-28.31,28.3L167.83,202.32a14,14,0,0,1-23.71,7.57l-98-98a14,14,0,0,1,7.6-23.71l127.4-21.76,28.3-28.31a13.94,13.94,0,0,1,9.9-4.1H248A6,6,0,0,1,254,40ZM176.66,79.34,55.7,100a2,2,0,0,0-1.11,3.39l98,98a2,2,0,0,0,3.39-1.09Z"/></svg>