<svg xmlns="http://www.w3.org/2000/svg" viewBox="0 0 256 256" fill="currentColor"><path d="M236.24,179.76a6,6,0,0,1,0,8.48l-24,24a6,6,0,0,1-8.48-8.48L217.52,190h-45.4a14.05,14.05,0,0,1-11.4-5.86L85.51,78.84A2,2,0,0,0,83.88,78H32a6,6,0,0,1,0-12H83.88a14.05,14.05,0,0,1,11.4,5.86l75.21,105.3a2,2,0,0,0,1.63.84h45.4l-13.76-13.76a6,6,0,0,1,8.48-8.48Zm-92.07-74.4a6,6,0,0,0,8.37-1.4l18-25.12a2,2,0,0,1,1.63-.84h45.4L203.76,91.76a6,6,0,1,0,8.48,8.48l24-24a6,6,0,0,0,0-8.48l-24-24a6,6,0,0,0-8.48,8.48L217.52,66h-45.4a14.05,14.05,0,0,0-11.4,5.86L142.78,97A6,6,0,0,0,144.17,105.36Zm-32.34,45.28a6,6,0,0,0-8.37,1.4L85.51,177.16a2,2,0,0,1-1.63.84H32a6,6,0,0,0,0,12H83.88a14.05,14.05,0,0,0,11.4-5.86L113.22,159A6,6,0,0,0,111.83,150.64Z"/></svg>