<svg xmlns="http://www.w3.org/2000/svg" viewBox="0 0 256 256" fill="currentColor"><path d="M232,170H60.6c3.34-6.54,6.73-13.35,10.06-20.29,15.1,2.53,33.41-8.49,54.63-32.88,4.1,12.34,12.37,30.12,26.63,32.82,10.08,1.91,20.18-3.68,30.73-17C188.53,140.82,201.84,150,232,150a6,6,0,0,0,0-12c-40.32,0-41.94-17.14-42-18.12a6,6,0,0,0-11.7-1.75c-9.26,13.93-17.81,20.93-24.14,19.73-5-.94-10.21-7.13-14.63-17.42a105.06,105.06,0,0,1-5.65-17.65,6,6,0,0,0-11.22-1.52c-18.41,22.9-34.79,35.72-46.48,36.65C100,85.84,107.23,52.7,98.23,36.78,95.46,31.88,89.71,26,78,26h-.21c-15,.1-26.89,14.72-32.69,40.14C38.33,96,42.16,132,59.62,145c-4.15,8.65-8.4,17.09-12.52,25H24a6,6,0,0,0,0,12H40.76C28.65,204.58,19,220.66,18.86,220.91a6,6,0,1,0,10.28,6.18c.16-.26,11.56-19.27,25.21-45.09H232a6,6,0,0,0,0-12ZM56.84,68.82C61.1,50.12,69.39,38,78,38c6.36,0,8.59,2.51,9.82,4.69,4,7,6,28.15-22.87,91C54.63,123.37,50.79,95.32,56.84,68.82Z"/></svg>