<svg xmlns="http://www.w3.org/2000/svg" viewBox="0 0 256 256" fill="currentColor"><path d="M196.89,130.94l-51.65-19a2,2,0,0,1-1.15-1.14l-19-51.66a13.92,13.92,0,0,0-26.12,0l-19,51.65a2,2,0,0,1-1.14,1.15l-51.66,19a13.92,13.92,0,0,0,0,26.12l51.65,19a2,2,0,0,1,1.15,1.14l19,51.66a13.92,13.92,0,0,0,26.12,0l19-51.65a2,2,0,0,1,1.14-1.15l51.66-19a13.92,13.92,0,0,0,0-26.12Zm-4.15,14.86-51.66,19a13.94,13.94,0,0,0-8.25,8.26l-19,51.65a1.92,1.92,0,0,1-3.6,0l-19-51.66a14,14,0,0,0-8.25-8.25h0l-51.65-19a1.92,1.92,0,0,1,0-3.6l51.66-19a13.94,13.94,0,0,0,8.25-8.26l19-51.65a1.92,1.92,0,0,1,3.6,0l19,51.66a13.94,13.94,0,0,0,8.26,8.25l51.65,19a1.92,1.92,0,0,1,0,3.6ZM146,40a6,6,0,0,1,6-6h18V16a6,6,0,0,1,12,0V34h18a6,6,0,0,1,0,12H182V64a6,6,0,0,1-12,0V46H152A6,6,0,0,1,146,40ZM246,88a6,6,0,0,1-6,6H230v10a6,6,0,0,1-12,0V94H208a6,6,0,0,1,0-12h10V72a6,6,0,0,1,12,0V82h10A6,6,0,0,1,246,88Z"/></svg>