<svg xmlns="http://www.w3.org/2000/svg" viewBox="0 0 256 256" fill="currentColor"><path d="M233.19,112.86,228,117.43a6,6,0,1,1-7.89-9l5.24-4.57a2,2,0,0,0,.59-2.19,1.86,1.86,0,0,0-1.7-1.38l-8.7-.75a6,6,0,0,1,1-12l8.7.76a13.78,13.78,0,0,1,12.08,9.6A14,14,0,0,1,233.19,112.86Zm-57.44,44.07,2.86,12.41a6,6,0,0,0,5.84,4.65,5.8,5.8,0,0,0,1.36-.16,6,6,0,0,0,4.49-7.19l-2.86-12.41a2.06,2.06,0,0,1,.64-2l7.87-6.86a6,6,0,1,0-7.89-9l-7.87,6.86A14,14,0,0,0,175.75,156.93ZM175.49,96l-10.77-.93A14,14,0,0,1,153,86.58L134,41.2V186c.42.2.83.41,1.23.65l11.89,7.22a6,6,0,0,1-6.23,10.26L129,196.9a1.9,1.9,0,0,0-2,0l-51.11,31A14,14,0,0,1,55,212.76l13.52-58.53a2.06,2.06,0,0,0-.64-2L22.81,112.86a14,14,0,0,1-4.11-15,13.78,13.78,0,0,1,12.08-9.6l59.46-5.14a2,2,0,0,0,1.65-1.22l23.23-55.36a14,14,0,0,1,25.76,0l23.23,55.36a2,2,0,0,0,1.65,1.22l10.76.93a6,6,0,1,1-1,12Zm-54.72,90.6c.4-.24.81-.45,1.23-.65V41.2L103,86.58a14,14,0,0,1-11.68,8.53l-59.47,5.14a1.86,1.86,0,0,0-1.7,1.38,2,2,0,0,0,.59,2.19l45.11,39.35a14,14,0,0,1,4.44,13.76L66.74,215.46a1.94,1.94,0,0,0,.78,2.13,1.81,1.81,0,0,0,2.14.09Zm76.92,12a6,6,0,1,0-11.69,2.7l3.27,14.12a2,2,0,0,1-.79,2.13,1.81,1.81,0,0,1-2.14.09l-11.23-6.82a6,6,0,1,0-6.23,10.25l11.23,6.82A14,14,0,0,0,201,212.76Z"/></svg>