<svg xmlns="http://www.w3.org/2000/svg" viewBox="0 0 256 256" fill="currentColor"><path d="M237.3,97.9a13.78,13.78,0,0,0-12.08-9.6l-59.46-5.14a2,2,0,0,1-1.65-1.22L140.88,26.58h0a14,14,0,0,0-25.76,0L91.89,81.94a2,2,0,0,1-1.65,1.22L30.78,88.3A13.78,13.78,0,0,0,18.7,97.9a14,14,0,0,0,4.11,15l45.11,39.35a2.06,2.06,0,0,1,.64,2L55,212.76a14,14,0,0,0,5.45,14.56,13.74,13.74,0,0,0,15.4.62l51.11-31a1.9,1.9,0,0,1,2,0l51.11,31A14,14,0,0,0,201,212.76l-13.52-58.53a2.06,2.06,0,0,1,.64-2l45.11-39.35A14,14,0,0,0,237.3,97.9Zm-12,5.92-45.11,39.35a14,14,0,0,0-4.44,13.76l13.52,58.53a2,2,0,0,1-.79,2.13,1.81,1.81,0,0,1-2.14.09l-51.11-31a13.92,13.92,0,0,0-14.46,0l-51.11,31a1.81,1.81,0,0,1-2.14-.09,2,2,0,0,1-.79-2.13l13.52-58.53a14,14,0,0,0-4.44-13.76L30.7,103.82a2,2,0,0,1-.59-2.19,1.86,1.86,0,0,1,1.7-1.38l59.47-5.14A14,14,0,0,0,103,86.58l23.23-55.36a2,2,0,0,1,3.62,0L153,86.58a14,14,0,0,0,11.68,8.53l59.47,5.14a1.86,1.86,0,0,1,1.7,1.38A2,2,0,0,1,225.3,103.82Z"/></svg>