<svg xmlns="http://www.w3.org/2000/svg" viewBox="0 0 256 256" fill="currentColor"><path d="M210,152a10,10,0,1,1-10-10A10,10,0,0,1,210,152Zm-4.35,37.58A46.05,46.05,0,0,1,160,230H136a46.06,46.06,0,0,1-46-46V141.71A62,62,0,0,1,34,80V40A14,14,0,0,1,48,26H64a6,6,0,0,1,0,12H48a2,2,0,0,0-2,2V80a50,50,0,0,0,50,50h.67c27.2-.36,49.33-23.16,49.33-50.83V40a2,2,0,0,0-2-2H128a6,6,0,0,1,0-12h16a14,14,0,0,1,14,14V79.17c0,32.43-24.68,59.44-56,62.52V184a34,34,0,0,0,34,34h24a34.05,34.05,0,0,0,33.56-28.56,38,38,0,1,1,12.09.14ZM226,152a26,26,0,1,0-26,26A26,26,0,0,0,226,152Z"/></svg>