<svg xmlns="http://www.w3.org/2000/svg" viewBox="0 0 256 256" fill="currentColor"><path d="M230,96a6.19,6.19,0,0,0-.22-1.65l-14.34-50.2A14.07,14.07,0,0,0,202,34H54A14.07,14.07,0,0,0,40.57,44.15L26.23,94.35A6.19,6.19,0,0,0,26,96v16A38,38,0,0,0,42,143V208a14,14,0,0,0,14,14H200a14,14,0,0,0,14-14V143A38,38,0,0,0,230,112ZM52.11,47.45A2,2,0,0,1,54,46H202a2,2,0,0,1,1.92,1.45L216.05,90H40ZM102,102h52v10a26,26,0,0,1-52,0Zm-64,0H90v10a26,26,0,0,1-52,0ZM202,208a2,2,0,0,1-2,2H56a2,2,0,0,1-2-2V148.66a38,38,0,0,0,42-16.21,37.95,37.95,0,0,0,64,0,38,38,0,0,0,42,16.21Zm-10-70a26,26,0,0,1-26-26V102h52v10A26,26,0,0,1,192,138Z"/></svg>