<svg xmlns="http://www.w3.org/2000/svg" viewBox="0 0 256 256" fill="currentColor"><path d="M68,154a34,34,0,1,0,34,34A34,34,0,0,0,68,154Zm0,56a22,22,0,1,1,22-22A22,22,0,0,1,68,210ZM35.76,107.76,51.52,92,35.76,76.24a6,6,0,0,1,8.48-8.48L60,83.52,75.76,67.76a6,6,0,0,1,8.48,8.48L68.48,92l15.76,15.76a6,6,0,1,1-8.48,8.48L60,100.48,44.24,116.24a6,6,0,0,1-8.48-8.48Zm184.48,96a6,6,0,1,1-8.48,8.48L196,196.48l-15.76,15.76a6,6,0,0,1-8.48-8.48L187.52,188l-15.76-15.76a6,6,0,0,1,8.48-8.48L196,179.52l15.76-15.76a6,6,0,0,1,8.48,8.48L204.48,188ZM174.55,112.3c-6,21.66-24.55,40.38-45.09,45.52A6.14,6.14,0,0,1,128,158a6,6,0,0,1-1.46-11.82c16.29-4.07,31.62-19.67,36.44-37.09,3.33-12,3.39-30.24-15.22-48.85L142,54.48V80a6,6,0,0,1-12,0V40a6,6,0,0,1,6-6h40a6,6,0,0,1,0,12H150.48l5.76,5.76C174,69.47,180.45,91,174.55,112.3Z"/></svg>