<svg xmlns="http://www.w3.org/2000/svg" viewBox="0 0 256 256" fill="currentColor"><path d="M179.06,79.41a6,6,0,0,1,1.53-8.35c9.76-6.73,25.06-6.73,34.82,0,5.64,3.89,15.54,3.89,21.18,0a6,6,0,1,1,6.82,9.88,32.54,32.54,0,0,1-34.82,0c-5.64-3.89-15.54-3.89-21.18,0A6,6,0,0,1,179.06,79.41Zm57.53,23.65c-5.64,3.89-15.54,3.89-21.18,0-9.76-6.73-25.06-6.73-34.82,0a6,6,0,1,0,6.82,9.88c5.64-3.89,15.54-3.89,21.18,0a32.54,32.54,0,0,0,34.82,0,6,6,0,0,0-6.82-9.88ZM150,184a30,30,0,1,1-36-29.4V48a6,6,0,0,1,12,0V154.6A30.05,30.05,0,0,1,150,184Zm-12,0a18,18,0,1,0-18,18A18,18,0,0,0,138,184Zm44,0A62,62,0,1,1,82,135V48a38,38,0,0,1,76,0v87A62.06,62.06,0,0,1,182,184Zm-12,0a50.07,50.07,0,0,0-21.43-41A6,6,0,0,1,146,138V48a26,26,0,0,0-52,0v90A6,6,0,0,1,91.43,143,50,50,0,1,0,170,184Z"/></svg>