<svg xmlns="http://www.w3.org/2000/svg" viewBox="0 0 256 256" fill="currentColor"><path d="M226.79,102.52A14,14,0,0,0,238,88.81V64a14,14,0,0,0-14-14H32A14,14,0,0,0,18,64V88.81a14,14,0,0,0,11.21,13.71,26,26,0,0,1,0,51A14,14,0,0,0,18,167.19V192a14,14,0,0,0,14,14H224a14,14,0,0,0,14-14V167.19a14,14,0,0,0-11.21-13.71,26,26,0,0,1,0-51ZM30,192V167.19a2,2,0,0,1,1.59-1.95,38,38,0,0,0,0-74.48,2,2,0,0,1-1.59-2V64a2,2,0,0,1,2-2H90V194H32A2,2,0,0,1,30,192Zm194.41-26.76a2,2,0,0,1,1.59,1.95V192a2,2,0,0,1-2,2H102V62H224a2,2,0,0,1,2,2V88.81a2,2,0,0,1-1.59,2,38,38,0,0,0,0,74.48Z"/></svg>