<svg xmlns="http://www.w3.org/2000/svg" viewBox="0 0 256 256" fill="currentColor"><path d="M168,110h48a14,14,0,0,0,14-14V48a14,14,0,0,0-14-14H168a14,14,0,0,0-14,14V66H144a30,30,0,0,0-30,30v26H78V112A14,14,0,0,0,64,98H32a14,14,0,0,0-14,14v32a14,14,0,0,0,14,14H64a14,14,0,0,0,14-14V134h36v26a30,30,0,0,0,30,30h10v18a14,14,0,0,0,14,14h48a14,14,0,0,0,14-14V160a14,14,0,0,0-14-14H168a14,14,0,0,0-14,14v18H144a18,18,0,0,1-18-18V96a18,18,0,0,1,18-18h10V96A14,14,0,0,0,168,110ZM66,144a2,2,0,0,1-2,2H32a2,2,0,0,1-2-2V112a2,2,0,0,1,2-2H64a2,2,0,0,1,2,2Zm100,16a2,2,0,0,1,2-2h48a2,2,0,0,1,2,2v48a2,2,0,0,1-2,2H168a2,2,0,0,1-2-2Zm0-112a2,2,0,0,1,2-2h48a2,2,0,0,1,2,2V96a2,2,0,0,1-2,2H168a2,2,0,0,1-2-2Z"/></svg>