<svg xmlns="http://www.w3.org/2000/svg" viewBox="0 0 256 256" fill="currentColor"><path d="M197.26,64.41a2,2,0,0,1-1-1,74,74,0,0,0-136.52,0,2,2,0,0,1-1,1A70.25,70.25,0,0,0,18,127.8C17.9,165.54,48.49,197,86.2,198a69.4,69.4,0,0,0,35.8-8.8V232a6,6,0,0,0,12,0V189.18A69.54,69.54,0,0,0,168,198l1.81,0c37.7-1,68.29-32.44,68.19-70.18A70.27,70.27,0,0,0,197.26,64.41ZM169.5,186a57.58,57.58,0,0,1-33.69-9.74,14.77,14.77,0,0,0-1.81-1v-43.5l44.68-22.34a6,6,0,1,0-5.36-10.74L134,118.29V88a6,6,0,0,0-12,0v54.29L82.68,122.63a6,6,0,0,0-5.36,10.74L122,155.71v19.5a14.77,14.77,0,0,0-1.81,1A57.51,57.51,0,0,1,86.5,186,58,58,0,0,1,63.76,75.31,14,14,0,0,0,70.81,68a62,62,0,0,1,114.38,0,14,14,0,0,0,7.05,7.29A58,58,0,0,1,169.5,186Z"/></svg>