<svg xmlns="http://www.w3.org/2000/svg" viewBox="0 0 256 256" fill="currentColor"><path d="M245.57,117.78l-14-35a13.93,13.93,0,0,0-13-8.8H182V64a6,6,0,0,0-6-6H24A14,14,0,0,0,10,72V184a14,14,0,0,0,14,14H42.6a30,30,0,0,0,58.8,0h53.2a30,30,0,0,0,58.8,0H232a14,14,0,0,0,14-14V120A6,6,0,0,0,245.57,117.78ZM182,86h36.58a2,2,0,0,1,1.86,1.26L231.14,114H182ZM22,72a2,2,0,0,1,2-2H170v68H22ZM72,210a18,18,0,1,1,18-18A18,18,0,0,1,72,210Zm82.6-24H101.4a30,30,0,0,0-58.8,0H24a2,2,0,0,1-2-2V150H170v15.48A30.1,30.1,0,0,0,154.6,186ZM184,210a18,18,0,1,1,18-18A18,18,0,0,1,184,210Zm50-26a2,2,0,0,1-2,2H213.4A30.05,30.05,0,0,0,184,162c-.67,0-1.34,0-2,.07V126h52Z"/></svg>