<svg xmlns="http://www.w3.org/2000/svg" viewBox="0 0 256 256" fill="currentColor"><path d="M252.55,116.09,207,63a14,14,0,0,0-10.74-5H32A14,14,0,0,0,18,72V184a14,14,0,0,0,14,14H50.6a30,30,0,0,0,58.8,0h53.2a30,30,0,0,0,58.8,0H240a14,14,0,0,0,14-14V120A6,6,0,0,0,252.55,116.09Zm-54.7-45.32L234.94,114H174V70h22.26A2,2,0,0,1,197.85,70.77ZM102,114V70h60v44ZM32,70H90v44H30V72A2,2,0,0,1,32,70ZM80,210a18,18,0,1,1,18-18A18,18,0,0,1,80,210Zm112,0a18,18,0,1,1,18-18A18,18,0,0,1,192,210Zm48-24H221.4a30,30,0,0,0-58.8,0H109.4a30,30,0,0,0-58.8,0H32a2,2,0,0,1-2-2V126H242v58A2,2,0,0,1,240,186Z"/></svg>