<svg xmlns="http://www.w3.org/2000/svg" viewBox="0 0 256 256" fill="currentColor"><path d="M248,216a8,8,0,0,1-8,8H96a8,8,0,0,1,0-16H240A8,8,0,0,1,248,216Zm-26.16-24.3L45.21,142.24A40.12,40.12,0,0,1,16,103.72V48A16,16,0,0,1,37.06,32.82l5.47,1.82a8,8,0,0,1,5,4.87L58.13,68.88,88,77.39V48a16,16,0,0,1,21.06-15.18l5.47,1.82a8,8,0,0,1,4.85,4.5l22.5,53.63,60.84,17A40.13,40.13,0,0,1,232,148.32V184a8,8,0,0,1-10.16,7.7ZM216,148.32a24.09,24.09,0,0,0-17.58-23.13l-64.57-18a8,8,0,0,1-5.23-4.61L106,48.67,104,48V88a8,8,0,0,1-10.19,7.7l-44-12.54a8,8,0,0,1-5.33-5L33.79,48.59,32,48v55.72a24.09,24.09,0,0,0,17.53,23.12L216,173.45Z"/></svg>