<svg xmlns="http://www.w3.org/2000/svg" viewBox="0 0 256 256" fill="currentColor"><path d="M176,156a12,12,0,1,1-12-12A12,12,0,0,1,176,156ZM92,144a12,12,0,1,0,12,12A12,12,0,0,0,92,144Zm148,24v24a16,16,0,0,1-16,16H32a16,16,0,0,1-16-16V169.13A113.38,113.38,0,0,1,51.4,86.72L26.34,61.66A8,8,0,0,1,37.66,50.34L63.82,76.5a111.43,111.43,0,0,1,128.55-.19l26-26a8,8,0,0,1,11.32,11.32L204.82,86.5c.75.71,1.5,1.43,2.24,2.17A111.25,111.25,0,0,1,240,168Zm-16,0a96,96,0,0,0-96-96h-.34C74.91,72.18,32,115.75,32,169.13V192H224Z"/></svg>