<svg xmlns="http://www.w3.org/2000/svg" viewBox="0 0 256 256" fill="currentColor"><path d="M188.8,169.6,133.33,128l23.47-17.6a8,8,0,0,0-9.6-12.8L128,112V48l19.2,14.4a8,8,0,1,0,9.6-12.8l-32-24A8,8,0,0,0,112,32v80L60.8,73.6a8,8,0,0,0-9.6,12.8L106.67,128,51.2,169.6a8,8,0,1,0,9.6,12.8L112,144v80a8,8,0,0,0,12.8,6.4l64-48a8,8,0,0,0,0-12.8ZM128,208V144l42.67,32ZM237.66,98.34a8,8,0,0,1-11.32,11.32L208,91.31l-18.34,18.35a8,8,0,0,1-11.32-11.32L196.69,80,178.34,61.66a8,8,0,0,1,11.32-11.32L208,68.69l18.34-18.35a8,8,0,0,1,11.32,11.32L219.31,80Z"/></svg>