<svg xmlns="http://www.w3.org/2000/svg" viewBox="0 0 256 256" fill="currentColor"><path d="M208,144h16a8,8,0,0,0,0-16H208V112h16a8,8,0,0,0,0-16H207.6a79.76,79.76,0,0,0-21.44-46.85l19.5-19.49a8,8,0,1,0-11.32-11.32l-20.29,20.3a79.74,79.74,0,0,0-92.1,0L61.66,18.34A8,8,0,0,0,50.34,29.66l19.5,19.49A79.76,79.76,0,0,0,48.4,96H32a8,8,0,0,0,0,16H48v16H32a8,8,0,0,0,0,16H48v8c0,2.7.14,5.37.4,8H32a8,8,0,0,0,0,16H51.68a80,80,0,0,0,152.64,0H224a8,8,0,0,0,0-16H207.6c.26-2.63.4-5.3.4-8ZM128,40a64.07,64.07,0,0,1,63.48,56h-127A64.07,64.07,0,0,1,128,40Zm8,175.48V136a8,8,0,0,0-16,0v79.48A64.07,64.07,0,0,1,64,152V112H192v40A64.07,64.07,0,0,1,136,215.48Z"/></svg>