<svg xmlns="http://www.w3.org/2000/svg" viewBox="0 0 256 256" fill="currentColor"><path d="M248,128a56,56,0,1,0-96,39.14V224a8,8,0,0,0,11.58,7.16L192,216.94l28.42,14.22A8,8,0,0,0,232,224V167.14A55.81,55.81,0,0,0,248,128ZM192,88a40,40,0,1,1-40,40A40,40,0,0,1,192,88Zm3.58,112.84a8,8,0,0,0-7.16,0L168,211.06V178.59a55.94,55.94,0,0,0,48,0v32.47ZM136,192a8,8,0,0,1-8,8H40a16,16,0,0,1-16-16V56A16,16,0,0,1,40,40H216a16,16,0,0,1,16,16,8,8,0,0,1-16,0H40V184h88A8,8,0,0,1,136,192Zm-16-56a8,8,0,0,1-8,8H72a8,8,0,0,1,0-16h40A8,8,0,0,1,120,136Zm0-32a8,8,0,0,1-8,8H72a8,8,0,0,1,0-16h40A8,8,0,0,1,120,104Z"/></svg>