<svg xmlns="http://www.w3.org/2000/svg" viewBox="0 0 256 256" fill="currentColor"><path d="M243.84,76.19a12.08,12.08,0,0,0-13.34-1.7l-50.21,25L138.37,29.86a12.11,12.11,0,0,0-20.74,0L75.71,99.52l-50.19-25A12.11,12.11,0,0,0,8.62,89.12l37,113.36a8,8,0,0,0,11.68,4.4C57.55,206.73,83.12,192,128,192s70.45,14.73,70.68,14.87a8,8,0,0,0,11.71-4.39l37-113.33A12.06,12.06,0,0,0,243.84,76.19ZM198,188.83C186,183.74,162.08,176,128,176s-58,7.74-70,12.83L26.71,93l45.07,22.47a12.17,12.17,0,0,0,15.78-4.59L128,43.66l40.44,67.2a12.17,12.17,0,0,0,15.77,4.59L229.29,93Z"/></svg>