<svg xmlns="http://www.w3.org/2000/svg" viewBox="0 0 256 256" fill="currentColor"><path d="M116.17,107.1h0a16.75,16.75,0,0,0,23.66,0L171.1,75.82a16.72,16.72,0,0,0,0-23.65L139.83,20.89a16.75,16.75,0,0,0-23.66,0L84.9,52.17a16.72,16.72,0,0,0,0,23.65Zm-20-43.62,31.28-31.27a.71.71,0,0,1,1,0l31.28,31.27a.74.74,0,0,1,0,1L128.51,95.79a.72.72,0,0,1-1,0L96.21,64.51A.74.74,0,0,1,96.21,63.48Zm138.9,52.69L203.83,84.89a16.74,16.74,0,0,0-23.65,0L148.9,116.17a16.75,16.75,0,0,0,0,23.66l31.28,31.28h0a16.74,16.74,0,0,0,23.65,0l31.28-31.28A16.75,16.75,0,0,0,235.11,116.17ZM223.8,128.51l-31.28,31.28a.74.74,0,0,1-1,0l-31.28-31.28a.72.72,0,0,1,0-1l31.28-31.28a.74.74,0,0,1,1,0l31.28,31.28A.72.72,0,0,1,223.8,128.51ZM107.1,116.17,75.82,84.89a16.74,16.74,0,0,0-23.65,0L20.89,116.17a16.75,16.75,0,0,0,0,23.66l31.28,31.28h0a16.74,16.74,0,0,0,23.65,0l31.28-31.28A16.75,16.75,0,0,0,107.1,116.17ZM95.79,128.51,64.51,159.79a.74.74,0,0,1-1,0L32.2,128.51a.72.72,0,0,1,0-1L63.48,96.21a.74.74,0,0,1,1,0l31.28,31.28A.72.72,0,0,1,95.79,128.51Zm44,20.39a16.75,16.75,0,0,0-23.66,0L84.9,180.18a16.72,16.72,0,0,0,0,23.65l31.27,31.28h0a16.75,16.75,0,0,0,23.66,0l31.27-31.28a16.72,16.72,0,0,0,0-23.65Zm20,43.62-31.28,31.27a.71.71,0,0,1-1,0L96.21,192.52a.74.74,0,0,1,0-1l31.28-31.28a.72.72,0,0,1,1,0l31.28,31.28A.74.74,0,0,1,159.79,192.52Z"/></svg>