<svg xmlns="http://www.w3.org/2000/svg" viewBox="0 0 256 256" fill="currentColor"><path d="M170.34,85.66a8,8,0,0,1,11.32-11.32L192,84.69V48a8,8,0,0,1,16,0V84.69l10.34-10.35a8,8,0,0,1,11.32,11.32l-24,24a8,8,0,0,1-11.32,0ZM240,160v40a16,16,0,0,1-16,16H171.5a16.06,16.06,0,0,1-11.76-5.15L68.5,112H32A16,16,0,0,1,16,96V56A16,16,0,0,1,32,40H84.5a16.06,16.06,0,0,1,11.76,5.15L187.5,144H224A16,16,0,0,1,240,160Zm-16,0H187.5a16.06,16.06,0,0,1-11.76-5.15L84.5,56H32V96H68.5a16.06,16.06,0,0,1,11.76,5.15L171.5,200H224Z"/></svg>