<svg xmlns="http://www.w3.org/2000/svg" viewBox="0 0 256 256" fill="currentColor"><path d="M168.06,75.94a12,12,0,1,1-12-12A12,12,0,0,1,168.06,75.94Zm39.87,81c-20.76,26.37-53.85,40.74-98.41,42.77l-22,51.42A8,8,0,0,1,80.13,256l-.51,0a8,8,0,0,1-7.19-5.78L57.62,198.37,5.8,183.53a8,8,0,0,1-1-15.05l51.43-22c2-44.57,16.41-77.66,42.79-98.41,43.21-34,104.91-22.83,116.84-20.25a16,16,0,0,1,12.26,12.26C230.76,52,241.94,113.76,207.93,157ZM161.6,172.61a52.12,52.12,0,0,1-33.42-44.79A52.1,52.1,0,0,1,83.4,94.41c-7,15.86-10.76,35.11-11.3,57.62a8,8,0,0,1-4.85,7.16L31.84,174.34l34.46,9.87a8,8,0,0,1,5.49,5.49l9.84,34.46,15.18-35.41A8,8,0,0,1,104,183.9C126.48,183.37,145.73,179.59,161.6,172.61ZM212.53,43.47c-10.7-2.32-66-12.39-103.57,17.18A80.9,80.9,0,0,0,96.13,73.32a36,36,0,0,0,39.36,38.47,8,8,0,0,1,8.72,8.72,36,36,0,0,0,38.49,39.36,80.64,80.64,0,0,0,12.65-12.81C224.92,109.49,214.85,54.18,212.53,43.47Z"/></svg>