<svg xmlns="http://www.w3.org/2000/svg" viewBox="0 0 256 256" fill="currentColor"><path d="M168,24V8a8,8,0,0,1,16,0V24a8,8,0,0,1-16,0Zm35.83,17A7.9,7.9,0,0,0,208,42.13a8,8,0,0,0,6.84-3.83l8-13.11a8,8,0,1,0-13.66-8.33l-8,13.1A8,8,0,0,0,203.83,41Zm47.44,12.59a8,8,0,0,0-10.07-5.16l-15,4.85a8,8,0,0,0,2.45,15.62,8.15,8.15,0,0,0,2.46-.39l15-4.85A8,8,0,0,0,251.27,53.55Zm-30,39.94A79.71,79.71,0,0,1,208.68,190,80,80,0,0,1,62.49,208l-35-60.63A26,26,0,0,1,46.67,108.6l-4-6.94A26,26,0,0,1,61,63,26,26,0,0,1,72.4,31.63a26.05,26.05,0,0,1,30.81,3.58A26,26,0,0,1,147.09,37l12,20.79a26,26,0,0,1,43.18,2.78ZM115.92,55h0l5.93,10.27a25.87,25.87,0,0,1,5,6.24l12,20.75a26.2,26.2,0,0,1,16-9.78L133.24,45a10,10,0,0,0-13.66-3.66A10,10,0,0,0,115.92,55ZM76.74,59.15l5.93,10.28.32.29A25.93,25.93,0,0,1,99.71,58.94l-5.65-9.79a10,10,0,0,0-18.32,2.41A9.92,9.92,0,0,0,76.74,59.15ZM193.59,184.57a63.61,63.61,0,0,0-6.4-48.57l-19-32.91a10,10,0,0,0-17.74,9.18L161.87,132A8,8,0,1,1,148,140L113,79.53A10,10,0,0,0,95.63,89.4L120.26,132a8,8,0,1,1-13.85,8L73.84,83.66a10,10,0,1,0-17.32,10l36,62.36a8,8,0,1,1-13.86,8l-20-34.64a10,10,0,0,0-17.32,10l35,60.63a64,64,0,0,0,117.25-15.44Zm13.82-83.08-19-32.91a10,10,0,0,0-17.32,10h0L177,88.83a26.06,26.06,0,0,1,5,6.26l19,32.91a80.13,80.13,0,0,1,10.13,30A63.82,63.82,0,0,0,207.41,101.49Z"/></svg>