<svg xmlns="http://www.w3.org/2000/svg" viewBox="0 0 256 256" fill="currentColor"><path d="M220.2,100l-18-31.18a28,28,0,0,0-47.3-1.92L139.56,40.31a28,28,0,0,0-48.12-.63,28,28,0,0,0-43,34.78l3.34,5.79a28,28,0,0,0-22,41.92l38,65.82a87.46,87.46,0,0,0,53.43,41,88.56,88.56,0,0,0,22.92,3A88,88,0,0,0,220.2,100Zm-6.67,62.63A72,72,0,0,1,81.63,180l-38-65.82a12,12,0,0,1,20.79-12l22,38.1a8,8,0,1,0,13.85-8l-38-65.81a12,12,0,0,1,13.5-17.59,11.9,11.9,0,0,1,7.29,5.59l34,58.89a8,8,0,0,0,13.85-8l-26-45h0a12,12,0,0,1,20.78-12L160,107.78a48.08,48.08,0,0,0-11,61,8,8,0,0,0,13.86-8,32,32,0,0,1,11.71-43.71,8,8,0,0,0,2.93-10.93l-10-17.32a12,12,0,0,1,20.78-12l18,31.18A71.49,71.49,0,0,1,213.53,162.62ZM184.27,29.93a8,8,0,0,1,9.8-5.66c15.91,4.27,29,14.11,36.86,27.73a8,8,0,0,1-13.86,8c-5.72-9.92-15.36-17.12-27.14-20.27A8,8,0,0,1,184.27,29.93ZM80.91,237a8,8,0,0,1-11.24,1.33c-11-8.69-20.11-19.58-28.6-34.28a8,8,0,0,1,13.86-8c7.44,12.88,15.27,22.32,24.65,29.72A8,8,0,0,1,80.91,237Z"/></svg>