<svg xmlns="http://www.w3.org/2000/svg" viewBox="0 0 256 256" fill="currentColor"><path d="M201.89,62.66A103.43,103.43,0,0,0,128.79,32H128A104,104,0,0,0,24,136v56a24,24,0,0,0,24,24H64a24,24,0,0,0,24-24V152a24,24,0,0,0-24-24H40.36A88,88,0,0,1,128,48h.67a87.71,87.71,0,0,1,87,80H192a24,24,0,0,0-24,24v40a24,24,0,0,0,24,24h16a24,24,0,0,0,24-24V136A103.41,103.41,0,0,0,201.89,62.66ZM64,144a8,8,0,0,1,8,8v40a8,8,0,0,1-8,8H48a8,8,0,0,1-8-8V144Zm152,48a8,8,0,0,1-8,8H192a8,8,0,0,1-8-8V152a8,8,0,0,1,8-8h24Z"/></svg>