<svg xmlns="http://www.w3.org/2000/svg" viewBox="0 0 256 256" fill="currentColor"><path d="M154.34,101.66a8,8,0,0,1,0-11.32L188.69,56H168a8,8,0,0,1,0-16h40a8,8,0,0,1,8,8V88a8,8,0,0,1-16,0V67.31l-34.34,34.35a8,8,0,0,1-11.32,0Zm77.54,73.42A56.26,56.26,0,0,1,176,224C96.6,224,32,159.4,32,80A56.26,56.26,0,0,1,80.92,24.12a16,16,0,0,1,16.62,9.51l21.12,47.16,0,.12A16,16,0,0,1,117.39,96c-.18.27-.37.52-.57.77L96,121.45c7.49,15.22,23.41,31,38.83,38.51l24.34-20.71a8.12,8.12,0,0,1,.75-.56,15.93,15.93,0,0,1,15.17-1.4l.13.06,47.11,21.11A16,16,0,0,1,231.88,175.08Zm-15.88-2s-.07,0-.11,0h0l-47-21.06-24.35,20.72a8.44,8.44,0,0,1-.74.56,16,16,0,0,1-15.75,1.14c-18.73-9.05-37.4-27.58-46.46-46.11a16,16,0,0,1,1-15.7,6.13,6.13,0,0,1,.57-.77L104,87.15l-21-47a.61.61,0,0,1,0-.12A40.2,40.2,0,0,0,48,80,128.14,128.14,0,0,0,176,208,40.21,40.21,0,0,0,216,173.07Z"/></svg>