<svg xmlns="http://www.w3.org/2000/svg" viewBox="0 0 256 256" fill="currentColor"><path d="M237.66,18.34a8,8,0,0,0-11.32,0l-52.4,52.41-5.37-5.38a32.05,32.05,0,0,0-45.26,0L100,88.69l-6.34-6.35A8,8,0,0,0,82.34,93.66L88.69,100,65.37,123.31a32,32,0,0,0,0,45.26l5.38,5.37-52.41,52.4a8,8,0,0,0,11.32,11.32l52.4-52.41,5.37,5.38a32,32,0,0,0,45.26,0L156,167.31l6.34,6.35a8,8,0,0,0,11.32-11.32L167.31,156l23.32-23.31a32,32,0,0,0,0-45.26l-5.38-5.37,52.41-52.4A8,8,0,0,0,237.66,18.34Zm-116.29,161a16,16,0,0,1-22.62,0L76.69,157.25a16,16,0,0,1,0-22.62L100,111.31,144.69,156Zm57.94-57.94L156,144.69,111.31,100l23.32-23.31a16,16,0,0,1,22.62,0l22.06,22A16,16,0,0,1,179.31,121.37ZM88.41,34.53a8,8,0,0,1,15.18-5.06l8,24a8,8,0,0,1-15.18,5.06Zm-64,58.94a8,8,0,0,1,10.12-5.06l24,8a8,8,0,0,1-5.06,15.18l-24-8A8,8,0,0,1,24.41,93.47Zm207.18,69.06a8,8,0,0,1-10.12,5.06l-24-8a8,8,0,0,1,5.06-15.18l24,8A8,8,0,0,1,231.59,162.53Zm-64,58.94a8,8,0,0,1-15.18,5.06l-8-24a8,8,0,0,1,15.18-5.06Z"/></svg>