<svg xmlns="http://www.w3.org/2000/svg" viewBox="0 0 256 256" fill="currentColor"><path d="M128,24A104,104,0,1,0,232,128,104.11,104.11,0,0,0,128,24Zm0,192a88,88,0,1,1,88-88A88.1,88.1,0,0,1,128,216Zm53.66-53.66a8,8,0,0,1-11.32,11.32L160,163.31l-10.34,10.35a8,8,0,0,1-11.32,0L128,163.31l-10.34,10.35a8,8,0,0,1-11.32,0L96,163.31,85.66,173.66a8,8,0,0,1-11.32-11.32l16-16a8,8,0,0,1,11.32,0L112,156.69l10.34-10.35a8,8,0,0,1,11.32,0L144,156.69l10.34-10.35a8,8,0,0,1,11.32,0ZM80,108a12,12,0,1,1,12,12A12,12,0,0,1,80,108Zm72,0a12,12,0,1,1,12,12A12,12,0,0,1,152,108Z"/></svg>