<svg xmlns="http://www.w3.org/2000/svg" viewBox="0 0 256 256" fill="currentColor"><path d="M68,152a36,36,0,1,0,36,36A36,36,0,0,0,68,152Zm0,56a20,20,0,1,1,20-20A20,20,0,0,1,68,208ZM34.34,106.34,48.69,92,34.34,77.66A8,8,0,0,1,45.66,66.34L60,80.69,74.34,66.34A8,8,0,0,1,85.66,77.66L71.31,92l14.35,14.34a8,8,0,0,1-11.32,11.32L60,103.31,45.66,117.66a8,8,0,0,1-11.32-11.32Zm187.32,96a8,8,0,0,1-11.32,11.32L196,199.31l-14.34,14.35a8,8,0,0,1-11.32-11.32L184.69,188l-14.35-14.34a8,8,0,0,1,11.32-11.32L196,176.69l14.34-14.35a8,8,0,0,1,11.32,11.32L207.31,188Zm-45.19-89.51c-6.18,22.33-25.32,41.63-46.53,46.93a8.13,8.13,0,0,1-2,.24,8,8,0,0,1-1.93-15.76c15.63-3.91,30.35-18.91,35-35.68,3.19-11.5,3.22-29-14.71-46.9L144,59.31V80a8,8,0,0,1-16,0V40a8,8,0,0,1,8-8h40a8,8,0,0,1,0,16H155.31l2.35,2.34C175.9,68.59,182.58,90.78,176.47,112.83Z"/></svg>