<svg xmlns="http://www.w3.org/2000/svg" viewBox="0 0 256 256" fill="currentColor"><path d="M177.41,80.54a8,8,0,0,1,2.05-11.12c10.4-7.18,26.68-7.18,37.08,0,5,3.47,13.88,3.47,18.92,0a8,8,0,0,1,9.08,13.16,34.64,34.64,0,0,1-37.08,0c-5-3.47-13.88-3.47-18.92,0A8,8,0,0,1,177.41,80.54Zm58.05,20.88c-5,3.47-13.88,3.47-18.92,0-10.4-7.18-26.68-7.18-37.08,0a8,8,0,1,0,9.08,13.16c5-3.47,13.88-3.47,18.92,0a34.64,34.64,0,0,0,37.08,0,8,8,0,0,0-9.08-13.16ZM152,184a32,32,0,1,1-40-31V48a8,8,0,0,1,16,0V153A32.06,32.06,0,0,1,152,184Zm-16,0a16,16,0,1,0-16,16A16,16,0,0,0,136,184Zm48,0A64,64,0,1,1,80,134V48a40,40,0,0,1,80,0v86A64.08,64.08,0,0,1,184,184Zm-16,0a48.08,48.08,0,0,0-20.58-39.4A8,8,0,0,1,144,138V48a24,24,0,0,0-48,0v90a8,8,0,0,1-3.42,6.56A48,48,0,1,0,168,184Z"/></svg>