<svg xmlns="http://www.w3.org/2000/svg" viewBox="0 0 256 256" fill="currentColor"><path d="M198.1,62.6a76,76,0,0,0-140.2,0A72.27,72.27,0,0,0,16,127.8C15.89,166.62,47.36,199,86.14,200A71.68,71.68,0,0,0,120,192.49V232a8,8,0,0,0,16,0V192.49A71.45,71.45,0,0,0,168,200l1.86,0c38.78-1,70.25-33.36,70.14-72.18A72.26,72.26,0,0,0,198.1,62.6ZM169.45,184a55.61,55.61,0,0,1-32.52-9.4q-.47-.3-.93-.57V132.94l43.58-21.78a8,8,0,1,0-7.16-14.32L136,115.06V88a8,8,0,0,0-16,0v51.06L83.58,120.84a8,8,0,1,0-7.16,14.32L120,156.94V174q-.47.27-.93.57A55.7,55.7,0,0,1,86.55,184a56,56,0,0,1-22-106.86,15.9,15.9,0,0,0,8.05-8.33,60,60,0,0,1,110.7,0,15.9,15.9,0,0,0,8.05,8.33,56,56,0,0,1-22,106.86Z"/></svg>