<svg xmlns="http://www.w3.org/2000/svg" viewBox="0 0 256 256" fill="currentColor"><path d="M144,80a8,8,0,0,1,8-8h96a8,8,0,0,1,0,16H152A8,8,0,0,1,144,80Zm104,40H152a8,8,0,0,0,0,16h96a8,8,0,0,0,0-16Zm0,48H176a8,8,0,0,0,0,16h72a8,8,0,0,0,0-16Zm-96.25,22a8,8,0,0,1-5.76,9.74,7.55,7.55,0,0,1-2,.26,8,8,0,0,1-7.75-6c-6.16-23.94-30.34-42-56.25-42s-50.09,18.05-56.25,42a8,8,0,0,1-15.5-4c5.59-21.71,21.84-39.29,42.46-48a48,48,0,1,1,58.58,0C129.91,150.71,146.16,168.29,151.75,190ZM80,136a32,32,0,1,0-32-32A32,32,0,0,0,80,136Z"/></svg>