<svg xmlns="http://www.w3.org/2000/svg" viewBox="0 0 256 256" fill="currentColor"><path d="M216,136H136a8,8,0,0,0-8,8v57.45a8,8,0,0,0,6.57,7.88l80,14.54A7.61,7.61,0,0,0,216,224a8,8,0,0,0,8-8V144A8,8,0,0,0,216,136Zm-8,70.41-64-11.63V152h64ZM104,136H40a8,8,0,0,0-8,8v40a8,8,0,0,0,6.57,7.87l64,11.64a8.54,8.54,0,0,0,1.43.13,8,8,0,0,0,8-8V144A8,8,0,0,0,104,136Zm-8,50.05-48-8.73V152H96ZM221.13,33.86a8,8,0,0,0-6.56-1.73l-80,14.55A8,8,0,0,0,128,54.55V112a8,8,0,0,0,8,8h80a8,8,0,0,0,8-8V40A8,8,0,0,0,221.13,33.86ZM208,104H144V61.22l64-11.63ZM109.13,54.22a8,8,0,0,0-6.56-1.73l-64,11.64A8,8,0,0,0,32,72v40a8,8,0,0,0,8,8h64a8,8,0,0,0,8-8V60.36A8,8,0,0,0,109.13,54.22ZM96,104H48V78.68L96,70Z"/></svg>