<svg xmlns="http://www.w3.org/2000/svg" viewBox="0 0 256 256"><rect width="256" height="256" fill="none"/><path d="M216,112v16c0,53-88,88-88,112,0-24-88-59-88-112V112" fill="none" stroke="currentColor" stroke-linecap="round" stroke-linejoin="round" stroke-width="8"/><path d="M80,56h96a48,48,0,0,1,48,48v0a8,8,0,0,1-8,8H40a8,8,0,0,1-8-8v0A48,48,0,0,1,80,56Z" fill="none" stroke="currentColor" stroke-linecap="round" stroke-linejoin="round" stroke-width="8"/><path d="M128,56V48a32,32,0,0,1,32-32" fill="none" stroke="currentColor" stroke-linecap="round" stroke-linejoin="round" stroke-width="8"/></svg>