<svg xmlns="http://www.w3.org/2000/svg" viewBox="0 0 256 256"><rect width="256" height="256" fill="none"/><circle cx="84" cy="164" r="8"/><path d="M120,200a8,8,0,0,0,7.81-9.74l-15.62-52.52A8,8,0,0,1,120,128h96v-4a92,92,0,0,0-93.31-92C72.65,32.71,32,73.92,32,124a91.91,91.91,0,0,0,40.14,76Z" fill="none" stroke="currentColor" stroke-linecap="round" stroke-linejoin="round" stroke-width="8"/><path d="M148,128l24.31,82.27A8,8,0,0,0,180,216h36a8,8,0,0,0,8-8V176a8,8,0,0,0-8-8H121.19" fill="none" stroke="currentColor" stroke-linecap="round" stroke-linejoin="round" stroke-width="8"/></svg>