<svg xmlns="http://www.w3.org/2000/svg" viewBox="0 0 256 256"><rect width="256" height="256" fill="none"/><path d="M128,80l32-48,16,16v56a8,8,0,0,1-13.12,6.15Z" fill="none" stroke="currentColor" stroke-linecap="round" stroke-linejoin="round" stroke-width="8"/><path d="M93.12,110.13A8,8,0,0,1,80,104V48L96,32l32,48Z" fill="none" stroke="currentColor" stroke-linecap="round" stroke-linejoin="round" stroke-width="8"/><line x1="128" y1="80" x2="128" y2="216" fill="none" stroke="currentColor" stroke-linecap="round" stroke-linejoin="round" stroke-width="8"/><path d="M176,48h24a8,8,0,0,1,8,8V208a8,8,0,0,1-8,8H56a8,8,0,0,1-8-8V56a8,8,0,0,1,8-8H80" fill="none" stroke="currentColor" stroke-linecap="round" stroke-linejoin="round" stroke-width="8"/><line x1="96" y1="32" x2="160" y2="32" fill="none" stroke="currentColor" stroke-linecap="round" stroke-linejoin="round" stroke-width="8"/></svg>