<svg xmlns="http://www.w3.org/2000/svg" viewBox="0 0 256 256"><rect width="256" height="256" fill="none"/><path d="M224,113.15l5.06-4.36A8.46,8.46,0,0,0,224.27,94L216,93.29" fill="none" stroke="currentColor" stroke-linecap="round" stroke-linejoin="round" stroke-width="8"/><polyline points="184.44 168 180.37 150.78 192 140.75" fill="none" stroke="currentColor" stroke-linecap="round" stroke-linejoin="round" stroke-width="8"/><line x1="128" y1="189.09" x2="128" y2="24" fill="none" stroke="currentColor" stroke-linecap="round" stroke-linejoin="round" stroke-width="8"/><path d="M176,218.61l6.72,4.13a8.4,8.4,0,0,0,12.52-9.17L193.92,208" fill="none" stroke="currentColor" stroke-linecap="round" stroke-linejoin="round" stroke-width="8"/><path d="M176,90.07,160.36,88.8,135.74,29.2a8.36,8.36,0,0,0-15.48,0L95.64,88.8,31.73,94a8.46,8.46,0,0,0-4.79,14.83l48.7,42L60.76,213.57a8.4,8.4,0,0,0,12.52,9.17L128,189.09,139.24,196" fill="none" stroke="currentColor" stroke-linecap="round" stroke-linejoin="round" stroke-width="8"/></svg>