<svg xmlns="http://www.w3.org/2000/svg" viewBox="0 0 256 256"><rect width="256" height="256" fill="none"/><line x1="232" y1="160" x2="24" y2="160" fill="none" stroke="currentColor" stroke-linecap="round" stroke-linejoin="round" stroke-width="24"/><path d="M24,160,46.44,74a8,8,0,0,1,7.74-6H201.82a8,8,0,0,1,7.74,6L232,160v32a8,8,0,0,1-8,8H32a8,8,0,0,1-8-8Z" fill="none" stroke="currentColor" stroke-linecap="round" stroke-linejoin="round" stroke-width="24"/><line x1="76" y1="116" x2="84" y2="116" fill="none" stroke="currentColor" stroke-linecap="round" stroke-linejoin="round" stroke-width="24"/><line x1="124" y1="116" x2="132" y2="116" fill="none" stroke="currentColor" stroke-linecap="round" stroke-linejoin="round" stroke-width="24"/><line x1="172" y1="116" x2="180" y2="116" fill="none" stroke="currentColor" stroke-linecap="round" stroke-linejoin="round" stroke-width="24"/><path d="M72,68V40a8,8,0,0,1,8-8h40a8,8,0,0,1,8,8V68" fill="none" stroke="currentColor" stroke-linecap="round" stroke-linejoin="round" stroke-width="24"/></svg>