<svg xmlns="http://www.w3.org/2000/svg" viewBox="0 0 256 256"><rect width="256" height="256" fill="none"/><path d="M24,160h7.46c13.45,0,24.79-11,24.54-24.46A24,24,0,0,0,32,112H24V88H232v96a8,8,0,0,1-8,8H24Z" fill="none" stroke="currentColor" stroke-linecap="round" stroke-linejoin="round" stroke-width="24"/><path d="M24,88,184,40a48,48,0,0,1,48,48" fill="none" stroke="currentColor" stroke-linecap="round" stroke-linejoin="round" stroke-width="24"/><path d="M140,88v16a28,28,0,0,0,56,0V88" fill="none" stroke="currentColor" stroke-linecap="round" stroke-linejoin="round" stroke-width="24"/><path d="M84,192V180a28,28,0,0,1,56,0v12" fill="none" stroke="currentColor" stroke-linecap="round" stroke-linejoin="round" stroke-width="24"/></svg>