<svg xmlns="http://www.w3.org/2000/svg" viewBox="0 0 256 256"><rect width="256" height="256" fill="none"/><path d="M56,24h0a48,48,0,0,0,48,48h48a48,48,0,0,0,48-48h0" fill="none" stroke="currentColor" stroke-linecap="round" stroke-linejoin="round" stroke-width="24"/><rect x="48" y="172" width="160" height="52" rx="26" fill="none" stroke="currentColor" stroke-linecap="round" stroke-linejoin="round" stroke-width="24"/><circle cx="104" cy="128" r="16"/><circle cx="152" cy="128" r="16"/><path d="M160,72h32.78a48,48,0,0,1,47.07,38.53A8,8,0,0,1,232,120H192" fill="none" stroke="currentColor" stroke-linecap="round" stroke-linejoin="round" stroke-width="24"/><path d="M96,72H63.22a48,48,0,0,0-47.07,38.53A8,8,0,0,0,24,120H64" fill="none" stroke="currentColor" stroke-linecap="round" stroke-linejoin="round" stroke-width="24"/><path d="M64,174V104A32,32,0,0,1,96,72h64a32,32,0,0,1,32,32v70" fill="none" stroke="currentColor" stroke-linecap="round" stroke-linejoin="round" stroke-width="24"/></svg>