<svg xmlns="http://www.w3.org/2000/svg" viewBox="0 0 256 256"><rect width="256" height="256" fill="none"/><path d="M44,128c40,64,84,64,84,64s44,0,84-64a32,32,0,0,1,0,64H44a32,32,0,0,1,0-64Z" fill="none" stroke="currentColor" stroke-linecap="round" stroke-linejoin="round" stroke-width="24"/><line x1="70.06" y1="136" x2="185.94" y2="136" fill="none" stroke="currentColor" stroke-linecap="round" stroke-linejoin="round" stroke-width="24"/><path d="M66.05,157.08,85.54,54.53A8,8,0,0,1,98.4,49.76L123,70.25a8,8,0,0,0,10,0l24.6-20.49a8,8,0,0,1,12.86,4.77L190,157.08" fill="none" stroke="currentColor" stroke-linecap="round" stroke-linejoin="round" stroke-width="24"/></svg>