<svg xmlns="http://www.w3.org/2000/svg" viewBox="0 0 256 256"><rect width="256" height="256" fill="none"/><path d="M76,200.87A22.12,22.12,0,0,1,60,208c-13.26,0-24-12.54-24-28s10.74-28,24-28a22.12,22.12,0,0,1,16,7.13" fill="none" stroke="currentColor" stroke-linecap="round" stroke-linejoin="round" stroke-width="24"/><polyline points="148 32 148 92 208 92" fill="none" stroke="currentColor" stroke-linecap="round" stroke-linejoin="round" stroke-width="24"/><path d="M48,108V40a8,8,0,0,1,8-8h96l56,56v20" fill="none" stroke="currentColor" stroke-linecap="round" stroke-linejoin="round" stroke-width="24"/><line x1="108" y1="180" x2="148" y2="180" fill="none" stroke="currentColor" stroke-linecap="round" stroke-linejoin="round" stroke-width="24"/><line x1="128" y1="160" x2="128" y2="200" fill="none" stroke="currentColor" stroke-linecap="round" stroke-linejoin="round" stroke-width="24"/><line x1="180" y1="180" x2="220" y2="180" fill="none" stroke="currentColor" stroke-linecap="round" stroke-linejoin="round" stroke-width="24"/><line x1="200" y1="160" x2="200" y2="200" fill="none" stroke="currentColor" stroke-linecap="round" stroke-linejoin="round" stroke-width="24"/></svg>