<svg xmlns="http://www.w3.org/2000/svg" viewBox="0 0 256 256"><rect width="256" height="256" fill="none"/><polyline points="76.68 72.63 128 56 179.32 72.63" fill="none" stroke="currentColor" stroke-linecap="round" stroke-linejoin="round" stroke-width="24"/><path d="M38.37,62.42,12.85,113.48a8,8,0,0,0,3.57,10.73L44,138,76.68,72.63,49.11,58.85A8,8,0,0,0,38.37,62.42Z" fill="none" stroke="currentColor" stroke-linecap="round" stroke-linejoin="round" stroke-width="24"/><path d="M212,138l27.58-13.79a8,8,0,0,0,3.57-10.73L217.63,62.42a8,8,0,0,0-10.74-3.57L179.32,72.63Z" fill="none" stroke="currentColor" stroke-linecap="round" stroke-linejoin="round" stroke-width="24"/><path d="M177.36,72H144L98.34,116.29a8,8,0,0,0,1.38,12.42C117.23,139.9,141,139.13,160,120l36,34,16-16" fill="none" stroke="currentColor" stroke-linecap="round" stroke-linejoin="round" stroke-width="24"/><polyline points="196 154 158 192 96 176 44 138" fill="none" stroke="currentColor" stroke-linecap="round" stroke-linejoin="round" stroke-width="24"/><polyline points="106.93 216 80.33 209.13 56 191.36" fill="none" stroke="currentColor" stroke-linecap="round" stroke-linejoin="round" stroke-width="24"/></svg>