<svg xmlns="http://www.w3.org/2000/svg" viewBox="0 0 256 256"><rect width="256" height="256" fill="none"/><circle cx="100" cy="112" r="16"/><circle cx="156" cy="112" r="16"/><path d="M156,152a53,53,0,0,1-56,0" fill="none" stroke="currentColor" stroke-linecap="round" stroke-linejoin="round" stroke-width="24"/><rect x="48" y="60" width="160" height="136" rx="24" fill="none" stroke="currentColor" stroke-linecap="round" stroke-linejoin="round" stroke-width="24"/><path d="M96,60V32a8,8,0,0,1,8-8h48a8,8,0,0,1,8,8V60" fill="none" stroke="currentColor" stroke-linecap="round" stroke-linejoin="round" stroke-width="24"/><path d="M72,196v28a8,8,0,0,0,8,8h96a8,8,0,0,0,8-8V196" fill="none" stroke="currentColor" stroke-linecap="round" stroke-linejoin="round" stroke-width="24"/></svg>