<svg xmlns="http://www.w3.org/2000/svg" viewBox="0 0 256 256"><rect width="256" height="256" fill="none"/><path d="M24,64H232a8,8,0,0,1,8,8V176a0,0,0,0,1,0,0H16a0,0,0,0,1,0,0V72A8,8,0,0,1,24,64Z" fill="none" stroke="currentColor" stroke-linecap="round" stroke-linejoin="round" stroke-width="24"/><line x1="16" y1="176" x2="16" y2="200" fill="none" stroke="currentColor" stroke-linecap="round" stroke-linejoin="round" stroke-width="24"/><line x1="60" y1="176" x2="60" y2="200" fill="none" stroke="currentColor" stroke-linecap="round" stroke-linejoin="round" stroke-width="24"/><line x1="104" y1="176" x2="104" y2="200" fill="none" stroke="currentColor" stroke-linecap="round" stroke-linejoin="round" stroke-width="24"/><line x1="152" y1="176" x2="152" y2="200" fill="none" stroke="currentColor" stroke-linecap="round" stroke-linejoin="round" stroke-width="24"/><line x1="196" y1="176" x2="196" y2="200" fill="none" stroke="currentColor" stroke-linecap="round" stroke-linejoin="round" stroke-width="24"/><line x1="240" y1="176" x2="240" y2="200" fill="none" stroke="currentColor" stroke-linecap="round" stroke-linejoin="round" stroke-width="24"/><rect x="56" y="100" width="52" height="40" fill="none" stroke="currentColor" stroke-linecap="round" stroke-linejoin="round" stroke-width="24"/><rect x="148" y="100" width="52" height="40" fill="none" stroke="currentColor" stroke-linecap="round" stroke-linejoin="round" stroke-width="24"/></svg>