<svg xmlns="http://www.w3.org/2000/svg" viewBox="0 0 256 256"><rect width="256" height="256" fill="none"/><line x1="16" y1="112" x2="240" y2="112" fill="none" stroke="currentColor" stroke-linecap="round" stroke-linejoin="round" stroke-width="24"/><path d="M224,168v32a8,8,0,0,1-8,8H188a8,8,0,0,1-8-8V168" fill="none" stroke="currentColor" stroke-linecap="round" stroke-linejoin="round" stroke-width="24"/><path d="M76,168v32a8,8,0,0,1-8,8H40a8,8,0,0,1-8-8V168" fill="none" stroke="currentColor" stroke-linecap="round" stroke-linejoin="round" stroke-width="24"/><path d="M224,112,194.3,60a8,8,0,0,0-6.94-4H68.64a8,8,0,0,0-6.94,4L32,112v56H224Z" fill="none" stroke="currentColor" stroke-linecap="round" stroke-linejoin="round" stroke-width="24"/><line x1="104" y1="20" x2="152" y2="20" fill="none" stroke="currentColor" stroke-linecap="round" stroke-linejoin="round" stroke-width="24"/></svg>