<svg xmlns="http://www.w3.org/2000/svg" viewBox="0 0 256 256"><rect width="256" height="256" fill="none"/><path d="M128,16h0a64,64,0,0,1,64,64v96a8,8,0,0,1-8,8H72a8,8,0,0,1-8-8V80A64,64,0,0,1,128,16Z" fill="none" stroke="currentColor" stroke-linecap="round" stroke-linejoin="round" stroke-width="24"/><path d="M148,184v40a20,20,0,0,1-20,20h0a20,20,0,0,1-20-20V184" fill="none" stroke="currentColor" stroke-linecap="round" stroke-linejoin="round" stroke-width="24"/><line x1="108" y1="76" x2="108" y2="144" fill="none" stroke="currentColor" stroke-linecap="round" stroke-linejoin="round" stroke-width="24"/><line x1="148" y1="76" x2="148" y2="144" fill="none" stroke="currentColor" stroke-linecap="round" stroke-linejoin="round" stroke-width="24"/></svg>