<svg xmlns="http://www.w3.org/2000/svg" viewBox="0 0 256 256"><rect width="256" height="256" fill="none"/><path d="M128,80,97.66,109.64A8,8,0,0,1,84,104V48l16-16" fill="none" stroke="currentColor" stroke-linecap="round" stroke-linejoin="round" stroke-width="24"/><line x1="128" y1="80" x2="128" y2="216" fill="none" stroke="currentColor" stroke-linecap="round" stroke-linejoin="round" stroke-width="24"/><path d="M172,48h28a8,8,0,0,1,8,8V208a8,8,0,0,1-8,8H56a8,8,0,0,1-8-8V56a8,8,0,0,1,8-8H84" fill="none" stroke="currentColor" stroke-linecap="round" stroke-linejoin="round" stroke-width="24"/><line x1="100" y1="32" x2="156" y2="32" fill="none" stroke="currentColor" stroke-linecap="round" stroke-linejoin="round" stroke-width="24"/><path d="M156,32l16,16v56a8,8,0,0,1-13.66,5.66L128,80" fill="none" stroke="currentColor" stroke-linecap="round" stroke-linejoin="round" stroke-width="24"/><path d="M159.47,30A4,4,0,0,0,156,28H100a4,4,0,0,0-3.46,6l28,48a4,4,0,0,0,6.92,0l28-48A4,4,0,0,0,159.47,30Z"/></svg>