<svg xmlns="http://www.w3.org/2000/svg" viewBox="0 0 256 256"><rect width="256" height="256" fill="none"/><path d="M96.44,156c2.54,11.35,15.7,20,31.56,20,17.67,0,32-10.75,32-24,0-32-62.22-20-62.22-48,0-13.25,12.55-24,30.22-24,13.25,0,23.63,6,28,14.66" fill="none" stroke="currentColor" stroke-linecap="round" stroke-linejoin="round" stroke-width="24"/><path d="M214,146.69A48,48,0,0,1,146.69,214,88.07,88.07,0,0,1,42,109.31,48,48,0,0,1,109.31,42,88.07,88.07,0,0,1,214,146.69Z" fill="none" stroke="currentColor" stroke-linecap="round" stroke-linejoin="round" stroke-width="24"/></svg>