<svg xmlns="http://www.w3.org/2000/svg" viewBox="0 0 256 256"><rect width="256" height="256" fill="none"/><circle cx="164" cy="136" r="16"/><circle cx="120" cy="92" r="16"/><path d="M56.44,192A95.67,95.67,0,0,1,32,126.06C33,74.58,75.15,32.73,126.63,32a96,96,0,0,1,72.93,160" fill="none" stroke="currentColor" stroke-linecap="round" stroke-linejoin="round" stroke-width="24"/><path d="M80,236a20,20,0,0,1,20-20h40a20,20,0,0,0,0-40h-4c-26.51,0-56-21.49-56-48a49,49,0,0,1,.66-8" fill="none" stroke="currentColor" stroke-linecap="round" stroke-linejoin="round" stroke-width="24"/></svg>