<svg xmlns="http://www.w3.org/2000/svg" viewBox="0 0 256 256"><rect width="256" height="256" fill="none"/><line x1="128" y1="104" x2="128" y2="168" fill="none" stroke="currentColor" stroke-linecap="round" stroke-linejoin="round" stroke-width="12"/><line x1="96" y1="136" x2="160" y2="136" fill="none" stroke="currentColor" stroke-linecap="round" stroke-linejoin="round" stroke-width="12"/><path d="M80,64,93.63,43.56A8,8,0,0,1,100.28,40h55.44a8,8,0,0,1,6.65,3.56L176,64h32a16,16,0,0,1,16,16V192a16,16,0,0,1-16,16H48a16,16,0,0,1-16-16V80A16,16,0,0,1,48,64Z" fill="none" stroke="currentColor" stroke-linecap="round" stroke-linejoin="round" stroke-width="12"/></svg>