<svg xmlns="http://www.w3.org/2000/svg" viewBox="0 0 256 256"><rect width="256" height="256" fill="none"/><line x1="184" y1="120" x2="248" y2="120" fill="none" stroke="currentColor" stroke-linecap="round" stroke-linejoin="round" stroke-width="12"/><path d="M184,80h42.58A8,8,0,0,1,234,85l14,35v64a8,8,0,0,1-8,8H216" fill="none" stroke="currentColor" stroke-linecap="round" stroke-linejoin="round" stroke-width="12"/><circle cx="192" cy="192" r="24" fill="none" stroke="currentColor" stroke-linecap="round" stroke-linejoin="round" stroke-width="12"/><circle cx="80" cy="192" r="24" fill="none" stroke="currentColor" stroke-linecap="round" stroke-linejoin="round" stroke-width="12"/><line x1="168" y1="192" x2="104" y2="192" fill="none" stroke="currentColor" stroke-linecap="round" stroke-linejoin="round" stroke-width="12"/><path d="M56,192H32a8,8,0,0,1-8-8V136" fill="none" stroke="currentColor" stroke-linecap="round" stroke-linejoin="round" stroke-width="12"/><line x1="24" y1="104" x2="152" y2="104" fill="none" stroke="currentColor" stroke-linecap="round" stroke-linejoin="round" stroke-width="12"/><line x1="24" y1="64" x2="152" y2="64" fill="none" stroke="currentColor" stroke-linecap="round" stroke-linejoin="round" stroke-width="12"/><line x1="48" y1="64" x2="48" y2="104" fill="none" stroke="currentColor" stroke-linecap="round" stroke-linejoin="round" stroke-width="12"/><line x1="88" y1="64" x2="88" y2="104" fill="none" stroke="currentColor" stroke-linecap="round" stroke-linejoin="round" stroke-width="12"/><line x1="128" y1="64" x2="128" y2="104" fill="none" stroke="currentColor" stroke-linecap="round" stroke-linejoin="round" stroke-width="12"/><line x1="184" y1="64" x2="184" y2="169.37" fill="none" stroke="currentColor" stroke-linecap="round" stroke-linejoin="round" stroke-width="12"/></svg>