<svg xmlns="http://www.w3.org/2000/svg" viewBox="0 0 256 256"><rect width="256" height="256" fill="none"/><line x1="168" y1="8" x2="168" y2="24" fill="none" stroke="currentColor" stroke-linecap="round" stroke-linejoin="round" stroke-width="12"/><line x1="208" y1="21.02" x2="200" y2="34.13" fill="none" stroke="currentColor" stroke-linecap="round" stroke-linejoin="round" stroke-width="12"/><line x1="235.66" y1="56" x2="220.62" y2="60.85" fill="none" stroke="currentColor" stroke-linecap="round" stroke-linejoin="round" stroke-width="12"/><path d="M83.54,99,77.81,89a18,18,0,1,0-31.18,18l19,32.91" fill="none" stroke="currentColor" stroke-linecap="round" stroke-linejoin="round" stroke-width="12"/><path d="M109.55,144l-26-45a18,18,0,1,1,31.17-18l36.45,63" fill="none" stroke="currentColor" stroke-linecap="round" stroke-linejoin="round" stroke-width="12"/><path d="M102,59,96.28,49A18,18,0,1,0,65.1,67L77.81,89" fill="none" stroke="currentColor" stroke-linecap="round" stroke-linejoin="round" stroke-width="12"/><path d="M114.71,81,102,59a18,18,0,1,1,31.17-18l37,64" fill="none" stroke="currentColor" stroke-linecap="round" stroke-linejoin="round" stroke-width="12"/><path d="M199,187.76a72,72,0,0,0,10.7-86.19L188.61,65a18,18,0,0,0-31.18,18" fill="none" stroke="currentColor" stroke-linecap="round" stroke-linejoin="round" stroke-width="12"/><path d="M81.81,168,61.59,133a18,18,0,0,0-31.18,18L40,167.59,65.63,212a72,72,0,0,0,124.71-72l-20.2-35A18,18,0,1,0,139,123" fill="none" stroke="currentColor" stroke-linecap="round" stroke-linejoin="round" stroke-width="12"/></svg>