<svg xmlns="http://www.w3.org/2000/svg" viewBox="0 0 256 256"><rect width="256" height="256" fill="none"/><path d="M32,48,165.6,205.18a8,8,0,0,0,6.1,2.82H224a8,8,0,0,0,8-8V168a8,8,0,0,0-8-8H127.2" fill="none" stroke="currentColor" stroke-linecap="round" stroke-linejoin="round" stroke-width="12"/><line x1="200" y1="208" x2="200" y2="160" fill="none" stroke="currentColor" stroke-linecap="round" stroke-linejoin="round" stroke-width="12"/><line x1="56" y1="208" x2="56" y2="160" fill="none" stroke="currentColor" stroke-linecap="round" stroke-linejoin="round" stroke-width="12"/><path d="M107,185.65,90.4,205.18A8,8,0,0,1,84.3,208H32a8,8,0,0,1-8-8V168a8,8,0,0,1,8-8H85.2" fill="none" stroke="currentColor" stroke-linecap="round" stroke-linejoin="round" stroke-width="12"/><line x1="224" y1="48" x2="156" y2="128" fill="none" stroke="currentColor" stroke-linecap="round" stroke-linejoin="round" stroke-width="12"/></svg>