<svg xmlns="http://www.w3.org/2000/svg" viewBox="0 0 256 256"><rect width="256" height="256" fill="none"/><line x1="128" y1="200" x2="128" y2="240" fill="none" stroke="currentColor" stroke-linecap="round" stroke-linejoin="round" stroke-width="12"/><line x1="48" y1="48" x2="208" y2="224" fill="none" stroke="currentColor" stroke-linecap="round" stroke-linejoin="round" stroke-width="12"/><path d="M172.32,184.75A72,72,0,0,1,56,128" fill="none" stroke="currentColor" stroke-linecap="round" stroke-linejoin="round" stroke-width="12"/><path d="M200,128a71.7,71.7,0,0,1-7.29,31.61" fill="none" stroke="currentColor" stroke-linecap="round" stroke-linejoin="round" stroke-width="12"/><path d="M150.68,161A39.77,39.77,0,0,1,128,168h0a40,40,0,0,1-40-40V92" fill="none" stroke="currentColor" stroke-linecap="round" stroke-linejoin="round" stroke-width="12"/><path d="M91.3,48.06A40,40,0,0,1,128,24h0a40,40,0,0,1,40,40v64a38.66,38.66,0,0,1-.22,4.19" fill="none" stroke="currentColor" stroke-linecap="round" stroke-linejoin="round" stroke-width="12"/></svg>