<svg xmlns="http://www.w3.org/2000/svg" viewBox="0 0 256 256"><rect width="256" height="256" fill="none"/><circle cx="164" cy="140" r="10"/><circle cx="116" cy="92" r="10"/><path d="M56.44,192A95.67,95.67,0,0,1,32,126.06C33,74.58,75.15,32.73,126.63,32a96,96,0,0,1,72.93,160" fill="none" stroke="currentColor" stroke-linecap="round" stroke-linejoin="round" stroke-width="12"/><path d="M96,240a16,16,0,0,1,0-32h56a16,16,0,0,0,0-32H136c-26.51,0-56-21.49-56-48a49,49,0,0,1,.66-8" fill="none" stroke="currentColor" stroke-linecap="round" stroke-linejoin="round" stroke-width="12"/></svg>