<svg xmlns="http://www.w3.org/2000/svg" viewBox="0 0 256 256" fill="currentColor"><path d="M252,216a12,12,0,0,1-12,12H96a12,12,0,0,1,0-24H240A12,12,0,0,1,252,216Zm-31.24-24.45L44.14,142.09A44.13,44.13,0,0,1,12,99.72V48A20,20,0,0,1,38.32,29l5.48,1.83a12,12,0,0,1,7.49,7.3L61.2,65.59,84,72.09V48a20,20,0,0,1,26.32-19l5.48,1.83a12,12,0,0,1,7.27,6.74l21.75,51.85,59,16.49A44.12,44.12,0,0,1,236,148.32V180a12,12,0,0,1-15.24,11.55ZM212,148.32a20.05,20.05,0,0,0-14.65-19.27L132.77,111a12,12,0,0,1-7.84-6.91L108,63.71V88A12,12,0,0,1,92.71,99.53L48.71,87a12,12,0,0,1-8-7.46L36,66.48V99.72A20.07,20.07,0,0,0,50.61,119L212,164.18Z"/></svg>