<svg xmlns="http://www.w3.org/2000/svg" viewBox="0 0 256 256" fill="currentColor"><path d="M200.49,183.51a12,12,0,0,1,0,17c-1.13,1.12-28,27.51-72.49,27.51-33.71,0-59.35-17.46-76-33.86V208a12,12,0,0,1-24,0V160a12,12,0,0,1,12-12H88a12,12,0,0,1,0,24H64.12c13.1,14.32,35.08,32,63.88,32,34.63,0,55.31-20.28,55.51-20.49A12,12,0,0,1,200.49,183.51ZM216,36a12,12,0,0,0-12,12V61.86C187.35,45.46,161.71,28,128,28,83.54,28,56.64,54.39,55.51,55.51a12,12,0,0,0,17,17C72.69,72.28,93.37,52,128,52c28.8,0,50.78,17.68,63.88,32H168a12,12,0,0,0,0,24h48a12,12,0,0,0,12-12V48A12,12,0,0,0,216,36Z"/></svg>