<svg xmlns="http://www.w3.org/2000/svg" viewBox="0 0 256 256" fill="currentColor"><path d="M88,108H40A12,12,0,0,1,28,96V48a12,12,0,0,1,24,0V61.86C68.65,45.46,94.29,28,128,28c44.46,0,71.36,26.39,72.49,27.51a12,12,0,0,1-16.94,17C183.11,72.09,162,52,128,52,99,52,77.06,69.68,64,84H88a12,12,0,0,1,0,24Zm128,40H168a12,12,0,0,0,0,24h24c-13,14.32-35,32-64,32-34,0-55.11-20.09-55.55-20.52a12,12,0,0,0-16.94,17C56.64,201.61,83.54,228,128,228c33.71,0,59.35-17.46,76-33.86V208a12,12,0,0,0,24,0V160A12,12,0,0,0,216,148Z"/></svg>