<svg xmlns="http://www.w3.org/2000/svg" viewBox="0 0 256 256" fill="currentColor"><path d="M60,132a12,12,0,0,1-12,12H24a12,12,0,0,1,0-24h4V64H24a12,12,0,0,1,0-24H40a12,12,0,0,1,10.18,5.63L80,93.36l29.82-47.72A12,12,0,0,1,120,40h16a12,12,0,0,1,0,24h-4v56h4a12,12,0,0,1,0,24H112a12,12,0,0,1-4-23.3V93.84L90.18,122.36a12,12,0,0,1-20.36,0L52,93.84V120.7A12,12,0,0,1,60,132Zm116-28h64a12,12,0,0,0,0-24H176a12,12,0,0,0,0,24Zm64,16H176a12,12,0,0,0,0,24h64a12,12,0,0,0,0-24Zm0,40H72a12,12,0,0,0,0,24H240a12,12,0,0,0,0-24Zm0,40H72a12,12,0,0,0,0,24H240a12,12,0,0,0,0-24Z"/></svg>