<svg xmlns="http://www.w3.org/2000/svg" viewBox="0 0 256 256" fill="currentColor"><path d="M222.33,106.84,212,103.39V56a20,20,0,0,0-20-20H140V24a12,12,0,0,0-24,0V36H64A20,20,0,0,0,44,56v47.39l-10.33,3.45a20,20,0,0,0-13.67,19V160.1a12.21,12.21,0,0,0,.46,3.29c16.34,57.25,88.68,76.76,103,80.09a20,20,0,0,0,9.06,0c14.33-3.33,86.67-22.84,103-80.09a12.21,12.21,0,0,0,.46-3.29V125.82A20,20,0,0,0,222.33,106.84ZM68,60H188V95.38L131.8,76.62a12,12,0,0,0-7.6,0L68,95.38Zm144,98.34c-13.46,42.62-73.44,59-84,61.55-10.55-2.57-70.54-18.92-84-61.55V128.69l72-24V168a12,12,0,0,0,24,0V104.66l72,24Z"/></svg>