<svg xmlns="http://www.w3.org/2000/svg" viewBox="0 0 256 256" fill="currentColor"><path d="M224,152a12,12,0,0,0,0-24H212V112h12a12,12,0,0,0,0-24H210.45a83.7,83.7,0,0,0-18.78-38.7l16.82-16.81a12,12,0,0,0-17-17l-18,18a83.7,83.7,0,0,0-91.1,0l-18-18a12,12,0,0,0-17,17L64.33,49.3A83.7,83.7,0,0,0,45.55,88H32a12,12,0,0,0,0,24H44v16H32a12,12,0,0,0,0,24H44a83.55,83.55,0,0,0,1.55,16H32a12,12,0,0,0,0,24H54.15a84,84,0,0,0,147.7,0H224a12,12,0,0,0,0-24H210.45A83.55,83.55,0,0,0,212,152ZM128,44a60.1,60.1,0,0,1,57.82,44H70.18A60.1,60.1,0,0,1,128,44Zm12,166.79V140a12,12,0,0,0-24,0v70.79A60.09,60.09,0,0,1,68,152V112H188v40A60.09,60.09,0,0,1,140,210.79Z"/></svg>