<svg xmlns="http://www.w3.org/2000/svg" viewBox="0 0 256 256" fill="currentColor"><path d="M208,52H182.42L170,33.34A12,12,0,0,0,160,28H96a12,12,0,0,0-10,5.34L73.57,52H48A28,28,0,0,0,20,80V192a28,28,0,0,0,28,28H208a28,28,0,0,0,28-28V80A28,28,0,0,0,208,52Zm4,140a4,4,0,0,1-4,4H48a4,4,0,0,1-4-4V80a4,4,0,0,1,4-4H80a12,12,0,0,0,10-5.34L102.42,52h51.15L166,70.66A12,12,0,0,0,176,76h32a4,4,0,0,1,4,4Zm-40-56a12,12,0,0,1-12,12H140v20a12,12,0,0,1-24,0V148H96a12,12,0,0,1,0-24h20V104a12,12,0,0,1,24,0v20h20A12,12,0,0,1,172,136Z"/></svg>