<svg xmlns="http://www.w3.org/2000/svg" viewBox="0 0 256 256" fill="currentColor"><path d="M248,128a52,52,0,1,0-92,33.19V220A12,12,0,0,0,174,230.42L196,217.82l22.05,12.6A12,12,0,0,0,236,220V161.19A51.77,51.77,0,0,0,248,128Zm-52-28a28,28,0,1,1-28,28A28,28,0,0,1,196,100ZM202,193.58a12,12,0,0,0-11.9,0L180,199.32V177.47a51.86,51.86,0,0,0,32,0v21.85ZM140,192a12,12,0,0,1-12,12H40a20,20,0,0,1-20-20V56A20,20,0,0,1,40,36H216a20,20,0,0,1,20,20,12,12,0,0,1-23.32,4H44V180h84A12,12,0,0,1,140,192Zm-12-52a12,12,0,0,1-12,12H76a12,12,0,0,1,0-24h40A12,12,0,0,1,128,140Zm0-40a12,12,0,0,1-12,12H76a12,12,0,0,1,0-24h40A12,12,0,0,1,128,100Z"/></svg>