<svg xmlns="http://www.w3.org/2000/svg" viewBox="0 0 256 256" fill="currentColor"><path d="M137.75,20.08A20,20,0,0,0,116,40V80.67a19.83,19.83,0,0,0,16.6,19.7A28,28,0,0,1,126,155.93,28.3,28.3,0,0,1,100,129.47c-.37-7.28,1.06-13.25,4.27-17.73h0a19.88,19.88,0,0,0-2.13-25.64L74.61,57.94l-.09-.09A20,20,0,0,0,45,59.22,107.62,107.62,0,0,0,52.17,204.9,107.21,107.21,0,0,0,128,236h1.55A108.32,108.32,0,0,0,236,129.53C236.77,73.16,193.62,25.08,137.75,20.08ZM60.69,78l22.19,22.66A47.76,47.76,0,0,0,77.08,116H44.87A82.31,82.31,0,0,1,60.69,78ZM44.86,140H77.39A52,52,0,0,0,116,178.6v32.55A84,84,0,0,1,44.86,140ZM140,211.11V178.62A51.53,51.53,0,0,0,163.46,166,52,52,0,0,0,140,77.39V44.5c41.29,5.93,72.58,42.3,72,84.7C211.42,170.56,180,205.25,140,211.11Z"/></svg>