<svg xmlns="http://www.w3.org/2000/svg" viewBox="0 0 256 256" fill="currentColor"><path d="M236.06,187.69A84,84,0,0,0,172.29,68.9,84,84,0,1,0,19.94,139.69L12.7,165.05A18,18,0,0,0,35,187.3l25.36-7.24a84.27,84.27,0,0,0,23.36,7,84.05,84.05,0,0,0,112,41l25.36,7.24a18,18,0,0,0,22.25-22.25ZM28.36,164.22Zm33.17-9a12,12,0,0,0-3.3.46l-19.49,5.57,5.57-19.49a12,12,0,0,0-1-9.05,60,60,0,1,1,24,24A11.91,11.91,0,0,0,61.53,155.23Zm150.16,34.54,5.57,19.49-19.49-5.57a12,12,0,0,0-9.05,1A60.06,60.06,0,0,1,111,186.63a83.93,83.93,0,0,0,68.55-91.37,60,60,0,0,1,33.16,85.46A12,12,0,0,0,211.69,189.77Z"/></svg>