<svg xmlns="http://www.w3.org/2000/svg" viewBox="0 0 256 256" fill="currentColor"><path d="M196,157.43V98.57a17,17,0,0,0-8.42-14.71L136.24,54.21a16.55,16.55,0,0,0-16.48,0L68.43,83.86A17,17,0,0,0,60,98.57v58.86a17,17,0,0,0,8.42,14.71l51.34,29.65a16.53,16.53,0,0,0,16.48,0l51.33-29.65A17,17,0,0,0,196,157.43ZM128,77.17,160.59,96,128,114.81,95.41,96Zm-44,40,32,18.48v36.3L84,153.42Zm56,54.78V135.6l32-18.48v36.3ZM236,48V88a12,12,0,0,1-24,0V60H184a12,12,0,0,1,0-24h40A12,12,0,0,1,236,48ZM84,208a12,12,0,0,1-12,12H32a12,12,0,0,1-12-12V168a12,12,0,0,1,24,0v28H72A12,12,0,0,1,84,208Zm152-40v40a12,12,0,0,1-12,12H184a12,12,0,0,1,0-24h28V168a12,12,0,0,1,24,0ZM20,88V48A12,12,0,0,1,32,36H72a12,12,0,0,1,0,24H44V88a12,12,0,0,1-24,0Z"/></svg>