<svg xmlns="http://www.w3.org/2000/svg" viewBox="0 0 256 256" fill="currentColor"><path d="M80,108a12,12,0,0,1-12,12H24a12,12,0,0,1,0-24H68A12,12,0,0,1,80,108ZM68,136H24a12,12,0,0,0,0,24H68a12,12,0,0,0,0-24Zm0,40H24a12,12,0,0,0,0,24H68a12,12,0,0,0,0-24Zm82-40H106a12,12,0,0,0,0,24h44a12,12,0,0,0,0-24Zm0,40H106a12,12,0,0,0,0,24h44a12,12,0,0,0,0-24Zm38-96h44a12,12,0,0,0,0-24H188a12,12,0,0,0,0,24Zm44,16H188a12,12,0,0,0,0,24h44a12,12,0,0,0,0-24Zm0,40H188a12,12,0,0,0,0,24h44a12,12,0,0,0,0-24Zm0,40H188a12,12,0,0,0,0,24h44a12,12,0,0,0,0-24Z"/></svg>