<svg xmlns="http://www.w3.org/2000/svg" viewBox="0 0 256 256" fill="currentColor"><path d="M167.51,88.49a12,12,0,0,1,17-17L188,75V48a12,12,0,0,1,24,0V75l3.51-3.52a12,12,0,0,1,17,17l-24,24a12,12,0,0,1-17,0ZM244,160v40a20,20,0,0,1-20,20H171.5a20.08,20.08,0,0,1-14.7-6.44L66.75,116H32A20,20,0,0,1,12,96V56A20,20,0,0,1,32,36H84.5a20.08,20.08,0,0,1,14.7,6.44L189.25,140H224A20,20,0,0,1,244,160Zm-24,4H187.5a20.08,20.08,0,0,1-14.7-6.44L82.75,60H36V92H68.5a20.08,20.08,0,0,1,14.7,6.44L173.25,196H220Z"/></svg>