<svg xmlns="http://www.w3.org/2000/svg" viewBox="0 0 256 256" fill="currentColor"><path d="M224,36H171.5a20.07,20.07,0,0,0-14.69,6.43L66.75,140H32a20,20,0,0,0-20,20v40a20,20,0,0,0,20,20H84.5a20.07,20.07,0,0,0,14.69-6.43L189.25,116H224a20,20,0,0,0,20-20V56A20,20,0,0,0,224,36Zm-4,56H187.5a20.07,20.07,0,0,0-14.69,6.43L82.75,196H36V164H68.5a20.07,20.07,0,0,0,14.69-6.43L173.25,60H220Zm12.49,75.51a12,12,0,0,1-17,17L212,181v27a12,12,0,0,1-24,0V181l-3.51,3.52a12,12,0,0,1-17-17l24-24a12,12,0,0,1,17,0Z"/></svg>