<svg xmlns="http://www.w3.org/2000/svg" viewBox="0 0 256 256" fill="currentColor"><path d="M216,36H40A20,20,0,0,0,20,56V216a12,12,0,0,0,17.37,10.73L64,213.42l26.63,13.31a12,12,0,0,0,10.74,0L128,213.42l26.63,13.31a12,12,0,0,0,10.74,0L192,213.42l26.63,13.31A12,12,0,0,0,236,216V56A20,20,0,0,0,216,36Zm-4,160.58-14.63-7.31a12,12,0,0,0-10.74,0L160,202.58l-26.63-13.31a12,12,0,0,0-10.74,0L96,202.58,69.37,189.27a12,12,0,0,0-10.74,0L44,196.58V60H212ZM63.19,171A12,12,0,0,0,79,164.81L81.1,160h29.8l2.11,4.81a12,12,0,0,0,22-9.62l-28-64a12,12,0,0,0-22,0l-28,64A12,12,0,0,0,63.19,171Zm37.21-35H91.6L96,125.94Zm35.6-8a12,12,0,0,1,12-12h8v-8a12,12,0,0,1,24,0v8h8a12,12,0,0,1,0,24h-8v8a12,12,0,0,1-24,0v-8h-8A12,12,0,0,1,136,128Z"/></svg>