<svg xmlns="http://www.w3.org/2000/svg" viewBox="0 0 256 256" fill="currentColor"><path d="M128,152a12,12,0,0,1-12,12h-2v44a12,12,0,0,1-24,0V164H88a12,12,0,0,1,0-24h28A12,12,0,0,1,128,152ZM56,140a12,12,0,0,0-12,12v16H36V152a12,12,0,0,0-24,0v56a12,12,0,0,0,24,0V192h8v16a12,12,0,0,0,24,0V152A12,12,0,0,0,56,140Zm188,56h-4V152a12,12,0,0,0-24,0v56a12,12,0,0,0,12,12h16a12,12,0,0,0,0-24Zm-44.8-55.56a12,12,0,0,0-13.49,5.39L172,168.68l-13.71-22.85A12,12,0,0,0,136,152v56a12,12,0,0,0,24,0V195.32l1.71,2.85a12,12,0,0,0,20.58,0l1.71-2.85V208a12,12,0,0,0,24,0V152A12,12,0,0,0,199.2,140.44ZM208,120a12,12,0,0,1-12-12v-4H148a12,12,0,0,1-12-12V44H60v64a12,12,0,0,1-24,0V40A20,20,0,0,1,56,20h96a12,12,0,0,1,8.49,3.52l56,56A12,12,0,0,1,220,88v20A12,12,0,0,1,208,120ZM183,80,160,57V80Z"/></svg>