<svg xmlns="http://www.w3.org/2000/svg" viewBox="0 0 256 256" fill="currentColor"><path d="M172,76a16,16,0,1,1-16-16A16,16,0,0,1,172,76Zm63.64,13.45c-1.79,28-10.08,51.53-24.64,70-21.14,26.86-54.44,41.69-99.06,44.16L91,249a12,12,0,0,1-10.89,7q-.41,0-.81,0a12,12,0,0,1-10.66-8.44l-14.16-46-46-14.19A12,12,0,0,1,7,165l45.4-20.92C54.85,99.44,69.7,66.14,96.56,45c18.49-14.56,42-22.84,70-24.64A189.64,189.64,0,0,1,216.69,24,20,20,0,0,1,232,39.31,189.6,189.6,0,0,1,235.64,89.45Zm-84.11,82.8a57.12,57.12,0,0,1-11.13-8.65,55.81,55.81,0,0,1-15.9-32.1,55.81,55.81,0,0,1-32.1-15.9,56.93,56.93,0,0,1-8.63-11.13q-7,20.48-7.7,47.69a12,12,0,0,1-7,10.61L45.51,173.64l22.1,6.82a12,12,0,0,1,7.93,7.94l6.8,22.09L93.23,186.9a12,12,0,0,1,10.61-7Q131,179.29,151.53,172.25ZM209.07,46.93c-14.71-2.84-63.85-9.68-97.67,16.93A77,77,0,0,0,100,74.9a32,32,0,0,0,35,32.95,12,12,0,0,1,13.09,13.09,32,32,0,0,0,33,35,76.69,76.69,0,0,0,11-11.35C218.76,110.81,211.91,61.65,209.07,46.93Z"/></svg>