<svg xmlns="http://www.w3.org/2000/svg" viewBox="0 0 256 256" fill="currentColor"><path d="M172,76a16,16,0,1,1-16-16A16,16,0,0,1,172,76Zm30.37,93.61C175.27,196.65,133.52,208.5,77.86,205q2.27,15.48,6,32.39a12,12,0,1,1-23.45,5.13q-4.56-20.9-7.05-39.92-19-2.49-39.89-7.06a12,12,0,0,1,5.13-23.45q16.89,3.7,32.36,6c-3.44-55.64,8.41-97.37,35.46-124.48C131.65,8.26,202.93,20.9,216.76,23.89a20.1,20.1,0,0,1,15.35,15.35C235.1,53.07,247.74,124.35,202.38,169.6Zm-27.09-8.43a107.09,107.09,0,0,1-51.65-28.81A107.23,107.23,0,0,1,94.82,80.71c-16.49,23-23.08,56.51-19.7,100.14C118.75,184.24,152.27,177.66,175.29,161.17ZM209.16,46.84a165.65,165.65,0,0,0-45.47-2.16c-18.67,1.81-34.58,7-47.55,15.54a83.92,83.92,0,0,0,79.64,79.64c8.51-13,13.73-28.88,15.54-47.55A165.65,165.65,0,0,0,209.16,46.84Z"/></svg>