<svg xmlns="http://www.w3.org/2000/svg" viewBox="0 0 256 256" fill="currentColor"><path d="M32.14,38.88A12,12,0,0,0,28,48V216a12,12,0,0,0,24,0V173.72c22.84-17.12,42.1-9.12,70.68,5,16.23,8,34.74,17.2,54.8,17.2,14.72,0,30.28-4.94,46.38-18.88A12,12,0,0,0,228,168V48a12,12,0,0,0-19.86-9.07c-24.71,21.41-44.53,13.31-74.82-1.68C105.19,23.27,70.17,5.94,32.14,38.88ZM204,162.26c-22.84,17.13-42.1,9.11-70.68-5C110.16,145.76,82.33,132,52,145.87V53.69c22.84-17.12,42.1-9.12,70.68,5,16.23,8,34.74,17.2,54.8,17.2A63,63,0,0,0,204,70.08Z"/></svg>