<svg xmlns="http://www.w3.org/2000/svg" viewBox="0 0 256 256" fill="currentColor"><path d="M221,37a12,12,0,0,0-12.85,1.84c-24.71,21.41-44.53,13.31-74.82-1.68C105.19,23.27,70.17,5.94,32.14,38.88A12,12,0,0,0,28,48V216a12,12,0,0,0,24,0V173.71c22.84-17.13,42.1-9.11,70.68,5,16.23,8,34.74,17.2,54.8,17.2,14.72,0,30.28-4.94,46.38-18.88A12,12,0,0,0,228,168V48A12,12,0,0,0,221,37ZM177.48,75.91A63,63,0,0,0,204,70.08v36.16c-11,8.25-21.2,10.66-32,9.36V75.66C173.81,75.81,175.64,75.91,177.48,75.91ZM148,70.08v38.09c-4.64-2-9.5-4.4-14.68-7A255.21,255.21,0,0,0,108,89.83V51.75c4.64,2,9.5,4.4,14.68,7A252.91,252.91,0,0,0,148,70.08ZM84,44.32V84.24a63.33,63.33,0,0,0-32,5.61V53.68C63,45.42,73.2,43,84,44.32ZM78.52,140A63,63,0,0,0,52,145.86V117.71c11-8.26,21.2-10.67,32-9.37v31.94C82.19,140.13,80.36,140,78.52,140ZM108,145.86V115.77c4.64,2,9.5,4.4,14.68,7A252.91,252.91,0,0,0,148,134.1v30.09c-4.64-2.05-9.5-4.4-14.68-7A250.66,250.66,0,0,0,108,145.86Zm64,25.76V139.68c1.81.14,3.64.24,5.48.24A62.85,62.85,0,0,0,204,134.07v28.19C193,170.52,182.8,172.92,172,171.62Z"/></svg>