<svg xmlns="http://www.w3.org/2000/svg" viewBox="0 0 256 256" fill="currentColor"><path d="M248.23,112.31A20,20,0,0,0,232,104H220V88a20,20,0,0,0-20-20H132L105.34,48a20.12,20.12,0,0,0-12-4H40A20,20,0,0,0,20,64V208h0a12,12,0,0,0,12,12H211.1a12,12,0,0,0,11.33-8l28.49-81.47.06-.17A20,20,0,0,0,248.23,112.31ZM92,68l26.67,20a20.12,20.12,0,0,0,12,4H196v12H146.43a20,20,0,0,0-11.1,3.36l-19,12.64H69.42A19.91,19.91,0,0,0,50.9,132.44L44,148.77V68ZM202.59,196H50.1l22-52h45.51a20,20,0,0,0,11.1-3.36l19-12.64h78.73Z"/></svg>