<svg xmlns="http://www.w3.org/2000/svg" viewBox="0 0 256 256" fill="currentColor"><path d="M212,158.06V123.88a59.61,59.61,0,0,0-17.57-42.42L173,60h19a12,12,0,0,0,0-24H144a12,12,0,0,0-12,12V96a12,12,0,0,0,24,0V77l21.46,21.46A35.76,35.76,0,0,1,188,123.88v34.18a36,36,0,1,0,24,0ZM200,204a12,12,0,1,1,12-12A12,12,0,0,1,200,204ZM108,64A36,36,0,1,0,60,97.94v60.12a36,36,0,1,0,24,0V97.94A36.07,36.07,0,0,0,108,64ZM72,204a12,12,0,1,1,12-12A12,12,0,0,1,72,204ZM72,76A12,12,0,1,1,84,64,12,12,0,0,1,72,76Z"/></svg>