<svg xmlns="http://www.w3.org/2000/svg" viewBox="0 0 256 256" fill="currentColor"><path d="M112,148a12,12,0,0,0-12,12v19L78.54,157.57A35.76,35.76,0,0,1,68,132.12V97.94a36,36,0,1,0-24,0v34.18a59.61,59.61,0,0,0,17.57,42.42L83,196H64a12,12,0,0,0,0,24h48a12,12,0,0,0,12-12V160A12,12,0,0,0,112,148ZM56,52A12,12,0,1,1,44,64,12,12,0,0,1,56,52ZM212,158.06V123.88a59.61,59.61,0,0,0-17.57-42.42L173,60h19a12,12,0,0,0,0-24H144a12,12,0,0,0-12,12V96a12,12,0,0,0,24,0V77l21.46,21.46A35.76,35.76,0,0,1,188,123.88v34.18a36,36,0,1,0,24,0ZM200,204a12,12,0,1,1,12-12A12,12,0,0,1,200,204Z"/></svg>