<svg xmlns="http://www.w3.org/2000/svg" viewBox="0 0 256 256" fill="currentColor"><path d="M128,20A108,108,0,1,0,236,128,108.12,108.12,0,0,0,128,20Zm83.13,96H179.56a155.5,155.5,0,0,0-19.51-65.63A84.23,84.23,0,0,1,211.13,116ZM100.51,140h55c-2.25,26.69-12,51.46-27.49,69.85C112.46,191.46,102.76,166.69,100.51,140Zm0-24c2.25-26.69,11.95-51.46,27.49-69.85,15.54,18.39,25.24,43.16,27.49,69.85ZM96,50.37A155.5,155.5,0,0,0,76.44,116H44.87A84.23,84.23,0,0,1,96,50.37ZM44.87,140H76.44A155.5,155.5,0,0,0,96,205.63,84.23,84.23,0,0,1,44.87,140Zm115.18,65.63A155.5,155.5,0,0,0,179.56,140h31.57A84.23,84.23,0,0,1,160.05,205.63Z"/></svg>