<svg xmlns="http://www.w3.org/2000/svg" viewBox="0 0 256 256" fill="currentColor"><path d="M241,149.65,172.59,37.51l-.07-.11a19.85,19.85,0,0,0-17-9.4H100.44a19.85,19.85,0,0,0-17,9.4l-.07.11L15,149.65a20,20,0,0,0-.36,20.46L42,217.92A20,20,0,0,0,59.33,228H196.67A20,20,0,0,0,214,217.92l27.32-47.81A20,20,0,0,0,241,149.65ZM211.88,148H174.79L142,93.33l18.12-30.19ZM54.8,192,43.36,172H66.81Zm40-20h66.4l19.2,32H75.6Zm14.4-24L128,116.66,146.8,148Zm80,24h23.45L201.2,192ZM128,70,117.19,52h21.62ZM95.89,63.14,114,93.33,81.21,148H44.12Z"/></svg>