<svg xmlns="http://www.w3.org/2000/svg" viewBox="0 0 256 256" fill="currentColor"><path d="M224,44H32A20,20,0,0,0,12,64V192a20,20,0,0,0,20,20H92.69a19.86,19.86,0,0,0,14.14-5.86L128,185l21.17,21.17A19.86,19.86,0,0,0,163.31,212H224a20,20,0,0,0,20-20V64A20,20,0,0,0,224,44Zm-4,144H165l-22.83-22.83a20,20,0,0,0-28.28,0L91,188H36V68H220ZM82,160a34,34,0,1,0-34-34A34,34,0,0,0,82,160Zm0-44a10,10,0,1,1-10,10A10,10,0,0,1,82,116Zm92,44a34,34,0,1,0-34-34A34,34,0,0,0,174,160Zm0-44a10,10,0,1,1-10,10A10,10,0,0,1,174,116Z"/></svg>