<svg xmlns="http://www.w3.org/2000/svg" viewBox="0 0 256 256" fill="currentColor"><path d="M81.61,247.27a12,12,0,0,1-16.8,2.41A131.23,131.23,0,0,1,29.67,210a12,12,0,1,1,20.79-12,107.45,107.45,0,0,0,28.73,32.48A12,12,0,0,1,81.61,247.27ZM223.66,98A92,92,0,0,1,64.31,190l-38-65.82A32,32,0,0,1,45.46,77.33L45,76.46A32,32,0,0,1,81,29.55,31.7,31.7,0,0,1,90.62,34,32,32,0,0,1,143,38.31L155.52,60a32,32,0,0,1,50.14,6.84Zm-20.78,12-18-31.18a8,8,0,0,0-13.87,8h0l10,17.31a12,12,0,0,1-4.39,16.39,28,28,0,0,0-10.25,38.25,12,12,0,0,1-20.79,12A52.09,52.09,0,0,1,154.93,107L122.24,50.31a8,8,0,0,0-13.86,8l26,45a12,12,0,0,1-20.79,12l-34-58.89a8,8,0,0,0-10.92-2.93,8,8,0,0,0-2.93,10.93l38,65.81a12,12,0,1,1-20.79,12l-22-38.1a8,8,0,1,0-13.85,8L85.1,178a68,68,0,0,0,117.78-68ZM240.3,46.81a71.5,71.5,0,0,0-43.72-33.55,12,12,0,0,0-6.21,23.19,47.65,47.65,0,0,1,29.15,22.36,12,12,0,1,0,20.78-12Z"/></svg>