<svg xmlns="http://www.w3.org/2000/svg" viewBox="0 0 256 256" fill="currentColor"><path d="M123.64,218.91A12,12,0,0,1,112,228a12.28,12.28,0,0,1-2.92-.36l-32-8A11.79,11.79,0,0,1,73.34,218l-24-16a12,12,0,0,1,13.32-20l22.27,14.85,30,7.5A12,12,0,0,1,123.64,218.91ZM255,122.75a19.88,19.88,0,0,1-10,11.56l-22.87,11.44-53.58,54.73a12,12,0,0,1-11.4,3.16l-64-16a12.16,12.16,0,0,1-4.17-1.95L35,146.28l-23.94-12a20,20,0,0,1-9-26.83L27,57.79h0a20,20,0,0,1,26.83-8.94L74.42,59.16l50.21-14.68a12.07,12.07,0,0,1,6.74,0l50.21,14.68,20.63-10.32A20,20,0,0,1,229,57.79l24.85,49.69A19.86,19.86,0,0,1,255,122.75ZM200.3,134l-25-50H148.86l-38.2,37.05c15.76,7.26,31.16.19,40.82-9.55a12,12,0,0,1,16-.91l31.26,25ZM25.37,114.63,35.9,119.9,57.17,77.37,46.63,72.1ZM182,153,160.3,135.57c-20.49,15.29-45.85,16.79-67,3.25a20,20,0,0,1-3.4-31l.12-.12L129.82,69,128,68.5,81.66,82.05,56.54,132.29l44.65,32.64,55.13,13.78Zm48.59-38.36L209.37,72.1l-10.54,5.27L220.1,119.9Z"/></svg>