<svg xmlns="http://www.w3.org/2000/svg" viewBox="0 0 256 256" fill="currentColor"><path d="M164,20V12a12,12,0,0,1,24,0v8a12,12,0,0,1-24,0Zm41.83,21.41a12,12,0,0,0,16.71-2.95l4.59-6.55a12,12,0,1,0-19.66-13.77l-4.59,6.55A12,12,0,0,0,205.83,41.41Zm49.45,13.87A12,12,0,0,0,239.9,48.1l-7.52,2.74a12,12,0,0,0,8.21,22.56l7.51-2.74A12,12,0,0,0,255.28,55.28ZM224.73,91.49a83.69,83.69,0,0,1-12.51,100.58A84,84,0,0,1,59,210L24,149.38A30,30,0,0,1,40.5,105.92l-1.3-2.25A30,30,0,0,1,56,60.11a30,30,0,0,1,46.62-30.55,30,30,0,0,1,48,5.45l9.3,16.11a29.54,29.54,0,0,1,4.89-3.52,30,30,0,0,1,41,11ZM174.56,76.58l5.61,9.72a30.12,30.12,0,0,1,5.34,6.79l19,32.91a84.66,84.66,0,0,1,7,15.54,60,60,0,0,0-7.56-38L185,70.58a6,6,0,1,0-10.39,6ZM119.38,53h0L125,62.77a29.8,29.8,0,0,1,5.33,6.75l9.31,16.1a29.83,29.83,0,0,1,4.88-3.51,30.46,30.46,0,0,1,4.32-2.06L129.77,47a6,6,0,1,0-10.39,6ZM80.2,57.15l3.33,5.77a29.65,29.65,0,0,1,5.83-4.38,30.88,30.88,0,0,1,4.31-2.06L90.6,51.15A6,6,0,0,0,87,48.36a6,6,0,0,0-6.75,8.79ZM189.72,183.54a59.64,59.64,0,0,0-6-45.54l-19-32.91a6,6,0,0,0-11,1.45,6.06,6.06,0,0,0,.28,3.92L165.33,130a12,12,0,1,1-20.77,12l-35-60.5A6,6,0,0,0,99.1,87.4L123.72,130a12,12,0,1,1-20.78,12L70.38,85.66a6,6,0,1,0-10.4,6L96,154a12,12,0,0,1-20.79,12l-20-34.64a6,6,0,1,0-10.39,6l35,60.63a60,60,0,0,0,109.91-14.47Z"/></svg>