<svg xmlns="http://www.w3.org/2000/svg" viewBox="0 0 256 256" fill="currentColor"><path d="M160,12A84.05,84.05,0,0,0,79.38,119.65L23.51,175.51A12,12,0,0,0,20,184v40a12,12,0,0,0,12,12H72a12,12,0,0,0,12-12V212H96a12,12,0,0,0,12-12V188h12a12,12,0,0,0,8.49-3.51l7.86-7.87A84,84,0,1,0,160,12Zm0,144a59.58,59.58,0,0,1-22.1-4.2,12,12,0,0,0-13.22,2.55L115,164H96a12,12,0,0,0-12,12v12H72a12,12,0,0,0-12,12v12H44V189l57.65-57.65a12,12,0,0,0,2.55-13.21A60,60,0,1,1,160,156Zm36-80a16,16,0,1,1-16-16A16,16,0,0,1,196,76Z"/></svg>