<svg xmlns="http://www.w3.org/2000/svg" viewBox="0 0 256 256" fill="currentColor"><path d="M136.37,187.53a12,12,0,0,1,0,17l-5.94,5.94a60,60,0,0,1-84.88-84.88l24.12-24.11A60,60,0,0,1,152,99,12,12,0,1,1,136,117a36,36,0,0,0-49.37,1.47L62.53,142.55a36,36,0,0,0,50.92,50.92l5.94-5.94A12,12,0,0,1,136.37,187.53Zm74.08-142a60.09,60.09,0,0,0-84.88,0l-5.94,5.94a12,12,0,0,0,17,17l5.94-5.94a36,36,0,0,1,50.92,50.92l-24.11,24.12A36,36,0,0,1,120,139,12,12,0,1,0,104,157a60,60,0,0,0,82.3-2.43l24.12-24.11A60.09,60.09,0,0,0,210.45,45.55Z"/></svg>