<svg xmlns="http://www.w3.org/2000/svg" viewBox="0 0 256 256" fill="currentColor"><path d="M231.49,225.38a12,12,0,0,1-16.89-1.9C213.19,221.72,180,179.24,180,96A52,52,0,1,0,76,96c0,83.24-33.21,125.72-34.62,127.48A12,12,0,0,1,22.6,208.53C23,208,52,170.06,52,96a76,76,0,1,1,152,0c0,74.19,29.1,112.16,29.4,112.54A12,12,0,0,1,231.49,225.38ZM104,128a16,16,0,1,0-16-16A16,16,0,0,0,104,128Zm64-16a16,16,0,1,0-16,16A16,16,0,0,0,168,112ZM95.26,163l28,12a12,12,0,0,0,9.45,0l28-12A12,12,0,0,0,151.26,141l-23.27,10-23.27-10A12,12,0,0,0,95.26,163ZM128,192a57.12,57.12,0,0,0-38.66,15.15,12,12,0,0,0,16.23,17.69,32.86,32.86,0,0,1,44.85,0,12,12,0,1,0,16.23-17.69A57.1,57.1,0,0,0,128,192Z"/></svg>