<svg xmlns="http://www.w3.org/2000/svg" viewBox="0 0 256 256" fill="currentColor"><path d="M244,120a52.06,52.06,0,0,0-52-52H152.32c-3.44-.21-52.6-4-99.46-43.3A20,20,0,0,0,20,40V200a19.8,19.8,0,0,0,11.54,18.12,19.86,19.86,0,0,0,21.32-2.81A192.92,192.92,0,0,1,136,174.47v26.2a20,20,0,0,0,8.9,16.64,11.35,11.35,0,0,0,1.39.8l14.44,7.06A20,20,0,0,0,190.37,213l11.09-41.82A52.07,52.07,0,0,0,244,120ZM44,191.63V48.4c36.17,28.07,72.17,38.1,92,41.66V150C116.17,153.52,80.17,163.55,44,191.63ZM168.39,202.2,160,198.1V172h16.4ZM192,148H160V92h32a28,28,0,1,1,0,56Z"/></svg>