<svg xmlns="http://www.w3.org/2000/svg" viewBox="0 0 256 256" fill="currentColor"><path d="M56.88,31.93A12,12,0,1,0,39.12,48.07L76,88.64V120a52,52,0,0,0,72.11,48l11.26,12.39A67.34,67.34,0,0,1,128,188a68.07,68.07,0,0,1-68-68,12,12,0,0,0-24,0,92.14,92.14,0,0,0,80,91.22V232a12,12,0,0,0,24,0V211.23a90.39,90.39,0,0,0,35.92-12.68l23.2,25.52a12,12,0,0,0,17.76-16.14ZM128,148a28,28,0,0,1-28-28v-5l29.9,32.89C129.27,148,128.64,148,128,148ZM90.67,45.27a12,12,0,0,1-.48-17A52,52,0,0,1,180,64v48.54a12,12,0,1,1-24,0V64a28,28,0,0,0-48.36-19.22A12,12,0,0,1,90.67,45.27ZM191,145.58A67.63,67.63,0,0,0,196,120a12,12,0,0,1,24,0,91.48,91.48,0,0,1-6.74,34.61,12,12,0,0,1-22.23-9Z"/></svg>