<svg xmlns="http://www.w3.org/2000/svg" viewBox="0 0 256 256" fill="currentColor"><path d="M236,56a12,12,0,0,1-12,12H212V80a12,12,0,0,1-24,0V68H176a12,12,0,0,1,0-24h12V32a12,12,0,0,1,24,0V44h12A12,12,0,0,1,236,56Zm-16,68v48a40,40,0,1,1-24-36.65V124a12,12,0,0,1,24,0Zm-24,48a16,16,0,1,0-16,16A16,16,0,0,0,196,172ZM92,121.37V204a40,40,0,1,1-24-36.65V64a12,12,0,0,1,9.09-11.64l52-13a12,12,0,0,1,5.82,23.28L92,73.37V96.63l53.09-13.27a12,12,0,0,1,5.82,23.28ZM68,204a16,16,0,1,0-16,16A16,16,0,0,0,68,204Z"/></svg>