<svg xmlns="http://www.w3.org/2000/svg" viewBox="0 0 256 256" fill="currentColor"><path d="M244,100.68a19.86,19.86,0,0,0-5.86-14.14L169.46,17.85a20,20,0,0,0-28.29,0L113.35,45.67,56.11,67.14A20,20,0,0,0,43.4,82.58L20.16,222A12,12,0,0,0,32,236a11.9,11.9,0,0,0,2-.16l139.45-23.25a20.07,20.07,0,0,0,15.44-12.7l21.46-57.25,27.82-27.82A19.85,19.85,0,0,0,244,100.68ZM167.2,189.3,67,206l33-33a34,34,0,1,0-17-17L50,189,66.7,88.8,117,69.94,186.05,139ZM104,142a10,10,0,1,1,10,10A10,10,0,0,1,104,142Zm96-23L137,56l18.34-18.34,63,63Z"/></svg>