<svg xmlns="http://www.w3.org/2000/svg" viewBox="0 0 256 256" fill="currentColor"><path d="M168,84a32,32,0,1,0-32-32A32,32,0,0,0,168,84Zm0-40a8,8,0,1,1-8,8A8,8,0,0,1,168,44Zm34,92a42,42,0,1,0,42,42A42,42,0,0,0,202,136Zm0,60a18,18,0,1,1,18-18A18,18,0,0,1,202,196ZM54,136a42,42,0,1,0,42,42A42,42,0,0,0,54,136Zm0,60a18,18,0,1,1,18-18A18,18,0,0,1,54,196Zm134-68H152a12,12,0,0,1-8.49-3.51L120,101l-15,15,31.52,31.51A12,12,0,0,1,140,156v48a12,12,0,0,1-24,0V161L79.51,124.49a12,12,0,0,1,0-17l32-32a12,12,0,0,1,17,0L157,104h31a12,12,0,0,1,0,24Z"/></svg>