<svg xmlns="http://www.w3.org/2000/svg" viewBox="0 0 256 256" fill="currentColor"><path d="M151.52,87.51,167,72,151.52,56.48a12,12,0,1,1,17-17L184,55l15.52-15.52a12,12,0,0,1,17,17L201,72l15.52,15.51a12,12,0,1,1-17,17L184,89l-15.51,15.51a12,12,0,1,1-17-17Zm84.33,88.07A60.27,60.27,0,0,1,176,228C94.39,228,28,161.61,28,80A60.27,60.27,0,0,1,80.42,20.15,20.06,20.06,0,0,1,101.2,32l21.11,47.13a1.42,1.42,0,0,0,.08.18,20,20,0,0,1-1.66,18.83,11.76,11.76,0,0,1-.85,1.15L100.82,122c7.06,12.84,20.5,26.16,33.49,33.21l22.31-19a13.08,13.08,0,0,1,1.12-.84,19.94,19.94,0,0,1,19-1.75l.18.08L224,154.8A20.06,20.06,0,0,1,235.85,175.58Zm-24.31-.06-42-18.81-22.43,19.07a11.63,11.63,0,0,1-1.11.85A20,20,0,0,1,126.31,178c-19.48-9.4-38.89-28.68-48.31-48a20,20,0,0,1,1.28-19.64,12,12,0,0,1,.86-1.16L99.3,86.49l-18.82-42A36.29,36.29,0,0,0,52,80,124.15,124.15,0,0,0,176,204,36.29,36.29,0,0,0,211.54,175.52Z"/></svg>