<svg xmlns="http://www.w3.org/2000/svg" viewBox="0 0 256 256" fill="currentColor"><path d="M148.41,36.9a12,12,0,0,1,14.69-8.49A90.12,90.12,0,0,1,227.59,92.9a12,12,0,1,1-23.18,6.2A66.42,66.42,0,0,0,156.9,51.59,12,12,0,0,1,148.41,36.9Zm87.44,138.68A60.27,60.27,0,0,1,176,228C94.39,228,28,161.61,28,80A60.27,60.27,0,0,1,80.42,20.15,20.05,20.05,0,0,1,101.2,32l21.11,47.13a1.42,1.42,0,0,0,.08.18,20,20,0,0,1-1.66,18.83,10.67,10.67,0,0,1-.85,1.15L100.82,122c7.06,12.84,20.5,26.16,33.49,33.21l22.31-19a13.08,13.08,0,0,1,1.12-.84,19.91,19.91,0,0,1,19-1.74l.18.08L224,154.8A20.06,20.06,0,0,1,235.85,175.58Zm-24.31-.06-42-18.81-22.43,19.07a11.63,11.63,0,0,1-1.11.85A20,20,0,0,1,126.31,178c-19.48-9.4-38.89-28.68-48.31-48a20,20,0,0,1,1.28-19.64,10.75,10.75,0,0,1,.86-1.15L99.3,86.49l-18.82-42A36.29,36.29,0,0,0,52,80,124.15,124.15,0,0,0,176,204,36.29,36.29,0,0,0,211.54,175.52ZM145.63,89.47a32,32,0,0,1,20.9,20.9,12,12,0,0,0,11.44,8.4,12.22,12.22,0,0,0,3.61-.55,12,12,0,0,0,7.84-15,56,56,0,0,0-36.59-36.59,12,12,0,1,0-7.2,22.89Z"/></svg>