<svg xmlns="http://www.w3.org/2000/svg" viewBox="0 0 256 256" fill="currentColor"><path d="M243.43,62.05a19.93,19.93,0,0,0-9.06-12.38,205.51,205.51,0,0,0-212.74,0,20,20,0,0,0-6.7,27.48l96,157.26a20,20,0,0,0,34.2,0l96-157.26A19.82,19.82,0,0,0,243.43,62.05ZM87,149.18,67.13,116.62A19.82,19.82,0,0,1,72,116a20,20,0,0,1,15,33.18Zm64,29.45A20,20,0,0,1,168,148c.56,0,1.12,0,1.67.07Zm31.78-52.08a44,44,0,0,0-44.9,73.57L128,216.36,99.77,170.1A44,44,0,0,0,79.49,92.65a140.2,140.2,0,0,1,118,9.81ZM210,82A164.15,164.15,0,0,0,46,82L37.55,68.14a181.52,181.52,0,0,1,180.9,0Z"/></svg>