<svg xmlns="http://www.w3.org/2000/svg" viewBox="0 0 256 256" fill="currentColor"><path d="M240.49,175.51a12,12,0,0,1,0,17l-24,24a12,12,0,0,1-17-17L203,196H172.12a20,20,0,0,1-16.28-8.38L81.82,84H32a12,12,0,0,1,0-24H83.88a20.05,20.05,0,0,1,16.28,8.37l74,103.63H203l-3.52-3.51a12,12,0,0,1,17-17ZM110.4,152.64a12,12,0,0,0-16.74,2.79L81.82,172H32a12,12,0,0,0,0,24H83.88a20,20,0,0,0,16.28-8.38l13-18.24A12,12,0,0,0,110.4,152.64Zm35.2-49.28a12,12,0,0,0,16.74-2.79L174.18,84H203l-3.52,3.51a12,12,0,0,0,17,17l24-24a12,12,0,0,0,0-17l-24-24a12,12,0,0,0-17,17L203,60H172.12a20.05,20.05,0,0,0-16.28,8.37l-13,18.25A12,12,0,0,0,145.6,103.36Z"/></svg>