<svg xmlns="http://www.w3.org/2000/svg" viewBox="0 0 256 256" fill="currentColor"><path d="M128,20A108,108,0,1,0,236,128,108.12,108.12,0,0,0,128,20Zm0,192a84,84,0,1,1,84-84A84.09,84.09,0,0,1,128,212Zm60.49-92.49a12,12,0,0,1-17,17L164,129l-7.51,7.52a12,12,0,0,1-17-17L147,112l-7.52-7.51a12,12,0,0,1,17-17L164,95l7.51-7.52a12,12,0,0,1,17,17L181,112Zm-72,17a12,12,0,0,1-17,0L92,129l-7.51,7.52a12,12,0,0,1-17-17L75,112l-7.52-7.51a12,12,0,0,1,17-17L92,95l7.51-7.52a12,12,0,0,1,17,17L109,112l7.52,7.51A12,12,0,0,1,116.49,136.49ZM144,180a16,16,0,1,1-16-16A16,16,0,0,1,144,180Z"/></svg>