<svg xmlns="http://www.w3.org/2000/svg" viewBox="0 0 256 256" fill="currentColor"><path d="M212,148a24,24,0,0,1-24-24V95.71a20.14,20.14,0,0,0-18.42-19.93C147.45,74,133.07,60,132.06,39.3a20,20,0,0,0-5.83-13.17L118,17.9a19.91,19.91,0,0,0-27.94-.34l-.22.22-64,64.11a20,20,0,0,0,0,28.28l.13.13L133.25,214.22A19.86,19.86,0,0,0,147.31,220H236a20,20,0,0,0,20-20v-8A44,44,0,0,0,212,148Zm20,48H148.94L45.7,96,103.87,37.7,108.18,42c2.18,30.66,24.27,53.22,55.82,57.3V108H148a12,12,0,1,0,0,24h16.68a47.8,47.8,0,0,0,3.7,12H156a12,12,0,1,0,0,24h36.84A47.69,47.69,0,0,0,212,172a20,20,0,0,1,20,20ZM52,184H28a12,12,0,0,1,0-24H52a12,12,0,0,1,0,24Zm52,24a12,12,0,0,1-12,12H44a12,12,0,1,1,0-24H92A12,12,0,0,1,104,208Z"/></svg>