<svg xmlns="http://www.w3.org/2000/svg" viewBox="0 0 256 256" fill="currentColor"><path d="M199,125.31l-49.89-18.38L130.69,57a19.92,19.92,0,0,0-37.38,0L74.93,106.93,25,125.31a19.92,19.92,0,0,0,0,37.38l49.89,18.38L93.31,231a19.92,19.92,0,0,0,37.38,0l18.38-49.89L199,162.69a19.92,19.92,0,0,0,0-37.38Zm-60,33.9a19.89,19.89,0,0,0-11.8,11.8L112,212.28,96.79,171A19.89,19.89,0,0,0,85,159.21h0L43.72,144,85,128.79A19.89,19.89,0,0,0,96.79,117L112,75.72,127.21,117a19.89,19.89,0,0,0,11.8,11.8L180.28,144ZM140,40a12,12,0,0,1,12-12h12V16a12,12,0,0,1,24,0V28h12a12,12,0,0,1,0,24H188V64a12,12,0,0,1-24,0V52H152A12,12,0,0,1,140,40ZM252,88a12,12,0,0,1-12,12h-4v4a12,12,0,0,1-24,0v-4h-4a12,12,0,0,1,0-24h4V72a12,12,0,0,1,24,0v4h4A12,12,0,0,1,252,88Z"/></svg>