<svg xmlns="http://www.w3.org/2000/svg" viewBox="0 0 256 256" fill="currentColor"><path d="M240,88v80a12,12,0,0,1-24,0V88a12,12,0,0,1,24,0ZM216.88,207.93a12,12,0,1,1-17.76,16.14L164,185.44V224a12,12,0,0,1-19.37,9.47L75.88,180H32a20,20,0,0,1-20-20V96A20,20,0,0,1,32,76H64.51L39.12,48.07A12,12,0,1,1,56.88,31.93ZM140,159,86.33,100H36v56H80a12,12,0,0,1,7.37,2.53L140,199.46Zm-14.15-91.5,14.15-11v38.4a12,12,0,0,0,24,0V32a12,12,0,0,0-19.37-9.47L111.12,48.6a12,12,0,1,0,14.73,18.94ZM192,150.94a12,12,0,0,0,12-12V104a12,12,0,0,0-24,0v34.94A12,12,0,0,0,192,150.94Z"/></svg>