<svg xmlns="http://www.w3.org/2000/svg" viewBox="0 0 256 256" fill="currentColor"><path d="M237.13,117.4,231.89,122a12,12,0,0,1-17.28-16.52A12,12,0,0,1,217,81.58l8.7.75a20,20,0,0,1,11.39,35.07Zm-60.88,21.27a20,20,0,0,0-6.35,19.63l2.86,12.41a12,12,0,1,0,23.39-5.4l-2.34-10.11,6.08-5.31a12,12,0,1,0-15.78-18.08Zm-22,66.58a12,12,0,0,1-16.49,4L128,203.34,79,233.1a20,20,0,0,1-29.8-21.66l13-56.24L18.87,117.4A20,20,0,0,1,30.26,82.33l57-4.93,22.3-53.14a20,20,0,0,1,36.82,0l22.3,53.14,8.33.72A12,12,0,0,1,175,102l-10.77-.93a19.92,19.92,0,0,1-16.69-12.19L140,71V182.55l10.23,6.21A12,12,0,0,1,154.26,205.25ZM116,182.55V71l-7.51,17.89A19.92,19.92,0,0,1,91.8,101.1l-50.14,4.34,38.09,33.23A20,20,0,0,1,86.1,158.3L74.71,207.62Zm89.39,22.76a12,12,0,0,0-23.7,2.57,12,12,0,0,0-11.92,20.83L177,233.1a20,20,0,0,0,29.8-21.66Z"/></svg>