<svg xmlns="http://www.w3.org/2000/svg" viewBox="0 0 256 256" fill="currentColor"><path d="M72,144a40,40,0,1,0,40,40A40,40,0,0,0,72,144Zm0,56a16,16,0,1,1,16-16A16,16,0,0,1,72,200ZM40,128a12,12,0,0,1-8.49-20.49L43,96,31.51,84.49a12,12,0,0,1,17-17L60,79,71.51,67.51a12,12,0,0,1,17,17L77,96l11.52,11.51a12,12,0,0,1-17,17L60,113,48.49,124.49A12,12,0,0,1,40,128Zm184.49,75.51a12,12,0,0,1-17,17L196,209l-11.51,11.52a12,12,0,0,1-17-17L179,192l-11.52-11.51a12,12,0,0,1,17-17L196,175l11.51-11.52a12,12,0,0,1,17,17L213,192Zm-43.4-92.62c-5.21,23-23.33,43.53-45.09,51.22a12,12,0,1,1-8-22.63c14.07-5,26.27-18.91,29.67-33.9,2.37-10.46.4-20.84-5.68-30.54v9a12,12,0,0,1-24,0V44a12,12,0,0,1,12-12h40a12,12,0,0,1,0,24H168C180.77,72.61,185.42,91.76,181.09,110.89Z"/></svg>