<svg xmlns="http://www.w3.org/2000/svg" viewBox="0 0 256 256" fill="currentColor"><path d="M234.79,149.32,215.7,97.11A20,20,0,0,0,190.12,85.2l-61.31,22.22L139.7,45.18A20,20,0,0,0,123.55,22L68.87,12.31A19.94,19.94,0,0,0,45.76,28.55l-25,143.13A48,48,0,0,0,59.4,227.26a51.19,51.19,0,0,0,8.7.74H216a20,20,0,0,0,20-20V156.19A21.74,21.74,0,0,0,234.79,149.32ZM91,184.18a23.84,23.84,0,0,1-9.86,15.56,23.28,23.28,0,0,1-17.56,3.89,24,24,0,0,1-19.23-27.82L68.71,36.66,115.37,45,91,184.18Zm23.64,4.13,9.39-53.64,70.49-25.54,16.3,44.59-96.23,34.87C114.62,188.5,114.65,188.41,114.66,188.31ZM212,204H142.52L212,178.82ZM81.22,174.07l-1.4,8A12,12,0,0,1,68,192a12.35,12.35,0,0,1-2.08-.18,12,12,0,0,1-9.75-13.89l1.4-8a12,12,0,0,1,23.64,4.14Z"/></svg>