<svg xmlns="http://www.w3.org/2000/svg" viewBox="0 0 256 256" fill="currentColor"><path d="M244,112h-9.45L204.46,65.18A19.93,19.93,0,0,0,187.63,56H168.12l-11-27.43A19.9,19.9,0,0,0,138.58,16H117.42A19.9,19.9,0,0,0,98.85,28.57L87.88,56H68.37a19.91,19.91,0,0,0-16.83,9.19L21.45,112H12a12,12,0,0,0,0,24h4v68a20,20,0,0,0,20,20H60a20,20,0,0,0,20-20V184h96v20a20,20,0,0,0,20,20h24a20,20,0,0,0,20-20V136h4a12,12,0,0,0,0-24ZM120.12,40h15.76l6.4,16H113.72ZM70.55,80h114.9L206,112H50ZM56,200H40V184H56Zm144,0V184h16v16Zm16-40H40V136H216Z"/></svg>