<svg xmlns="http://www.w3.org/2000/svg" viewBox="0 0 256 256" fill="currentColor"><path d="M201.18,59.63a80,80,0,0,0-146.36,0A76.29,76.29,0,0,0,12,127.79c-.11,41,33.1,75.15,74,76.19a75.84,75.84,0,0,0,30-5.31V232a12,12,0,0,0,24,0V198.67A75.79,75.79,0,0,0,168,204l2,0c40.94-1,74.15-35.22,74-76.19A76.29,76.29,0,0,0,201.18,59.63ZM169.35,180A51.51,51.51,0,0,1,140,171.8V135.42l41.37-20.69a12,12,0,1,0-10.74-21.46L140,108.58V88a12,12,0,0,0-24,0v44.58L85.37,117.27a12,12,0,0,0-10.74,21.46L116,159.42V171.8A51.43,51.43,0,0,1,86.65,180,52,52,0,0,1,66.27,80.76,20,20,0,0,0,76.34,70.34a56,56,0,0,1,103.32,0,20,20,0,0,0,10.07,10.42A52,52,0,0,1,169.35,180Z"/></svg>