<svg xmlns="http://www.w3.org/2000/svg" viewBox="0 0 256 256" fill="currentColor"><path d="M168,116h48a20,20,0,0,0,20-20V48a20,20,0,0,0-20-20H168a20,20,0,0,0-20,20V60h-4a36,36,0,0,0-36,36v20H84v-4A20,20,0,0,0,64,92H32a20,20,0,0,0-20,20v32a20,20,0,0,0,20,20H64a20,20,0,0,0,20-20v-4h24v20a36,36,0,0,0,36,36h4v12a20,20,0,0,0,20,20h48a20,20,0,0,0,20-20V160a20,20,0,0,0-20-20H168a20,20,0,0,0-20,20v12h-4a12,12,0,0,1-12-12V96a12,12,0,0,1,12-12h4V96A20,20,0,0,0,168,116ZM60,140H36V116H60Zm112,24h40v40H172Zm0-112h40V92H172Z"/></svg>