<svg xmlns="http://www.w3.org/2000/svg" viewBox="0 0 256 256" fill="currentColor"><path d="M251.14,115.54l-14-35A19.89,19.89,0,0,0,218.58,68H188V64a12,12,0,0,0-12-12H24A20,20,0,0,0,4,72V184a20,20,0,0,0,20,20H38.06a36,36,0,0,0,67.88,0h44.12a36,36,0,0,0,67.88,0H232a20,20,0,0,0,20-20V120A21.7,21.7,0,0,0,251.14,115.54ZM188,92h27.88l6.4,16H188ZM72,204a12,12,0,1,1,12-12A12,12,0,0,1,72,204Zm92-41.92A36.32,36.32,0,0,0,150.06,180H105.94a36,36,0,0,0-67.88,0H28V140H164ZM164,116H28V76H164Zm20,88a12,12,0,1,1,12-12A12,12,0,0,1,184,204Zm44-24H217.94A36.09,36.09,0,0,0,188,156.23V132h40Z"/></svg>