<svg xmlns="http://www.w3.org/2000/svg" viewBox="0 0 256 256" fill="currentColor"><path d="M152.5,156.53a72,72,0,1,0-89,0,124,124,0,0,0-48.69,35.75,12,12,0,0,0,18.38,15.44C52.54,184.69,79.11,172,108,172c37,0,61.12,19.42,74.81,35.72a12,12,0,1,0,18.38-15.44A124,124,0,0,0,152.5,156.53ZM60,100a48,48,0,1,1,48,48A48.05,48.05,0,0,1,60,100Zm182.73,41.23-3.31,1.08,2,2.82a12,12,0,1,1-19.41,14.1L220,156.41,218,159.23a12,12,0,1,1-19.41-14.1l2-2.82-3.31-1.08a12,12,0,0,1,7.42-22.82l3.31,1.07V116a12,12,0,0,1,24,0v3.48l3.31-1.07a12,12,0,0,1,7.42,22.82Z"/></svg>