<svg xmlns="http://www.w3.org/2000/svg" viewBox="0 0 256 256" fill="currentColor"><path d="M123.12,100.52l-26,64a12,12,0,0,1-22.24,0l-26-64a12,12,0,0,1,22.24-9L86,128.12l14.88-36.64a12,12,0,0,1,22.24,9ZM256,128a84.09,84.09,0,0,1-84,84H84A84,84,0,0,1,84,44h88A84.09,84.09,0,0,1,256,128Zm-24,0a60.07,60.07,0,0,0-60-60H84a60,60,0,0,0,0,120h88A60.07,60.07,0,0,0,232,128Zm-42,11.24,8.46,14.81A12,12,0,1,1,177.58,166L167.32,148H160v12a12,12,0,0,1-24,0V96a12,12,0,0,1,12-12h20a32,32,0,0,1,22,55.24ZM160,124h8a8,8,0,0,0,0-16h-8Z"/></svg>