<svg xmlns="http://www.w3.org/2000/svg" viewBox="0 0 256 256" fill="currentColor"><path d="M107.69,51.88a12,12,0,0,0-9.84-2.6l-60,10.91A12,12,0,0,0,28,72v36a12,12,0,0,0,12,12h60a12,12,0,0,0,12-12V61.09A12,12,0,0,0,107.69,51.88ZM88,96H52V82l36-6.54ZM223.69,30.79a12,12,0,0,0-9.84-2.6L137.85,42A12,12,0,0,0,128,53.82V108a12,12,0,0,0,12,12h76a12,12,0,0,0,12-12V40A12,12,0,0,0,223.69,30.79ZM204,96H152V63.83l52-9.45ZM100,136H40a12,12,0,0,0-12,12v36a12,12,0,0,0,9.85,11.81l60,10.91A12,12,0,0,0,112,194.91V148A12,12,0,0,0,100,136ZM88,180.53,52,174V160H88ZM216,136H140a12,12,0,0,0-12,12v54.18A12,12,0,0,0,137.85,214l76,13.82A12,12,0,0,0,228,216V148A12,12,0,0,0,216,136Zm-12,65.62-52-9.45V160h52Z"/></svg>