<svg xmlns="http://www.w3.org/2000/svg" viewBox="0 0 256 256" fill="currentColor"><path d="M230.47,67.5a12,12,0,0,0-19.26-4.32L172.43,99l-12.68-2.72L157,83.57l35.79-38.78a12,12,0,0,0-4.32-19.26A76,76,0,0,0,89.24,123.8L31.17,174c-.22.19-.44.39-.64.6a36,36,0,0,0,50.91,50.91c.21-.2.41-.42.6-.64l50.16-58.07A76,76,0,0,0,230.47,67.5ZM160,148a52.1,52.1,0,0,1-25.13-6.46A12,12,0,0,0,120,144.2L64.21,208.75a12,12,0,0,1-17-17L111.8,136a12,12,0,0,0,2.65-14.89A52,52,0,0,1,160,44h.89L135.17,71.87a12,12,0,0,0-2.91,10.65l5.66,26.35a12,12,0,0,0,9.21,9.21l26.35,5.66a12,12,0,0,0,10.65-2.91L212,95.12c0,.3,0,.59,0,.89A52.06,52.06,0,0,1,160,148Z"/></svg>